STARTFONT 2.1
COMMENT
COMMENT Converted from OpenType font "xuong_regular.otf" by "otf2bdf 3.0".
COMMENT
FONT -FreeType-Xuong-Bold-R-Normal--44-320-100-100-P-214-ISO10646-1
SIZE 32 100 100
FONTBOUNDINGBOX 48 54 -4 -7
STARTPROPERTIES 19
FOUNDRY "FreeType"
FAMILY_NAME "Xuong"
WEIGHT_NAME "Bold"
SLANT "R"
SETWIDTH_NAME "Normal"
ADD_STYLE_NAME ""
PIXEL_SIZE 44
POINT_SIZE 320
RESOLUTION_X 100
RESOLUTION_Y 100
SPACING "P"
AVERAGE_WIDTH 214
CHARSET_REGISTRY "ISO10646"
CHARSET_ENCODING "1"
FONT_ASCENT 39
FONT_DESCENT 7
COPYRIGHT "-FreeType-Xuong-Bold-R-Normal--44-320-100-100-P-214-ISO10646-1"
_OTF_FONTFILE "xuong_regular.otf"
_OTF_PSNAME "Xuong"
ENDPROPERTIES
CHARS 445
STARTCHAR 0000
ENCODING 0
SWIDTH 0 0
DWIDTH 0 0
BBX 0 0 0 0
BITMAP
ENDCHAR
STARTCHAR 000D
ENCODING 13
SWIDTH 247 0
DWIDTH 11 0
BBX 0 0 0 0
BITMAP
ENDCHAR
STARTCHAR 0020
ENCODING 32
SWIDTH 225 0
DWIDTH 10 0
BBX 0 0 0 0
BITMAP
ENDCHAR
STARTCHAR 0021
ENCODING 33
SWIDTH 157 0
DWIDTH 7 0
BBX 6 31 1 0
BITMAP
78
FC
FC
FC
FC
FC
FC
F8
F8
F8
78
78
78
78
78
78
78
78
78
78
78
70
70
00
00
00
FC
FC
FC
FC
FC
ENDCHAR
STARTCHAR 0022
ENCODING 34
SWIDTH 247 0
DWIDTH 11 0
BBX 11 11 0 20
BITMAP
FBE0
FBE0
F9E0
79E0
79E0
79E0
79E0
79E0
71E0
71C0
71C0
ENDCHAR
STARTCHAR 0023
ENCODING 35
SWIDTH 720 0
DWIDTH 32 0
BBX 32 31 0 0
BITMAP
0007C1E0
000783E0
000783E0
000F83C0
000F83C0
000F07C0
000F07C0
001F0780
001F0780
1FFFFFFF
1FFFFFFF
1FFFFFFF
1FFFFFFF
003C1F00
007C1F00
007C1E00
007C3E00
00783E00
FFFFFFF8
FFFFFFF8
FFFFFFF8
FFFFFFF8
01F07800
01F07800
01E0F800
03E0F800
03E0F000
03E1F000
03C1F000
07C1F000
07C1E000
ENDCHAR
STARTCHAR 0024
ENCODING 36
SWIDTH 540 0
DWIDTH 24 0
BBX 20 39 2 -4
BITMAP
00F000
00F000
00F000
00F000
FFFF80
FFFFC0
FFFFE0
FFFFE0
FFFFF0
FFFFF0
FFFFF0
FE03F0
FF0000
FF8000
7FC000
3FE000
1FF000
0FF800
0FFC00
07FE00
03FF00
01FF80
00FFC0
007FE0
003FF0
001FF0
000FF0
FC07F0
FFFFF0
FFFFF0
FFFFF0
7FFFF0
3FFFF0
3FFFF0
1FFFF0
00F000
00F000
00F000
00F000
ENDCHAR
STARTCHAR 0025
ENCODING 37
SWIDTH 607 0
DWIDTH 27 0
BBX 24 31 2 0
BITMAP
FFC0F8
FFC0F8
FFC1F0
FFC1F0
F1C3E0
F1C3E0
F1C7C0
FFC7C0
FFC780
FFCF80
000F00
001F00
001F00
003E00
003E00
007C00
007C00
00F800
00F800
01F000
01F3FC
03E7FE
03E7FF
07C7FF
07C78F
07878F
0F878F
0F87FF
1F07FF
1F07FE
3E03FE
ENDCHAR
STARTCHAR 0026
ENCODING 38
SWIDTH 675 0
DWIDTH 30 0
BBX 29 31 2 0
BITMAP
07FFE000
07FFE000
0FFFF000
1FFFF800
3FFFF800
3FFFFC00
3FFFFC00
3F80FC00
3F00FC00
3F01FC00
3F03FC00
3FFFF800
7FFFF800
FFFFF000
FFFFE000
FFFFE0C0
FE07F1E0
FC07F3F0
FC03FFF8
FC01FFF8
FC01FFF8
FC00FFE0
FC01FFC0
FE07FF80
FFFFFF80
FFFFFFC0
FFFFFFC0
7FFFFFE0
3FFFCFF0
3FFF87F0
1FFF03F0
ENDCHAR
STARTCHAR 0027
ENCODING 39
SWIDTH 112 0
DWIDTH 5 0
BBX 5 11 0 20
BITMAP
F8
F8
F8
78
78
78
78
78
70
70
70
ENDCHAR
STARTCHAR 0028
ENCODING 40
SWIDTH 202 0
DWIDTH 9 0
BBX 9 35 1 -2
BITMAP
0780
0F80
1F00
1F00
3E00
3C00
7C00
7800
F800
F800
F800
F800
F800
F800
F800
F800
F800
F800
F800
F800
F800
F800
F800
F800
F800
F800
F800
F800
7C00
3E00
3E00
1F00
1F00
0F80
0780
ENDCHAR
STARTCHAR 0029
ENCODING 41
SWIDTH 202 0
DWIDTH 9 0
BBX 9 35 0 -2
BITMAP
F000
F800
7800
7C00
3C00
3E00
1F00
0F00
0F80
0F80
0F80
0F80
0F80
0F80
0F80
0F80
0F80
0F80
0F80
0F80
0F80
0F80
0F80
0F80
0F80
0F80
0F80
1F00
1F00
3E00
3E00
7C00
7800
F800
F000
ENDCHAR
STARTCHAR 002A
ENCODING 42
SWIDTH 382 0
DWIDTH 17 0
BBX 16 16 1 15
BITMAP
03C0
03C0
23CC
7BDE
7FFE
FFFF
7FFC
1FF8
3FFC
FFFE
FFFE
7FFE
33CC
03C4
03C0
03C0
ENDCHAR
STARTCHAR 002B
ENCODING 43
SWIDTH 427 0
DWIDTH 19 0
BBX 17 17 1 7
BITMAP
03E000
03E000
03E000
03E000
03E000
03E000
FFFF80
FFFF80
FFFF80
FFFF80
FFFF80
03E000
03E000
03E000
03E000
03E000
03E000
ENDCHAR
STARTCHAR 002C
ENCODING 44
SWIDTH 180 0
DWIDTH 8 0
BBX 8 10 -1 -4
BITMAP
1E
1F
1F
1F
1F
1F
3E
3C
7C
F8
ENDCHAR
STARTCHAR 002D
ENCODING 45
SWIDTH 427 0
DWIDTH 19 0
BBX 17 5 1 15
BITMAP
FFFF80
FFFF80
FFFF80
FFFF80
FFFF80
ENDCHAR
STARTCHAR 002E
ENCODING 46
SWIDTH 157 0
DWIDTH 7 0
BBX 5 5 1 0
BITMAP
F8
F8
F8
F8
F8
ENDCHAR
STARTCHAR 002F
ENCODING 47
SWIDTH 247 0
DWIDTH 11 0
BBX 14 35 -1 -2
BITMAP
007C
0078
0078
00F8
00F8
00F0
01F0
01F0
01E0
01E0
03E0
03E0
03C0
03C0
07C0
07C0
0780
0780
0F80
0F80
0F00
1F00
1F00
1F00
1E00
3E00
3E00
3C00
3C00
7C00
7C00
7800
F800
F800
F800
ENDCHAR
STARTCHAR 0030
ENCODING 48
SWIDTH 562 0
DWIDTH 25 0
BBX 22 31 2 0
BITMAP
1FFFE0
3FFFF0
7FFFF0
7FFFF8
FFFFFC
FFFFFC
FFFFFC
FE01FC
FE01FC
FE01FC
FE01FC
FE01FC
FE01FC
FE01FC
FE01FC
FE01FC
FE01FC
FE01FC
FE01FC
FE01FC
FE01FC
FE01FC
FE01FC
FE03FC
FFFFFC
FFFFFC
FFFFFC
7FFFF8
3FFFF0
3FFFF0
1FFFE0
ENDCHAR
STARTCHAR 0031
ENCODING 49
SWIDTH 382 0
DWIDTH 17 0
BBX 14 31 2 0
BITMAP
03F8
07FC
0FFC
1FFC
3FFC
FFFC
FFFC
FFFC
FFFC
FFFC
F9FC
F1FC
E1FC
01FC
01FC
01FC
01FC
01FC
01FC
01FC
01FC
01FC
01FC
01FC
01FC
01FC
01FC
01FC
01FC
01FC
01FC
ENDCHAR
STARTCHAR 0032
ENCODING 50
SWIDTH 540 0
DWIDTH 24 0
BBX 21 31 2 0
BITMAP
1FFFF0
3FFFF8
7FFFF8
7FFFF8
FFFFF8
FFFFF8
FFFFF8
FF03F8
FE03F8
0003F8
0007F8
000FF8
001FF0
003FE0
007FC0
00FF80
01FF00
03FF00
07FE00
0FFC00
1FF800
3FF000
7FE000
FFC000
FFFFF0
FFFFF8
FFFFF8
FFFFF8
FFFFF8
FFFFF8
FFFFF8
ENDCHAR
STARTCHAR 0033
ENCODING 51
SWIDTH 517 0
DWIDTH 23 0
BBX 20 31 2 0
BITMAP
FFFFE0
FFFFF0
FFFFF0
7FFFF0
3FFFF0
3FFFF0
1FFFF0
0007F0
0007F0
0007F0
0007F0
0007F0
0FFFF0
0FFFF0
0FFFF0
0FFFF0
0FFFF0
0FFFF0
0FFFF0
0007F0
0007F0
0007F0
0007F0
0007F0
1FFFF0
1FFFF0
3FFFF0
7FFFF0
FFFFF0
FFFFF0
FFFFE0
ENDCHAR
STARTCHAR 0034
ENCODING 52
SWIDTH 562 0
DWIDTH 25 0
BBX 22 31 2 0
BITMAP
007FC0
007FE0
00FFE0
01FFE0
01FFE0
03FFE0
03FFE0
07FFE0
0FFFE0
0FFFE0
1FEFE0
1FEFE0
3FCFE0
7F8FE0
7F8FE0
FF0FE0
FE0FE0
FE0FE0
FFFFF8
FFFFFC
FFFFFC
FFFFFC
FFFFFC
FFFFFC
FFFFFC
000FE0
000FE0
000FE0
000FE0
000FE0
000FE0
ENDCHAR
STARTCHAR 0035
ENCODING 53
SWIDTH 517 0
DWIDTH 23 0
BBX 19 31 2 0
BITMAP
FFFFE0
FFFFE0
FFFFE0
FFFFC0
FFFF80
FFFF80
FFFF00
FE0000
FE0000
FE0000
FE0000
FE0000
FFFFE0
FFFFE0
FFFFE0
FFFFE0
FFFFE0
FFFFE0
7FFFE0
000FE0
000FE0
000FE0
000FE0
000FE0
1FFFE0
3FFFE0
3FFFE0
7FFFE0
FFFFE0
FFFFE0
FFFFE0
ENDCHAR
STARTCHAR 0036
ENCODING 54
SWIDTH 540 0
DWIDTH 24 0
BBX 20 31 2 0
BITMAP
FFFF80
FFFFC0
FFFFE0
FFFFE0
FFFFF0
FFFFF0
FFFFF0
FE03F0
FE03F0
FE0000
FE0000
FE0000
FE0000
FE0000
FFFFF0
FFFFF0
FFFFF0
FFFFF0
FFFFF0
FFFFF0
FE07F0
FE07F0
FE07F0
FE07F0
FFFFF0
FFFFF0
FFFFF0
FFFFF0
FFFFF0
FFFFF0
7FFFF0
ENDCHAR
STARTCHAR 0037
ENCODING 55
SWIDTH 472 0
DWIDTH 21 0
BBX 19 31 1 0
BITMAP
FFFFC0
FFFFE0
FFFFE0
7FFFE0
3FFFE0
3FFFE0
1FFFE0
003FC0
003FC0
003FC0
007F80
007F80
007F80
007F00
00FF00
00FF00
00FF00
01FE00
01FE00
01FE00
03FC00
03FC00
03FC00
07F800
07F800
07F800
0FF000
0FF000
0FF000
0FE000
0FE000
ENDCHAR
STARTCHAR 0038
ENCODING 56
SWIDTH 562 0
DWIDTH 25 0
BBX 22 31 2 0
BITMAP
1FFFE0
3FFFF0
7FFFF0
7FFFF8
FFFFFC
FFFFFC
FFFFFC
FF03FC
FE01FC
FE01FC
FE01FC
FE01FC
FF03FC
FF87FC
7FFFF8
3FFFF0
7FFFF8
FF03FC
FE01FC
FE01FC
FE01FC
FE01FC
FE01FC
FF03FC
FFFFFC
FFFFFC
FFFFFC
7FFFF8
3FFFF0
3FFFF0
1FFFE0
ENDCHAR
STARTCHAR 0039
ENCODING 57
SWIDTH 540 0
DWIDTH 24 0
BBX 20 31 2 0
BITMAP
FFFFF0
FFFFF0
FFFFF0
FFFFF0
FFFFF0
FFFFF0
FFFFF0
FE07F0
FE07F0
FE07F0
FE07F0
FFFFF0
FFFFF0
FFFFF0
FFFFF0
FFFFF0
FFFFF0
0007F0
0007F0
0007F0
0007F0
F807F0
FC07F0
FE07F0
FFFFF0
FFFFF0
FFFFF0
7FFFF0
3FFFF0
3FFFF0
1FFFF0
ENDCHAR
STARTCHAR 003A
ENCODING 58
SWIDTH 157 0
DWIDTH 7 0
BBX 5 22 1 0
BITMAP
F8
F8
F8
F8
F8
00
00
00
00
00
00
00
00
00
00
00
00
F8
F8
F8
F8
F8
ENDCHAR
STARTCHAR 003B
ENCODING 59
SWIDTH 157 0
DWIDTH 7 0
BBX 7 26 -1 -4
BITMAP
3E
3E
3E
3E
3E
00
00
00
00
00
00
00
00
00
00
00
1E
1E
1E
1E
1E
1E
3E
7C
F8
F8
ENDCHAR
STARTCHAR 003C
ENCODING 60
SWIDTH 382 0
DWIDTH 17 0
BBX 16 25 1 5
BITMAP
0001
0003
000F
003F
00FF
03FF
0FFE
3FF8
FFE0
FF80
FE00
F800
F000
F800
FE00
FF80
FFE0
3FF8
0FFE
03FF
00FF
003F
001F
0007
0001
ENDCHAR
STARTCHAR 003D
ENCODING 61
SWIDTH 427 0
DWIDTH 19 0
BBX 17 12 1 9
BITMAP
FFFF80
FFFF80
FFFF80
FFFF80
FFFF80
000000
000000
FFFF80
FFFF80
FFFF80
FFFF80
FFFF80
ENDCHAR
STARTCHAR 003E
ENCODING 62
SWIDTH 382 0
DWIDTH 17 0
BBX 16 23 1 6
BITMAP
C000
F000
FC00
FF00
FF80
FFE0
3FF8
0FFE
03FF
00FF
003F
001F
001F
007F
01FF
07FE
1FF8
7FF0
FFC0
FF00
FC00
F000
C000
ENDCHAR
STARTCHAR 003F
ENCODING 63
SWIDTH 517 0
DWIDTH 23 0
BBX 20 31 2 0
BITMAP
1FFFF0
3FFFF0
7FFFF0
7FFFF0
FFFFF0
FFFFF0
FFFFF0
FC07F0
FC07F0
000FF0
000FE0
001FC0
001FC0
003F80
007F00
007F00
00FE00
00FC00
00FC00
00FC00
00FC00
00FC00
000000
000000
000000
000000
00FC00
00FC00
00FC00
00FC00
00FC00
ENDCHAR
STARTCHAR 0040
ENCODING 64
SWIDTH 787 0
DWIDTH 35 0
BBX 32 36 2 -5
BITMAP
FFFFFFFE
FFFFFFFF
FFFFFFFF
FFFFFFFF
FFFFFFFF
F800001F
F800001F
F80FF01F
F81FF81F
F81FF81F
F81FF81F
F83FF81F
F83C781F
F83C7C1F
F83C3C1F
F83C3C1F
F87C3C1F
F87C3C1F
F8783E1F
F8783E1F
F87C3E1F
F8FFFE1F
F8FFFE1F
F8FFFF1F
F8F81FFF
F8F01FFF
F9F01FFF
F9F00FFE
F9F00FFE
F8000000
F8000000
FFFFE000
FFFFF000
FFFFF000
FFFFF000
7FFFF000
ENDCHAR
STARTCHAR 0041
ENCODING 65
SWIDTH 585 0
DWIDTH 26 0
BBX 25 31 1 0
BITMAP
03FFC000
07FFE000
07FFE000
07FFE000
07FFE000
07FFF000
0FFFF000
0FC3F000
0FC3F000
0FC3F000
0F83F800
1F81F800
1F81F800
1F81F800
1F81F800
1F81FC00
3F81FC00
3F00FC00
3F00FC00
3F81FC00
3FFFFE00
7FFFFE00
7FFFFE00
7FFFFE00
7E7E7E00
7E007F00
FE007F00
FE007F00
FE007F00
FE007F00
FC003F80
ENDCHAR
STARTCHAR 0042
ENCODING 66
SWIDTH 562 0
DWIDTH 25 0
BBX 22 31 2 0
BITMAP
FFFFE0
FFFFF0
FFFFF0
FFFFF8
FFFFFC
FFFFFC
FE03FC
FE01FC
FE01FC
FE01FC
FE01FC
FE01FC
FFFFFC
FFFFF8
FFFFF0
FFFFF0
FFFFF8
FFFFFC
FE03FC
FE01FC
FE01FC
FE01FC
FE01FC
FE01FC
FE03FC
FFFFFC
FFFFFC
FFFFF8
FFFFF0
FFFFF0
FFFFE0
ENDCHAR
STARTCHAR 0043
ENCODING 67
SWIDTH 540 0
DWIDTH 24 0
BBX 21 31 2 0
BITMAP
FFFF80
FFFFC0
FFFFE0
FFFFF0
FFFFF0
FFFFF8
FFFFF8
FE07F8
FE0000
FE0000
FE0000
FE0000
FE0000
FE0000
FE0000
FE0000
FE0000
FE0000
FE0000
FE0000
FE0000
FE0000
FE0000
FE07F8
FFFFF8
FFFFF8
FFFFF0
FFFFE0
FFFFE0
FFFFC0
FFFF80
ENDCHAR
STARTCHAR 0044
ENCODING 68
SWIDTH 562 0
DWIDTH 25 0
BBX 22 31 2 0
BITMAP
FFFFE0
FFFFF0
FFFFF0
FFFFF8
FFFFFC
FFFFFC
FFFFFC
FE01FC
FE01FC
FE01FC
FE01FC
FE01FC
FE01FC
FE01FC
FE01FC
FE01FC
FE01FC
FE01FC
FE01FC
FE01FC
FE01FC
FE01FC
FE01FC
FE03FC
FFFFFC
FFFFFC
FFFFFC
FFFFF8
FFFFF0
FFFFF0
FFFFE0
ENDCHAR
STARTCHAR 0045
ENCODING 69
SWIDTH 540 0
DWIDTH 24 0
BBX 20 31 2 0
BITMAP
FFFF80
FFFFC0
FFFFE0
FFFFE0
FFFFF0
FFFFF0
FFFFF0
FE03F0
FE0000
FE0000
FE0000
FE0000
FE0000
FFFE00
FFFE00
FFFE00
FFFE00
FFFE00
FE0000
FE0000
FE0000
FE0000
FE0000
FE03F0
FFFFF0
FFFFF0
FFFFF0
FFFFE0
FFFFE0
FFFFC0
FFFF80
ENDCHAR
STARTCHAR 0046
ENCODING 70
SWIDTH 495 0
DWIDTH 22 0
BBX 19 31 2 0
BITMAP
FFFF80
FFFF80
FFFFC0
FFFFC0
FFFFE0
FFFFE0
FFFFE0
FE07E0
FE0000
FE0000
FE0000
FE0000
FE0000
FE0000
FFFF80
FFFF80
FFFF80
FFFF80
FFFF80
FFFF80
FE0000
FE0000
FE0000
FE0000
FE0000
FE0000
FE0000
FE0000
FE0000
FE0000
FE0000
ENDCHAR
STARTCHAR 0047
ENCODING 71
SWIDTH 540 0
DWIDTH 24 0
BBX 21 31 2 0
BITMAP
FFFFC0
FFFFC0
FFFFE0
FFFFF0
FFFFF8
FFFFF8
FFFFF8
FE01F8
FE0000
FE0000
FE0000
FE0000
FE0000
FE3FF8
FE3FF8
FE3FF8
FE3FF8
FE3FF8
FE3FF8
FE3FF8
FE03F8
FE03F8
FE03F8
FE03F8
FFFFF8
FFFFF8
FFFFF8
FFFFF8
FFFFF8
FFFFF8
FFFF78
ENDCHAR
STARTCHAR 0048
ENCODING 72
SWIDTH 562 0
DWIDTH 25 0
BBX 22 31 2 0
BITMAP
FE01FC
FE01FC
FE01FC
FE01FC
FE01FC
FE01FC
FE01FC
FE01FC
FE01FC
FE01FC
FE01FC
FFFFFC
FFFFFC
FFFFFC
FFFFFC
FFFFFC
FFFFFC
FFFFFC
FF03FC
FE01FC
FE01FC
FE01FC
FE01FC
FE01FC
FE01FC
FE01FC
FE01FC
FE01FC
FE01FC
FE01FC
FE01FC
ENDCHAR
STARTCHAR 0049
ENCODING 73
SWIDTH 225 0
DWIDTH 10 0
BBX 7 31 2 0
BITMAP
FE
FE
FE
FE
FE
FE
FE
FE
FE
FE
FE
FE
FE
FE
FE
FE
FE
FE
FE
FE
FE
FE
FE
FE
FE
FE
FE
FE
FE
FE
FE
ENDCHAR
STARTCHAR 004A
ENCODING 74
SWIDTH 495 0
DWIDTH 22 0
BBX 19 31 2 0
BITMAP
1FFFE0
1FFFE0
1FFFE0
1FFFE0
1FFFE0
1FFFE0
1FFFE0
000FE0
000FE0
000FE0
000FE0
000FE0
000FE0
000FE0
000FE0
000FE0
000FE0
000FE0
000FE0
000FE0
000FE0
000FE0
000FE0
FE0FE0
FFFFE0
FFFFE0
FFFFE0
7FFFE0
3FFFE0
3FFFE0
1FFFE0
ENDCHAR
STARTCHAR 004B
ENCODING 75
SWIDTH 562 0
DWIDTH 25 0
BBX 22 31 2 0
BITMAP
FE03FC
FE03FC
FE07FC
FE0FFC
FE0FF8
FE1FF0
FE3FF0
FE3FE0
FE7FC0
FEFF80
FEFF80
FFFF00
FFFE00
FFFC00
FFFC00
FFF800
FFFC00
FFFC00
FFFE00
FFFF00
FEFF80
FE7F80
FE7FC0
FE3FE0
FE1FF0
FE1FF0
FE0FF8
FE07FC
FE07FC
FE03FC
FE01FC
ENDCHAR
STARTCHAR 004C
ENCODING 76
SWIDTH 405 0
DWIDTH 18 0
BBX 16 31 2 0
BITMAP
FE00
FE00
FE00
FE00
FE00
FE00
FE00
FE00
FE00
FE00
FE00
FE00
FE00
FE00
FE00
FE00
FE00
FE00
FE00
FE00
FE00
FE00
FE00
FE00
FFFF
FFFF
FFFF
FFFE
FFFE
FFFC
FFF8
ENDCHAR
STARTCHAR 004D
ENCODING 77
SWIDTH 675 0
DWIDTH 30 0
BBX 27 31 2 0
BITMAP
1FE0FF00
3FE0FF80
7FE0FF80
7FE0FFC0
FFE1FFE0
FFF1FFE0
FFF1FFE0
FFF1FFE0
FFF1FFE0
FFF1FFE0
FEF1EFE0
FEFBEFE0
FEFBEFE0
FEFBEFE0
FEFBCFE0
FE7BCFE0
FE7BCFE0
FE7FCFE0
FE7FCFE0
FE7FCFE0
FE7F8FE0
FE3F8FE0
FE3F8FE0
FE1F0FE0
FE000FE0
FE000FE0
FE000FE0
FE000FE0
FE000FE0
FE000FE0
FE000FE0
ENDCHAR
STARTCHAR 004E
ENCODING 78
SWIDTH 562 0
DWIDTH 25 0
BBX 22 31 2 0
BITMAP
1E01FC
3E01FC
7F01FC
7F01FC
FF81FC
FF81FC
FFC1FC
FFC1FC
FFE1FC
FFE1FC
FFE1FC
FFF1FC
FFF1FC
FFF9FC
FFF9FC
FEFFFC
FEFFFC
FE7FFC
FE7FFC
FE3FFC
FE3FFC
FE3FFC
FE1FFC
FE1FFC
FE0FFC
FE0FFC
FE07F8
FE07F8
FE03F0
FE03E0
FE01C0
ENDCHAR
STARTCHAR 004F
ENCODING 79
SWIDTH 607 0
DWIDTH 27 0
BBX 24 31 2 0
BITMAP
1FFFF8
3FFFF8
7FFFFC
7FFFFE
FFFFFF
FFFFFF
FFFFFF
FE00FF
FE007F
FE007F
FE007F
FE007F
FE007F
FE007F
FE007F
FE007F
FE007F
FE007F
FE007F
FE007F
FE007F
FE007F
FE007F
FE00FF
FFFFFF
FFFFFF
FFFFFE
7FFFFE
3FFFFC
3FFFF8
1FFFF8
ENDCHAR
STARTCHAR 0050
ENCODING 80
SWIDTH 540 0
DWIDTH 24 0
BBX 20 31 2 0
BITMAP
FFFF80
FFFFC0
FFFFE0
FFFFE0
FFFFF0
FFFFF0
FFFFF0
FE07F0
FE07F0
FE07F0
FE07F0
FE07F0
FE07F0
FE07F0
FFFFF0
FFFFF0
FFFFF0
FFFFE0
FFFFC0
FFFFC0
FFFF80
FE0000
FE0000
FE0000
FE0000
FE0000
FE0000
FE0000
FE0000
FE0000
FE0000
ENDCHAR
STARTCHAR 0051
ENCODING 81
SWIDTH 652 0
DWIDTH 29 0
BBX 27 31 2 -1
BITMAP
1FFFF800
3FFFF800
7FFFFC00
7FFFFE00
FFFFFF00
FFFFFF00
FFFFFF00
FE00FF00
FE007F00
FE007F00
FE007F00
FE007F00
FE007F00
FE007F00
FE007F00
FE007F00
FE007F00
FE007F00
FE007F00
FE007F00
FE007F00
FE007F00
FE007F00
FE00FF80
FFFFFFE0
FFFFFFE0
FFFFFFE0
7FFFFFE0
3FFFFFC0
3FFFFF80
1FFFFB80
ENDCHAR
STARTCHAR 0052
ENCODING 82
SWIDTH 540 0
DWIDTH 24 0
BBX 21 31 2 0
BITMAP
FFFF80
FFFFC0
FFFFE0
FFFFE0
FFFFF0
FFFFF0
FFFFF0
FE07F0
FE07F0
FE07F0
FE07F0
FE07F0
FFFFF0
FFFFF0
FFFFE0
FFFFC0
FFFF80
FFFF80
FFFF80
FE3FC0
FE1FC0
FE1FE0
FE1FE0
FE0FE0
FE0FF0
FE0FF0
FE07F8
FE07F8
FE07F8
FE03F8
FE03F8
ENDCHAR
STARTCHAR 0053
ENCODING 83
SWIDTH 540 0
DWIDTH 24 0
BBX 20 31 2 0
BITMAP
FFFF80
FFFFC0
FFFFE0
FFFFE0
FFFFF0
FFFFF0
FFFFF0
FE03F0
FF0000
FF8000
7FC000
3FE000
1FF000
0FF800
0FFC00
07FE00
03FF00
01FF80
00FFC0
007FE0
003FF0
001FF0
000FF0
FC07F0
FFFFF0
FFFFF0
FFFFF0
7FFFF0
3FFFF0
3FFFF0
1FFFF0
ENDCHAR
STARTCHAR 0054
ENCODING 84
SWIDTH 517 0
DWIDTH 23 0
BBX 24 31 0 0
BITMAP
1FFFF0
3FFFF8
3FFFFC
7FFFFE
FFFFFE
FFFFFF
FEFE7F
FCFE3F
F0FE1F
00FE00
00FE00
00FE00
00FE00
00FE00
00FE00
00FE00
00FE00
00FE00
00FE00
00FE00
00FE00
00FE00
00FE00
00FE00
00FE00
00FE00
00FE00
00FE00
00FE00
00FE00
00FE00
ENDCHAR
STARTCHAR 0055
ENCODING 85
SWIDTH 607 0
DWIDTH 27 0
BBX 23 31 2 0
BITMAP
FE007E
FE007E
FE007E
FE007E
FE007E
FE007E
FE007E
FE007E
FE007E
FE007E
FE007E
FE007E
FE007E
FE007E
FE007E
FE007E
FE007E
FE007E
FE007E
FE007E
FE007E
FE007E
FE007E
FE00FE
FFFFFE
FFFFFE
FFFFFE
7FFFFC
3FFFFC
3FFFF8
1FFFF0
ENDCHAR
STARTCHAR 0056
ENCODING 86
SWIDTH 562 0
DWIDTH 25 0
BBX 25 31 0 0
BITMAP
FE003F80
7E003F80
7F003F80
7F003F80
7F003F00
7F003F00
3F007F00
3F007F00
3F007F00
3F807E00
3F807E00
1F807E00
1F807E00
1F80FE00
1F80FC00
1FC0FC00
0FC0FC00
0FC0FC00
0FC0FC00
0FC1F800
0FC1F800
07C1F800
07E1F800
07E1F800
07FFF000
07FFF000
03FFF000
03FFF000
03FFF000
03FFE000
01FFE000
ENDCHAR
STARTCHAR 0057
ENCODING 87
SWIDTH 877 0
DWIDTH 39 0
BBX 35 31 2 0
BITMAP
FE00000FE0
FE00000FE0
FE00000FE0
FE00000FE0
FF00000FE0
FF00000FE0
FF00001FE0
7F00001FE0
7F00001FC0
7F03F81FC0
7F83FC1FC0
3F83FC1FC0
3F87FC3FC0
3F87FC3F80
3F87FE3F80
3FC7FE3F80
1FCFBE3F80
1FCFBE7F80
1FCF9F7F00
1FCF9F7F00
1FFF9FFF00
0FFF1FFF00
0FFF1FFF00
0FFF0FFE00
0FFF0FFE00
0FFF0FFE00
07FE0FFE00
07FE0FFE00
07FE07FC00
07FE07FC00
03FC07FC00
ENDCHAR
STARTCHAR 0058
ENCODING 88
SWIDTH 607 0
DWIDTH 27 0
BBX 24 31 2 0
BITMAP
FE007F
FE00FF
FF00FF
FF01FE
FF01FE
7F83FC
7F83FC
3FC3F8
3FC7F8
1FC7F0
1FEFF0
0FEFE0
0FFFE0
07FFC0
07FFC0
07FFC0
0FFFE0
0FFFE0
0FFFF0
1FEFF0
1FEFF8
3FC7F8
3FC7F8
7FC3FC
7F83FC
7F81FE
FF01FE
FF01FF
FE00FF
FE00FF
FE007F
ENDCHAR
STARTCHAR 0059
ENCODING 89
SWIDTH 450 0
DWIDTH 20 0
BBX 21 31 0 0
BITMAP
FE03F8
FE03F8
FE03F8
FF07F8
7F07F0
7F07F0
3F8FE0
3F8FE0
3F8FC0
1FDFC0
1FDFC0
0FDF80
0FFF80
07FF00
07FF00
03FE00
03FE00
03FE00
01FC00
01FC00
01FC00
01FC00
01FC00
01FC00
01FC00
01FC00
01FC00
01FC00
01FC00
01FC00
01FC00
ENDCHAR
STARTCHAR 005A
ENCODING 90
SWIDTH 562 0
DWIDTH 25 0
BBX 21 31 2 0
BITMAP
FFFFC0
FFFFE0
FFFFF0
FFFFF8
FFFFF8
FFFFF8
7FFFF0
001FF0
003FE0
003FE0
007FC0
007F80
00FF80
01FF00
01FF00
03FE00
03FC00
07FC00
0FF800
0FF800
1FF000
1FE000
3FE000
7FC000
7FFFF8
FFFFF8
FFFFF8
7FFFF8
3FFFF8
3FFFF8
1FFFF8
ENDCHAR
STARTCHAR 005B
ENCODING 91
SWIDTH 225 0
DWIDTH 10 0
BBX 9 35 1 -2
BITMAP
FF80
FF80
FF80
FF80
FF00
F000
F000
F000
F000
F000
F000
F000
F000
F000
F000
F000
F000
F000
F000
F000
F000
F000
F000
F000
F000
F000
F000
F000
F000
F000
F000
FF00
FF80
FF80
FF80
ENDCHAR
STARTCHAR 005C
ENCODING 92
SWIDTH 247 0
DWIDTH 11 0
BBX 14 35 -1 -2
BITMAP
F800
F800
7800
7800
7C00
7C00
3C00
3C00
3E00
3E00
1E00
1E00
1F00
1F00
0F00
0F80
0F80
0F80
0780
07C0
07C0
07C0
03C0
03E0
03E0
01E0
01E0
01F0
01F0
00F0
00F8
00F8
00F8
0078
007C
ENDCHAR
STARTCHAR 005D
ENCODING 93
SWIDTH 225 0
DWIDTH 10 0
BBX 9 35 1 -2
BITMAP
FF80
FF80
FF80
FF80
7F80
0780
0780
0780
0780
0780
0780
0780
0780
0780
0780
0780
0780
0780
0780
0780
0780
0780
0780
0780
0780
0780
0780
0780
0780
0780
0780
FF80
FF80
FF80
FF80
ENDCHAR
STARTCHAR 005E
ENCODING 94
SWIDTH 585 0
DWIDTH 26 0
BBX 24 16 1 15
BITMAP
00FF00
01FF80
01FF80
03FFC0
03E7C0
07E7E0
07C3E0
0FC3F0
0F81F0
1F81F8
1F00F8
3F00FC
3E007E
7E007E
7C003F
FC003F
ENDCHAR
STARTCHAR 005F
ENCODING 95
SWIDTH 427 0
DWIDTH 19 0
BBX 17 4 1 0
BITMAP
FFFF80
FFFF80
FFFF80
FFFF80
ENDCHAR
STARTCHAR 0060
ENCODING 96
SWIDTH 382 0
DWIDTH 17 0
BBX 16 5 1 33
BITMAP
E000
FE00
FFF0
FFFF
03FF
ENDCHAR
STARTCHAR 0061
ENCODING 97
SWIDTH 585 0
DWIDTH 26 0
BBX 25 31 1 0
BITMAP
03FFC000
07FFE000
07FFE000
07FFE000
07FFE000
07FFF000
0FFFF000
0FC3F000
0FC3F000
0FC3F000
0F83F800
1F81F800
1F81F800
1F81F800
1F81F800
1F81FC00
3F81FC00
3F00FC00
3F00FC00
3F81FC00
3FFFFE00
7FFFFE00
7FFFFE00
7FFFFE00
7E7E7E00
7E007F00
FE007F00
FE007F00
FE007F00
FE007F00
FC003F80
ENDCHAR
STARTCHAR 0062
ENCODING 98
SWIDTH 562 0
DWIDTH 25 0
BBX 22 31 2 0
BITMAP
FFFFE0
FFFFF0
FFFFF0
FFFFF8
FFFFFC
FFFFFC
FE03FC
FE01FC
FE01FC
FE01FC
FE01FC
FE01FC
FFFFFC
FFFFF8
FFFFF0
FFFFF0
FFFFF8
FFFFFC
FE03FC
FE01FC
FE01FC
FE01FC
FE01FC
FE01FC
FE03FC
FFFFFC
FFFFFC
FFFFF8
FFFFF0
FFFFF0
FFFFE0
ENDCHAR
STARTCHAR 0063
ENCODING 99
SWIDTH 540 0
DWIDTH 24 0
BBX 21 31 2 0
BITMAP
FFFF80
FFFFC0
FFFFE0
FFFFF0
FFFFF0
FFFFF8
FFFFF8
FE07F8
FE0000
FE0000
FE0000
FE0000
FE0000
FE0000
FE0000
FE0000
FE0000
FE0000
FE0000
FE0000
FE0000
FE0000
FE0000
FE07F8
FFFFF8
FFFFF8
FFFFF0
FFFFE0
FFFFE0
FFFFC0
FFFF80
ENDCHAR
STARTCHAR 0064
ENCODING 100
SWIDTH 562 0
DWIDTH 25 0
BBX 22 31 2 0
BITMAP
FFFFE0
FFFFF0
FFFFF0
FFFFF8
FFFFFC
FFFFFC
FFFFFC
FE01FC
FE01FC
FE01FC
FE01FC
FE01FC
FE01FC
FE01FC
FE01FC
FE01FC
FE01FC
FE01FC
FE01FC
FE01FC
FE01FC
FE01FC
FE01FC
FE03FC
FFFFFC
FFFFFC
FFFFFC
FFFFF8
FFFFF0
FFFFF0
FFFFE0
ENDCHAR
STARTCHAR 0065
ENCODING 101
SWIDTH 540 0
DWIDTH 24 0
BBX 20 31 2 0
BITMAP
FFFF80
FFFFC0
FFFFE0
FFFFE0
FFFFF0
FFFFF0
FFFFF0
FE03F0
FE0000
FE0000
FE0000
FE0000
FE0000
FFFE00
FFFE00
FFFE00
FFFE00
FFFE00
FE0000
FE0000
FE0000
FE0000
FE0000
FE03F0
FFFFF0
FFFFF0
FFFFF0
FFFFE0
FFFFE0
FFFFC0
FFFF80
ENDCHAR
STARTCHAR 0066
ENCODING 102
SWIDTH 495 0
DWIDTH 22 0
BBX 19 31 2 0
BITMAP
FFFF80
FFFF80
FFFFC0
FFFFC0
FFFFE0
FFFFE0
FFFFE0
FE07E0
FE0000
FE0000
FE0000
FE0000
FE0000
FE0000
FFFF80
FFFF80
FFFF80
FFFF80
FFFF80
FFFF80
FE0000
FE0000
FE0000
FE0000
FE0000
FE0000
FE0000
FE0000
FE0000
FE0000
FE0000
ENDCHAR
STARTCHAR 0067
ENCODING 103
SWIDTH 540 0
DWIDTH 24 0
BBX 21 31 2 0
BITMAP
FFFFC0
FFFFC0
FFFFE0
FFFFF0
FFFFF8
FFFFF8
FFFFF8
FE01F8
FE0000
FE0000
FE0000
FE0000
FE0000
FE3FF8
FE3FF8
FE3FF8
FE3FF8
FE3FF8
FE3FF8
FE3FF8
FE03F8
FE03F8
FE03F8
FE03F8
FFFFF8
FFFFF8
FFFFF8
FFFFF8
FFFFF8
FFFFF8
FFFF78
ENDCHAR
STARTCHAR 0068
ENCODING 104
SWIDTH 562 0
DWIDTH 25 0
BBX 22 31 2 0
BITMAP
FE01FC
FE01FC
FE01FC
FE01FC
FE01FC
FE01FC
FE01FC
FE01FC
FE01FC
FE01FC
FE01FC
FFFFFC
FFFFFC
FFFFFC
FFFFFC
FFFFFC
FFFFFC
FFFFFC
FF03FC
FE01FC
FE01FC
FE01FC
FE01FC
FE01FC
FE01FC
FE01FC
FE01FC
FE01FC
FE01FC
FE01FC
FE01FC
ENDCHAR
STARTCHAR 0069
ENCODING 105
SWIDTH 225 0
DWIDTH 10 0
BBX 7 31 2 0
BITMAP
FE
FE
FE
FE
FE
FE
FE
FE
FE
FE
FE
FE
FE
FE
FE
FE
FE
FE
FE
FE
FE
FE
FE
FE
FE
FE
FE
FE
FE
FE
FE
ENDCHAR
STARTCHAR 006A
ENCODING 106
SWIDTH 495 0
DWIDTH 22 0
BBX 19 31 2 0
BITMAP
1FFFE0
1FFFE0
1FFFE0
1FFFE0
1FFFE0
1FFFE0
1FFFE0
000FE0
000FE0
000FE0
000FE0
000FE0
000FE0
000FE0
000FE0
000FE0
000FE0
000FE0
000FE0
000FE0
000FE0
000FE0
000FE0
FE0FE0
FFFFE0
FFFFE0
FFFFE0
7FFFE0
3FFFE0
3FFFE0
1FFFE0
ENDCHAR
STARTCHAR 006B
ENCODING 107
SWIDTH 562 0
DWIDTH 25 0
BBX 22 31 2 0
BITMAP
FE03FC
FE03FC
FE07FC
FE0FFC
FE0FF8
FE1FF0
FE3FF0
FE3FE0
FE7FC0
FEFF80
FEFF80
FFFF00
FFFE00
FFFC00
FFFC00
FFF800
FFFC00
FFFC00
FFFE00
FFFF00
FEFF80
FE7F80
FE7FC0
FE3FE0
FE1FF0
FE1FF0
FE0FF8
FE07FC
FE07FC
FE03FC
FE01FC
ENDCHAR
STARTCHAR 006C
ENCODING 108
SWIDTH 405 0
DWIDTH 18 0
BBX 16 31 2 0
BITMAP
FE00
FE00
FE00
FE00
FE00
FE00
FE00
FE00
FE00
FE00
FE00
FE00
FE00
FE00
FE00
FE00
FE00
FE00
FE00
FE00
FE00
FE00
FE00
FE00
FFFF
FFFF
FFFF
FFFE
FFFE
FFFC
FFF8
ENDCHAR
STARTCHAR 006D
ENCODING 109
SWIDTH 675 0
DWIDTH 30 0
BBX 27 31 2 0
BITMAP
1FE0FF00
3FE0FF80
7FE0FF80
7FE0FFC0
FFE1FFE0
FFF1FFE0
FFF1FFE0
FFF1FFE0
FFF1FFE0
FFF1FFE0
FEF1EFE0
FEFBEFE0
FEFBEFE0
FEFBEFE0
FEFBCFE0
FE7BCFE0
FE7BCFE0
FE7FCFE0
FE7FCFE0
FE7FCFE0
FE7F8FE0
FE3F8FE0
FE3F8FE0
FE1F0FE0
FE000FE0
FE000FE0
FE000FE0
FE000FE0
FE000FE0
FE000FE0
FE000FE0
ENDCHAR
STARTCHAR 006E
ENCODING 110
SWIDTH 562 0
DWIDTH 25 0
BBX 22 31 2 0
BITMAP
1E01FC
3E01FC
7F01FC
7F01FC
FF81FC
FF81FC
FFC1FC
FFC1FC
FFE1FC
FFE1FC
FFE1FC
FFF1FC
FFF1FC
FFF9FC
FFF9FC
FEFFFC
FEFFFC
FE7FFC
FE7FFC
FE3FFC
FE3FFC
FE3FFC
FE1FFC
FE1FFC
FE0FFC
FE0FFC
FE07F8
FE07F8
FE03F0
FE03E0
FE01C0
ENDCHAR
STARTCHAR 006F
ENCODING 111
SWIDTH 607 0
DWIDTH 27 0
BBX 24 31 2 0
BITMAP
1FFFF8
3FFFF8
7FFFFC
7FFFFE
FFFFFF
FFFFFF
FFFFFF
FE00FF
FE007F
FE007F
FE007F
FE007F
FE007F
FE007F
FE007F
FE007F
FE007F
FE007F
FE007F
FE007F
FE007F
FE007F
FE007F
FE00FF
FFFFFF
FFFFFF
FFFFFE
7FFFFE
3FFFFC
3FFFF8
1FFFF8
ENDCHAR
STARTCHAR 0070
ENCODING 112
SWIDTH 540 0
DWIDTH 24 0
BBX 20 31 2 0
BITMAP
FFFF80
FFFFC0
FFFFE0
FFFFE0
FFFFF0
FFFFF0
FFFFF0
FE07F0
FE07F0
FE07F0
FE07F0
FE07F0
FE07F0
FE07F0
FFFFF0
FFFFF0
FFFFF0
FFFFE0
FFFFC0
FFFFC0
FFFF80
FE0000
FE0000
FE0000
FE0000
FE0000
FE0000
FE0000
FE0000
FE0000
FE0000
ENDCHAR
STARTCHAR 0071
ENCODING 113
SWIDTH 652 0
DWIDTH 29 0
BBX 27 31 2 -1
BITMAP
1FFFF800
3FFFF800
7FFFFC00
7FFFFE00
FFFFFF00
FFFFFF00
FFFFFF00
FE00FF00
FE007F00
FE007F00
FE007F00
FE007F00
FE007F00
FE007F00
FE007F00
FE007F00
FE007F00
FE007F00
FE007F00
FE007F00
FE007F00
FE007F00
FE007F00
FE00FF80
FFFFFFE0
FFFFFFE0
FFFFFFE0
7FFFFFE0
3FFFFFC0
3FFFFF80
1FFFFB80
ENDCHAR
STARTCHAR 0072
ENCODING 114
SWIDTH 540 0
DWIDTH 24 0
BBX 21 31 2 0
BITMAP
FFFF80
FFFFC0
FFFFE0
FFFFE0
FFFFF0
FFFFF0
FFFFF0
FE07F0
FE07F0
FE07F0
FE07F0
FE07F0
FFFFF0
FFFFF0
FFFFE0
FFFFC0
FFFF80
FFFF80
FFFF80
FE3FC0
FE1FC0
FE1FE0
FE1FE0
FE0FE0
FE0FF0
FE0FF0
FE07F8
FE07F8
FE07F8
FE03F8
FE03F8
ENDCHAR
STARTCHAR 0073
ENCODING 115
SWIDTH 540 0
DWIDTH 24 0
BBX 20 31 2 0
BITMAP
FFFF80
FFFFC0
FFFFE0
FFFFE0
FFFFF0
FFFFF0
FFFFF0
FE03F0
FF0000
FF8000
7FC000
3FE000
1FF000
0FF800
0FFC00
07FE00
03FF00
01FF80
00FFC0
007FE0
003FF0
001FF0
000FF0
FC07F0
FFFFF0
FFFFF0
FFFFF0
7FFFF0
3FFFF0
3FFFF0
1FFFF0
ENDCHAR
STARTCHAR 0074
ENCODING 116
SWIDTH 517 0
DWIDTH 23 0
BBX 24 31 0 0
BITMAP
1FFFF0
3FFFF8
3FFFFC
7FFFFE
FFFFFE
FFFFFF
FEFE7F
FCFE3F
F0FE1F
00FE00
00FE00
00FE00
00FE00
00FE00
00FE00
00FE00
00FE00
00FE00
00FE00
00FE00
00FE00
00FE00
00FE00
00FE00
00FE00
00FE00
00FE00
00FE00
00FE00
00FE00
00FE00
ENDCHAR
STARTCHAR 0075
ENCODING 117
SWIDTH 607 0
DWIDTH 27 0
BBX 23 31 2 0
BITMAP
FE007E
FE007E
FE007E
FE007E
FE007E
FE007E
FE007E
FE007E
FE007E
FE007E
FE007E
FE007E
FE007E
FE007E
FE007E
FE007E
FE007E
FE007E
FE007E
FE007E
FE007E
FE007E
FE007E
FE00FE
FFFFFE
FFFFFE
FFFFFE
7FFFFC
3FFFFC
3FFFF8
1FFFF0
ENDCHAR
STARTCHAR 0076
ENCODING 118
SWIDTH 562 0
DWIDTH 25 0
BBX 25 31 0 0
BITMAP
FE003F80
7E003F80
7F003F80
7F003F80
7F003F00
7F003F00
3F007F00
3F007F00
3F007F00
3F807E00
3F807E00
1F807E00
1F807E00
1F80FE00
1F80FC00
1FC0FC00
0FC0FC00
0FC0FC00
0FC0FC00
0FC1F800
0FC1F800
07C1F800
07E1F800
07E1F800
07FFF000
07FFF000
03FFF000
03FFF000
03FFF000
03FFE000
01FFE000
ENDCHAR
STARTCHAR 0077
ENCODING 119
SWIDTH 877 0
DWIDTH 39 0
BBX 35 31 2 0
BITMAP
FE00000FE0
FE00000FE0
FE00000FE0
FE00000FE0
FF00000FE0
FF00000FE0
FF00001FE0
7F00001FE0
7F00001FC0
7F03F81FC0
7F83FC1FC0
3F83FC1FC0
3F87FC3FC0
3F87FC3F80
3F87FE3F80
3FC7FE3F80
1FCFBE3F80
1FCFBE7F80
1FCF9F7F00
1FCF9F7F00
1FFF9FFF00
0FFF1FFF00
0FFF1FFF00
0FFF0FFE00
0FFF0FFE00
0FFF0FFE00
07FE0FFE00
07FE0FFE00
07FE07FC00
07FE07FC00
03FC07FC00
ENDCHAR
STARTCHAR 0078
ENCODING 120
SWIDTH 607 0
DWIDTH 27 0
BBX 24 31 2 0
BITMAP
FE007F
FE00FF
FF00FF
FF01FE
FF01FE
7F83FC
7F83FC
3FC3F8
3FC7F8
1FC7F0
1FEFF0
0FEFE0
0FFFE0
07FFC0
07FFC0
07FFC0
0FFFE0
0FFFE0
0FFFF0
1FEFF0
1FEFF8
3FC7F8
3FC7F8
7FC3FC
7F83FC
7F81FE
FF01FE
FF01FF
FE00FF
FE00FF
FE007F
ENDCHAR
STARTCHAR 0079
ENCODING 121
SWIDTH 450 0
DWIDTH 20 0
BBX 21 31 0 0
BITMAP
FE03F8
FE03F8
FE03F8
FF07F8
7F07F0
7F07F0
3F8FE0
3F8FE0
3F8FC0
1FDFC0
1FDFC0
0FDF80
0FFF80
07FF00
07FF00
03FE00
03FE00
03FE00
01FC00
01FC00
01FC00
01FC00
01FC00
01FC00
01FC00
01FC00
01FC00
01FC00
01FC00
01FC00
01FC00
ENDCHAR
STARTCHAR 007A
ENCODING 122
SWIDTH 562 0
DWIDTH 25 0
BBX 21 31 2 0
BITMAP
FFFFC0
FFFFE0
FFFFF0
FFFFF8
FFFFF8
FFFFF8
7FFFF0
001FF0
003FE0
003FE0
007FC0
007F80
00FF80
01FF00
01FF00
03FE00
03FC00
07FC00
0FF800
0FF800
1FF000
1FE000
3FE000
7FC000
7FFFF8
FFFFF8
FFFFF8
7FFFF8
3FFFF8
3FFFF8
1FFFF8
ENDCHAR
STARTCHAR 007B
ENCODING 123
SWIDTH 270 0
DWIDTH 12 0
BBX 11 35 1 -2
BITMAP
1FE0
1FE0
1FE0
1FE0
1FC0
1E00
1E00
1E00
1E00
1E00
1E00
1E00
1E00
1E00
3E00
7C00
F800
F000
F800
FC00
3E00
1E00
1E00
1E00
1E00
1E00
1E00
1E00
1E00
1E00
1E00
1FC0
1FE0
1FE0
1FE0
ENDCHAR
STARTCHAR 007C
ENCODING 124
SWIDTH 135 0
DWIDTH 6 0
BBX 4 35 1 -2
BITMAP
F0
F0
F0
F0
F0
F0
F0
F0
F0
F0
F0
F0
F0
F0
F0
F0
F0
F0
F0
F0
F0
F0
F0
F0
F0
F0
F0
F0
F0
F0
F0
F0
F0
F0
F0
ENDCHAR
STARTCHAR 007D
ENCODING 125
SWIDTH 270 0
DWIDTH 12 0
BBX 11 35 1 -2
BITMAP
FF00
FF00
FF00
FF00
7F00
0F00
0F00
0F00
0F00
0F00
0F00
0F00
0F00
0F00
0F80
07C0
03E0
01E0
03E0
07E0
0F80
0F00
0F00
0F00
0F00
0F00
0F00
0F00
0F00
0F00
0F00
FF00
FF00
FF00
FF00
ENDCHAR
STARTCHAR 007E
ENCODING 126
SWIDTH 450 0
DWIDTH 20 0
BBX 18 6 1 12
BITMAP
0F8000
3FF0C0
FFFFC0
F8FFC0
F01F80
C00200
ENDCHAR
STARTCHAR 00A1
ENCODING 161
SWIDTH 157 0
DWIDTH 7 0
BBX 6 31 1 0
BITMAP
FC
FC
FC
FC
FC
00
00
00
70
78
78
78
78
78
78
78
78
78
78
78
78
F8
F8
FC
FC
FC
FC
FC
FC
FC
78
ENDCHAR
STARTCHAR 00A2
ENCODING 162
SWIDTH 540 0
DWIDTH 24 0
BBX 21 39 2 -4
BITMAP
01F000
01F000
01F000
01F000
FFFF80
FFFFC0
FFFFE0
FFFFF0
FFFFF0
FFFFF8
FFFFF8
FE07F8
FE0000
FE0000
FE0000
FE0000
FE0000
FE0000
FE0000
FE0000
FE0000
FE0000
FE0000
FE0000
FE0000
FE0000
FE0000
FE07F8
FFFFF8
FFFFF8
FFFFF0
FFFFE0
FFFFE0
FFFFC0
FFFF80
01F000
01F000
01F000
01F000
ENDCHAR
STARTCHAR 00A3
ENCODING 163
SWIDTH 495 0
DWIDTH 22 0
BBX 19 31 2 0
BITMAP
FFFFC0
FFFFE0
FFFFE0
FFFFE0
FFFFE0
FFFFE0
FFFFE0
FE0FE0
FE07E0
7E0000
7F0000
7F0000
FFFFE0
FFFFE0
FFFFE0
FFFFE0
FFFFE0
1FC000
1FC000
1FC000
1FC000
3F8000
7F0000
FF0000
FFFFC0
FFFFC0
FFFFE0
FFFFE0
FFFFE0
FFFFE0
FFFFE0
ENDCHAR
STARTCHAR 00A4
ENCODING 164
SWIDTH 315 0
DWIDTH 14 0
BBX 13 12 1 10
BITMAP
C030
FFF8
7FF0
3FE0
38E0
38E0
38E0
38E0
3FE0
7FE0
FFF0
E030
ENDCHAR
STARTCHAR 00A5
ENCODING 165
SWIDTH 450 0
DWIDTH 20 0
BBX 21 31 0 0
BITMAP
FE03F8
FE03F8
FE03F8
FF07F8
7F07F0
7F07F0
3F8FE0
3F8FE0
3F8FC0
1FDFC0
1FDFC0
0FDF80
0FFF80
07FF00
07FF00
03FE00
3FFFE0
3FFFE0
3FFFE0
3FFFE0
01FC00
01FC00
3FFFE0
3FFFE0
3FFFE0
3FFFE0
01FC00
01FC00
01FC00
01FC00
01FC00
ENDCHAR
STARTCHAR 00A6
ENCODING 166
SWIDTH 135 0
DWIDTH 6 0
BBX 4 35 1 -2
BITMAP
F0
F0
F0
F0
F0
F0
F0
F0
F0
F0
F0
F0
F0
F0
F0
F0
00
00
00
F0
F0
F0
F0
F0
F0
F0
F0
F0
F0
F0
F0
F0
F0
F0
F0
ENDCHAR
STARTCHAR 00A7
ENCODING 167
SWIDTH 427 0
DWIDTH 19 0
BBX 15 31 2 0
BITMAP
7FF8
7FFC
7FFE
7FFE
7FFE
7C1E
7E00
3F00
1F80
FFC0
FFE0
FFF0
FFF8
FFFC
F8FE
FC7E
FE3E
7FFE
3FFE
1FFE
0FFE
07FE
03F8
01FC
00FC
F07C
FFFC
FFFC
7FFC
7FFC
3FFC
ENDCHAR
STARTCHAR 00A8
ENCODING 168
SWIDTH 292 0
DWIDTH 13 0
BBX 11 4 1 33
BITMAP
F1E0
F1E0
F1E0
F1E0
ENDCHAR
STARTCHAR 00A9
ENCODING 169
SWIDTH 720 0
DWIDTH 32 0
BBX 31 35 1 -2
BITMAP
7FFFFFF8
FFFFFFFC
FFFFFFFE
FFFFFFFE
FFFFFFFE
F000003E
F000003E
F000003E
F07FF03E
F07FF03E
F07FF83E
F07FF83E
F078783E
F078003E
F078003E
F078003E
F078003E
F078003E
F078003E
F078003E
F078003E
F078003E
F078783E
F07FF83E
F07FF83E
F07FF03E
F07FF03E
F000003E
F000003E
F000003E
FFFFFFFE
FFFFFFFE
FFFFFFFE
FFFFFFFC
7FFFFFF8
ENDCHAR
STARTCHAR 00AB
ENCODING 171
SWIDTH 450 0
DWIDTH 20 0
BBX 19 19 1 5
BITMAP
004020
00C060
01C0E0
03C1E0
0FC7E0
1F0FC0
3E1F00
FC3E00
F87C00
F87C00
F87C00
FC3E00
3E1F00
1F0FC0
0FC7E0
03C1E0
01C0E0
00C060
004020
ENDCHAR
STARTCHAR 00AC
ENCODING 172
SWIDTH 540 0
DWIDTH 24 0
BBX 23 11 1 6
BITMAP
FFFFFE
FFFFFE
FFFFFE
FFFFFE
00001E
00001E
00001E
00001E
00001E
00001E
00001E
ENDCHAR
STARTCHAR 00AE
ENCODING 174
SWIDTH 382 0
DWIDTH 17 0
BBX 15 17 1 14
BITMAP
FFFE
FFFE
C006
C006
C7C6
C7E6
C666
C6E6
C7C6
C7C6
C6C6
C6E6
C666
C006
C006
FFFE
FFFE
ENDCHAR
STARTCHAR 00AF
ENCODING 175
SWIDTH 427 0
DWIDTH 19 0
BBX 17 4 1 33
BITMAP
FFFF80
FFFF80
FFFF80
FFFF80
ENDCHAR
STARTCHAR 00B0
ENCODING 176
SWIDTH 247 0
DWIDTH 11 0
BBX 9 9 1 22
BITMAP
7F80
FF80
FF80
E380
E380
E380
FF80
FF80
7F00
ENDCHAR
STARTCHAR 00B1
ENCODING 177
SWIDTH 427 0
DWIDTH 19 0
BBX 17 23 1 1
BITMAP
03E000
03E000
03E000
03E000
03E000
03E000
FFFF80
FFFF80
FFFF80
FFFF80
FFFF80
03E000
03E000
03E000
03E000
03E000
03E000
000000
000000
FFFF80
FFFF80
FFFF80
FFFF80
ENDCHAR
STARTCHAR 00B4
ENCODING 180
SWIDTH 382 0
DWIDTH 17 0
BBX 16 4 1 34
BITMAP
3FFF
FFFF
FFE0
FC00
ENDCHAR
STARTCHAR 00B6
ENCODING 182
SWIDTH 405 0
DWIDTH 18 0
BBX 15 31 2 0
BITMAP
FFE6
FFE6
FFE6
FFE6
FFE6
FFE6
FFE6
FFE6
FFE6
FFE6
FFE6
FFE6
FFE6
FFE6
00E6
00E6
00E6
00E6
00E6
00E6
00E6
00E6
00E6
00E6
00E6
00E6
00E6
00E6
00E6
00E6
00E6
ENDCHAR
STARTCHAR 00B7
ENCODING 183
SWIDTH 157 0
DWIDTH 7 0
BBX 6 6 1 14
BITMAP
FC
FC
FC
FC
FC
FC
ENDCHAR
STARTCHAR 00B8
ENCODING 184
SWIDTH 202 0
DWIDTH 9 0
BBX 7 6 1 -6
BITMAP
0E
0C
3C
3C
7C
FC
ENDCHAR
STARTCHAR 00BB
ENCODING 187
SWIDTH 450 0
DWIDTH 20 0
BBX 19 19 1 5
BITMAP
004000
C06000
E07000
F07800
FC7E00
7E3F00
1F0F80
0F87C0
07C3E0
07C3E0
07C3E0
0F87C0
1F0F80
7E3F00
FC7E00
F07800
E07000
C06000
004000
ENDCHAR
STARTCHAR 00BC
ENCODING 188
SWIDTH 585 0
DWIDTH 26 0
BBX 22 31 2 0
BITMAP
1E00F0
3E00E0
FE01E0
FE01E0
FE03C0
CE03C0
0E0780
0E0780
0E0F00
0E0F00
0E1E00
0E1E00
0E3C00
0E3C00
0E7800
0078F0
00F0F8
00F1F8
00F3F8
01E3F8
01E7F8
03C7F8
03CF78
079E78
079E78
0F1FFC
0F1FFC
1E0FFC
1E0078
3C0078
3C0078
ENDCHAR
STARTCHAR 00BD
ENCODING 189
SWIDTH 630 0
DWIDTH 28 0
BBX 25 31 2 0
BITMAP
1E00F000
3E00E000
FE01E000
FE01E000
FE03C000
CE03C000
0E078000
0E078000
0E0F0000
0E0F0000
0E1E0000
0E1E0000
0E3C0000
0E3C0000
0E780000
0078FF00
00F1FF80
00F3FF80
00F3FF80
01E3C780
01E00780
03C00F80
03C01F00
07803E00
07807C00
0F00F800
0F01F000
1E03E000
1E03FF80
3C03FF80
3C03FF80
ENDCHAR
STARTCHAR 00BE
ENCODING 190
SWIDTH 630 0
DWIDTH 28 0
BBX 25 31 2 0
BITMAP
FFC03C00
FFC03C00
7FC07800
03C07800
03C0F000
03C0F000
3FC1E000
3FC1E000
3FC1C000
03C3C000
03C38000
03C78000
7FC78000
7FCF0000
FFCF0000
001E3C00
001E3E00
003C7E00
003C7E00
0078FE00
0079FE00
00F1FE00
00F3DE00
01E3DE00
01E39E00
03C3FF80
03C3FF80
03C3FF80
07801E00
07801E00
0F001E00
ENDCHAR
STARTCHAR 00BF
ENCODING 191
SWIDTH 517 0
DWIDTH 23 0
BBX 20 31 2 0
BITMAP
03F000
03F000
03F000
03F000
03F000
000000
000000
000000
03F000
03F000
03F000
03F000
03F000
03F000
07F000
0FE000
0FE000
1FC000
3F8000
3F8000
7F0000
FE0000
FE03F0
FE03F0
FFFFF0
FFFFF0
FFFFF0
FFFFE0
FFFFC0
FFFFC0
7FFF80
ENDCHAR
STARTCHAR 00C0
ENCODING 192
SWIDTH 585 0
DWIDTH 26 0
BBX 25 38 1 0
BITMAP
0C000000
0FE00000
0FFF0000
0FFFF000
003FF000
00000000
00000000
03FFC000
07FFE000
07FFE000
07FFE000
07FFE000
07FFF000
0FFFF000
0FC3F000
0FC3F000
0FC3F000
0F83F800
1F81F800
1F81F800
1F81F800
1F81F800
1F81FC00
3F81FC00
3F00FC00
3F00FC00
3F81FC00
3FFFFE00
7FFFFE00
7FFFFE00
7FFFFE00
7E7E7E00
7E007F00
FE007F00
FE007F00
FE007F00
FE007F00
FC003F80
ENDCHAR
STARTCHAR 00C1
ENCODING 193
SWIDTH 585 0
DWIDTH 26 0
BBX 25 37 1 1
BITMAP
03FFF000
0FFFF000
0FFE0000
0FC00000
00000000
00000000
03FFC000
07FFE000
07FFE000
07FFE000
07FFE000
07FFF000
0FFFF000
0FC3F000
0FC3F000
0FC3F000
0F83F800
1F81F800
1F81F800
1F81F800
1F81F800
1F81FC00
3F81FC00
3F00FC00
3F00FC00
3F81FC00
3FFFFE00
7FFFFE00
7FFFFE00
7FFFFE00
7E7E7E00
7E007F00
FE007F00
FE007F00
FE007F00
FE007F00
FC003F80
ENDCHAR
STARTCHAR 00C2
ENCODING 194
SWIDTH 585 0
DWIDTH 26 0
BBX 25 38 1 0
BITMAP
07FFC000
0FFFE000
1FFFF000
1F00F800
1E007800
00000000
00000000
03FFC000
07FFE000
07FFE000
07FFE000
07FFE000
07FFF000
0FFFF000
0FC3F000
0FC3F000
0FC3F000
0F83F800
1F81F800
1F81F800
1F81F800
1F81F800
1F81FC00
3F81FC00
3F00FC00
3F00FC00
3F81FC00
3FFFFE00
7FFFFE00
7FFFFE00
7FFFFE00
7E7E7E00
7E007F00
FE007F00
FE007F00
FE007F00
FE007F00
FC003F80
ENDCHAR
STARTCHAR 00C3
ENCODING 195
SWIDTH 585 0
DWIDTH 26 0
BBX 25 39 1 0
BITMAP
00C00000
03F80800
0FFF3800
1FFFF800
1E0FF800
1C01E000
00000000
00000000
03FFC000
07FFE000
07FFE000
07FFE000
07FFE000
07FFF000
0FFFF000
0FC3F000
0FC3F000
0FC3F000
0F83F800
1F81F800
1F81F800
1F81F800
1F81F800
1F81FC00
3F81FC00
3F00FC00
3F00FC00
3F81FC00
3FFFFE00
7FFFFE00
7FFFFE00
7FFFFE00
7E7E7E00
7E007F00
FE007F00
FE007F00
FE007F00
FE007F00
FC003F80
ENDCHAR
STARTCHAR 00C4
ENCODING 196
SWIDTH 585 0
DWIDTH 26 0
BBX 25 37 1 0
BITMAP
03E7C000
03E7C000
03E7C000
03E7C000
00000000
00000000
03FFC000
07FFE000
07FFE000
07FFE000
07FFE000
07FFF000
0FFFF000
0FC3F000
0FC3F000
0FC3F000
0F83F800
1F81F800
1F81F800
1F81F800
1F81F800
1F81FC00
3F81FC00
3F00FC00
3F00FC00
3F81FC00
3FFFFE00
7FFFFE00
7FFFFE00
7FFFFE00
7E7E7E00
7E007F00
FE007F00
FE007F00
FE007F00
FE007F00
FC003F80
ENDCHAR
STARTCHAR 00C5
ENCODING 197
SWIDTH 585 0
DWIDTH 26 0
BBX 25 39 1 0
BITMAP
007E0000
007E0000
00660000
00660000
007E0000
007E0000
00000000
00000000
03FFC000
07FFE000
07FFE000
07FFE000
07FFE000
07FFF000
0FFFF000
0FC3F000
0FC3F000
0FC3F000
0F83F800
1F81F800
1F81F800
1F81F800
1F81F800
1F81FC00
3F81FC00
3F00FC00
3F00FC00
3F81FC00
3FFFFE00
7FFFFE00
7FFFFE00
7FFFFE00
7E7E7E00
7E007F00
FE007F00
FE007F00
FE007F00
FE007F00
FC003F80
ENDCHAR
STARTCHAR 00C6
ENCODING 198
SWIDTH 832 0
DWIDTH 37 0
BBX 35 31 1 0
BITMAP
03FFFFFE00
07FFFFFF00
07FFFFFF80
07FFFFFFC0
07FFFFFFC0
07FFFFFFE0
0FFFFFFFE0
0FC3F807E0
0FC3F80000
0FC3F80000
0F83F80000
1F83F80000
1F83F80000
1F83FFF800
1F83FFF800
1F83FFF800
3F83FFF800
3F03FFF800
3F03F80000
3F83F80000
3FFFF80000
7FFFF80000
7FFFF80000
7FFFF80FE0
7E7FFFFFE0
7E03FFFFE0
FE03FFFFC0
FE03FFFFC0
FE03FFFF80
FE03FFFF00
FC03FFFE00
ENDCHAR
STARTCHAR 00C7
ENCODING 199
SWIDTH 540 0
DWIDTH 24 0
BBX 21 37 2 -6
BITMAP
FFFF80
FFFFC0
FFFFE0
FFFFF0
FFFFF0
FFFFF8
FFFFF8
FE07F8
FE0000
FE0000
FE0000
FE0000
FE0000
FE0000
FE0000
FE0000
FE0000
FE0000
FE0000
FE0000
FE0000
FE0000
FE0000
FE07F8
FFFFF8
FFFFF8
FFFFF0
FFFFE0
FFFFE0
FFFFC0
FFFF80
003000
007000
01E000
01E000
03E000
03E000
ENDCHAR
STARTCHAR 00C8
ENCODING 200
SWIDTH 540 0
DWIDTH 24 0
BBX 20 38 2 0
BITMAP
300000
3F8000
3FFC00
3FFFC0
00FFC0
000000
000000
FFFF80
FFFFC0
FFFFE0
FFFFE0
FFFFF0
FFFFF0
FFFFF0
FE03F0
FE0000
FE0000
FE0000
FE0000
FE0000
FFFE00
FFFE00
FFFE00
FFFE00
FFFE00
FE0000
FE0000
FE0000
FE0000
FE0000
FE03F0
FFFFF0
FFFFF0
FFFFF0
FFFFE0
FFFFE0
FFFFC0
FFFF80
ENDCHAR
STARTCHAR 00C9
ENCODING 201
SWIDTH 540 0
DWIDTH 24 0
BBX 20 37 2 1
BITMAP
0FFFC0
3FFFC0
3FF800
3F0000
000000
000000
FFFF80
FFFFC0
FFFFE0
FFFFE0
FFFFF0
FFFFF0
FFFFF0
FE03F0
FE0000
FE0000
FE0000
FE0000
FE0000
FFFE00
FFFE00
FFFE00
FFFE00
FFFE00
FE0000
FE0000
FE0000
FE0000
FE0000
FE03F0
FFFFF0
FFFFF0
FFFFF0
FFFFE0
FFFFE0
FFFFC0
FFFF80
ENDCHAR
STARTCHAR 00CA
ENCODING 202
SWIDTH 540 0
DWIDTH 24 0
BBX 20 38 2 0
BITMAP
3FFE00
7FFF00
FFFF80
F807C0
F003C0
000000
000000
FFFF80
FFFFC0
FFFFE0
FFFFE0
FFFFF0
FFFFF0
FFFFF0
FE03F0
FE0000
FE0000
FE0000
FE0000
FE0000
FFFE00
FFFE00
FFFE00
FFFE00
FFFE00
FE0000
FE0000
FE0000
FE0000
FE0000
FE03F0
FFFFF0
FFFFF0
FFFFF0
FFFFE0
FFFFE0
FFFFC0
FFFF80
ENDCHAR
STARTCHAR 00CB
ENCODING 203
SWIDTH 540 0
DWIDTH 24 0
BBX 20 37 2 0
BITMAP
0F1E00
0F1E00
0F1E00
0F1E00
000000
000000
FFFF80
FFFFC0
FFFFE0
FFFFE0
FFFFF0
FFFFF0
FFFFF0
FE03F0
FE0000
FE0000
FE0000
FE0000
FE0000
FFFE00
FFFE00
FFFE00
FFFE00
FFFE00
FE0000
FE0000
FE0000
FE0000
FE0000
FE03F0
FFFFF0
FFFFF0
FFFFF0
FFFFE0
FFFFE0
FFFFC0
FFFF80
ENDCHAR
STARTCHAR 00CC
ENCODING 204
SWIDTH 225 0
DWIDTH 10 0
BBX 16 38 -2 0
BITMAP
E000
FF00
FFF8
7FFF
03FF
0000
0000
0FE0
0FE0
0FE0
0FE0
0FE0
0FE0
0FE0
0FE0
0FE0
0FE0
0FE0
0FE0
0FE0
0FE0
0FE0
0FE0
0FE0
0FE0
0FE0
0FE0
0FE0
0FE0
0FE0
0FE0
0FE0
0FE0
0FE0
0FE0
0FE0
0FE0
0FE0
ENDCHAR
STARTCHAR 00CD
ENCODING 205
SWIDTH 225 0
DWIDTH 10 0
BBX 16 37 -3 1
BITMAP
1FFF
FFFF
FFE0
FC00
0000
0000
07F0
07F0
07F0
07F0
07F0
07F0
07F0
07F0
07F0
07F0
07F0
07F0
07F0
07F0
07F0
07F0
07F0
07F0
07F0
07F0
07F0
07F0
07F0
07F0
07F0
07F0
07F0
07F0
07F0
07F0
07F0
ENDCHAR
STARTCHAR 00CE
ENCODING 206
SWIDTH 472 0
DWIDTH 21 0
BBX 18 38 2 0
BITMAP
3FFE00
7FFF00
FFFF80
F807C0
F003C0
000000
000000
07F000
07F000
07F000
07F000
07F000
07F000
07F000
07F000
07F000
07F000
07F000
07F000
07F000
07F000
07F000
07F000
07F000
07F000
07F000
07F000
07F000
07F000
07F000
07F000
07F000
07F000
07F000
07F000
07F000
07F000
07F000
ENDCHAR
STARTCHAR 00CF
ENCODING 207
SWIDTH 225 0
DWIDTH 10 0
BBX 12 37 -1 0
BITMAP
F8F0
F8F0
F8F0
F8F0
0000
0000
1FC0
1FC0
1FC0
1FC0
1FC0
1FC0
1FC0
1FC0
1FC0
1FC0
1FC0
1FC0
1FC0
1FC0
1FC0
1FC0
1FC0
1FC0
1FC0
1FC0
1FC0
1FC0
1FC0
1FC0
1FC0
1FC0
1FC0
1FC0
1FC0
1FC0
1FC0
ENDCHAR
STARTCHAR 00D0
ENCODING 208
SWIDTH 562 0
DWIDTH 25 0
BBX 25 31 -1 0
BITMAP
1FFFFC00
1FFFFE00
1FFFFE00
1FFFFF00
1FFFFF80
1FFFFF80
1FFFFF80
1FC03F80
1FC03F80
1FC03F80
1FC03F80
1FC03F80
1FC03F80
FFF83F80
FFF83F80
FFF83F80
FFF83F80
FFF83F80
1FC03F80
1FC03F80
1FC03F80
1FC03F80
1FC03F80
1FC07F80
1FFFFF80
1FFFFF80
1FFFFF80
1FFFFF00
1FFFFE00
1FFFFE00
1FFFFC00
ENDCHAR
STARTCHAR 00D1
ENCODING 209
SWIDTH 562 0
DWIDTH 25 0
BBX 22 39 2 0
BITMAP
018000
07F010
1FFE70
3FFFF0
3C1FF0
3803C0
000000
000000
1E01FC
3E01FC
7F01FC
7F01FC
FF81FC
FF81FC
FFC1FC
FFC1FC
FFE1FC
FFE1FC
FFE1FC
FFF1FC
FFF1FC
FFF9FC
FFF9FC
FEFFFC
FEFFFC
FE7FFC
FE7FFC
FE3FFC
FE3FFC
FE3FFC
FE1FFC
FE1FFC
FE0FFC
FE0FFC
FE07F8
FE07F8
FE03F0
FE03E0
FE01C0
ENDCHAR
STARTCHAR 00D2
ENCODING 210
SWIDTH 607 0
DWIDTH 27 0
BBX 24 38 2 0
BITMAP
0E0000
0FF000
0FFF80
07FFF0
003FF0
000000
000000
1FFFF8
3FFFF8
7FFFFC
7FFFFE
FFFFFF
FFFFFF
FFFFFF
FE00FF
FE007F
FE007F
FE007F
FE007F
FE007F
FE007F
FE007F
FE007F
FE007F
FE007F
FE007F
FE007F
FE007F
FE007F
FE007F
FE00FF
FFFFFF
FFFFFF
FFFFFE
7FFFFE
3FFFFC
3FFFF8
1FFFF8
ENDCHAR
STARTCHAR 00D3
ENCODING 211
SWIDTH 607 0
DWIDTH 27 0
BBX 24 37 2 1
BITMAP
01FFF0
0FFFF0
0FFE00
0FC000
000000
000000
1FFFF8
3FFFF8
7FFFFC
7FFFFE
FFFFFF
FFFFFF
FFFFFF
FE00FF
FE007F
FE007F
FE007F
FE007F
FE007F
FE007F
FE007F
FE007F
FE007F
FE007F
FE007F
FE007F
FE007F
FE007F
FE007F
FE00FF
FFFFFF
FFFFFF
FFFFFE
7FFFFE
3FFFFC
3FFFF8
1FFFF8
ENDCHAR
STARTCHAR 00D4
ENCODING 212
SWIDTH 607 0
DWIDTH 27 0
BBX 24 38 2 0
BITMAP
07FFC0
0FFFE0
1FFFF0
1F00F8
1E0078
000000
000000
1FFFF8
3FFFF8
7FFFFC
7FFFFE
FFFFFF
FFFFFF
FFFFFF
FE00FF
FE007F
FE007F
FE007F
FE007F
FE007F
FE007F
FE007F
FE007F
FE007F
FE007F
FE007F
FE007F
FE007F
FE007F
FE007F
FE00FF
FFFFFF
FFFFFF
FFFFFE
7FFFFE
3FFFFC
3FFFF8
1FFFF8
ENDCHAR
STARTCHAR 00D5
ENCODING 213
SWIDTH 607 0
DWIDTH 27 0
BBX 24 39 2 0
BITMAP
00C000
03F818
0FFF78
1FFFF8
1E0FF8
1801C0
000000
000000
1FFFF8
3FFFF8
7FFFFC
7FFFFE
FFFFFF
FFFFFF
FFFFFF
FE00FF
FE007F
FE007F
FE007F
FE007F
FE007F
FE007F
FE007F
FE007F
FE007F
FE007F
FE007F
FE007F
FE007F
FE007F
FE007F
FE00FF
FFFFFF
FFFFFF
FFFFFE
7FFFFE
3FFFFC
3FFFF8
1FFFF8
ENDCHAR
STARTCHAR 00D6
ENCODING 214
SWIDTH 607 0
DWIDTH 27 0
BBX 24 37 2 0
BITMAP
03C780
03C780
03C780
03C780
000000
000000
1FFFF8
3FFFF8
7FFFFC
7FFFFE
FFFFFF
FFFFFF
FFFFFF
FE00FF
FE007F
FE007F
FE007F
FE007F
FE007F
FE007F
FE007F
FE007F
FE007F
FE007F
FE007F
FE007F
FE007F
FE007F
FE007F
FE00FF
FFFFFF
FFFFFF
FFFFFE
7FFFFE
3FFFFC
3FFFF8
1FFFF8
ENDCHAR
STARTCHAR 00D7
ENCODING 215
SWIDTH 405 0
DWIDTH 18 0
BBX 16 14 1 8
BITMAP
300C
781E
7C3F
FE7F
3FFE
1FF8
0FF0
0FF0
1FF8
3FFE
7E7F
FC3F
781E
300C
ENDCHAR
STARTCHAR 00D8
ENCODING 216
SWIDTH 607 0
DWIDTH 27 0
BBX 24 39 2 -4
BITMAP
00003E
00003E
00007C
00007C
1FFFF8
3FFFF8
7FFFFC
7FFFFE
FFFFFF
FFFFFF
FFFFFF
FE07FF
FE07FF
FE0FFF
FE0FFF
FE1F7F
FE1F7F
FE3E7F
FE3E7F
FE7C7F
FE7C7F
FEF87F
FEF87F
FFF07F
FFF07F
FFE07F
FFE07F
FFC0FF
FFFFFF
FFFFFF
FFFFFE
7FFFFE
3FFFFC
3FFFF8
3FFFF8
3E0000
7C0000
7C0000
780000
ENDCHAR
STARTCHAR 00D9
ENCODING 217
SWIDTH 607 0
DWIDTH 27 0
BBX 23 38 2 0
BITMAP
0E0000
0FF000
0FFF00
0FFFF0
003FF0
000000
000000
FE007E
FE007E
FE007E
FE007E
FE007E
FE007E
FE007E
FE007E
FE007E
FE007E
FE007E
FE007E
FE007E
FE007E
FE007E
FE007E
FE007E
FE007E
FE007E
FE007E
FE007E
FE007E
FE007E
FE00FE
FFFFFE
FFFFFE
FFFFFE
7FFFFC
3FFFFC
3FFFF8
1FFFF0
ENDCHAR
STARTCHAR 00DA
ENCODING 218
SWIDTH 607 0
DWIDTH 27 0
BBX 23 37 2 1
BITMAP
01FFF0
0FFFF0
0FFE00
0FC000
000000
000000
FE007E
FE007E
FE007E
FE007E
FE007E
FE007E
FE007E
FE007E
FE007E
FE007E
FE007E
FE007E
FE007E
FE007E
FE007E
FE007E
FE007E
FE007E
FE007E
FE007E
FE007E
FE007E
FE007E
FE00FE
FFFFFE
FFFFFE
FFFFFE
7FFFFC
3FFFFC
3FFFF8
1FFFF0
ENDCHAR
STARTCHAR 00DB
ENCODING 219
SWIDTH 607 0
DWIDTH 27 0
BBX 23 38 2 0
BITMAP
07FFC0
0FFFE0
1FFFF0
1F01F8
1E0078
000000
000000
FE007E
FE007E
FE007E
FE007E
FE007E
FE007E
FE007E
FE007E
FE007E
FE007E
FE007E
FE007E
FE007E
FE007E
FE007E
FE007E
FE007E
FE007E
FE007E
FE007E
FE007E
FE007E
FE007E
FE00FE
FFFFFE
FFFFFE
FFFFFE
7FFFFC
3FFFFC
3FFFF8
1FFFF0
ENDCHAR
STARTCHAR 00DC
ENCODING 220
SWIDTH 607 0
DWIDTH 27 0
BBX 23 37 2 0
BITMAP
03C7C0
03C7C0
03C7C0
03C7C0
000000
000000
FE007E
FE007E
FE007E
FE007E
FE007E
FE007E
FE007E
FE007E
FE007E
FE007E
FE007E
FE007E
FE007E
FE007E
FE007E
FE007E
FE007E
FE007E
FE007E
FE007E
FE007E
FE007E
FE007E
FE00FE
FFFFFE
FFFFFE
FFFFFE
7FFFFC
3FFFFC
3FFFF8
1FFFF0
ENDCHAR
STARTCHAR 00DD
ENCODING 221
SWIDTH 450 0
DWIDTH 20 0
BBX 21 37 0 1
BITMAP
07FFC0
3FFFC0
3FFC00
3F8000
000000
000000
FE03F8
FE03F8
FE03F8
FF07F8
7F07F0
7F07F0
3F8FE0
3F8FE0
3F8FC0
1FDFC0
1FDFC0
0FDF80
0FFF80
07FF00
07FF00
03FE00
03FE00
03FE00
01FC00
01FC00
01FC00
01FC00
01FC00
01FC00
01FC00
01FC00
01FC00
01FC00
01FC00
01FC00
01FC00
ENDCHAR
STARTCHAR 00DE
ENCODING 222
SWIDTH 540 0
DWIDTH 24 0
BBX 20 36 2 0
BITMAP
FE0000
FE0000
FE0000
FE0000
FE0000
FFFF80
FFFFC0
FFFFE0
FFFFE0
FFFFF0
FFFFF0
FFFFF0
FE07F0
FE07F0
FE07F0
FE07F0
FE07F0
FE07F0
FE07F0
FFFFF0
FFFFF0
FFFFF0
FFFFE0
FFFFC0
FFFFC0
FFFF80
FE0000
FE0000
FE0000
FE0000
FE0000
FE0000
FE0000
FE0000
FE0000
FE0000
ENDCHAR
STARTCHAR 00DF
ENCODING 223
SWIDTH 562 0
DWIDTH 25 0
BBX 22 31 2 0
BITMAP
1FFFE0
3FFFF0
7FFFF0
7FFFF8
FFFFFC
FFFFFC
FE03FC
FE01FC
FE01FC
FE01FC
FE01FC
FE01FC
FE3FFC
FE7FF8
FE7FF0
FE7FF0
FE7FF8
FE7FFC
FE3FFC
FE01FC
FE01FC
FE01FC
FE01FC
FE01FC
FE03FC
FE7FFC
FE7FFC
FE7FF8
FE7FF0
FE7FF0
FE7FE0
ENDCHAR
STARTCHAR 00E0
ENCODING 224
SWIDTH 585 0
DWIDTH 26 0
BBX 25 38 1 0
BITMAP
0C000000
0FE00000
0FFF0000
0FFFF000
003FF000
00000000
00000000
03FFC000
07FFE000
07FFE000
07FFE000
07FFE000
07FFF000
0FFFF000
0FC3F000
0FC3F000
0FC3F000
0F83F800
1F81F800
1F81F800
1F81F800
1F81F800
1F81FC00
3F81FC00
3F00FC00
3F00FC00
3F81FC00
3FFFFE00
7FFFFE00
7FFFFE00
7FFFFE00
7E7E7E00
7E007F00
FE007F00
FE007F00
FE007F00
FE007F00
FC003F80
ENDCHAR
STARTCHAR 00E1
ENCODING 225
SWIDTH 585 0
DWIDTH 26 0
BBX 25 37 1 1
BITMAP
03FFF000
0FFFF000
0FFE0000
0FC00000
00000000
00000000
03FFC000
07FFE000
07FFE000
07FFE000
07FFE000
07FFF000
0FFFF000
0FC3F000
0FC3F000
0FC3F000
0F83F800
1F81F800
1F81F800
1F81F800
1F81F800
1F81FC00
3F81FC00
3F00FC00
3F00FC00
3F81FC00
3FFFFE00
7FFFFE00
7FFFFE00
7FFFFE00
7E7E7E00
7E007F00
FE007F00
FE007F00
FE007F00
FE007F00
FC003F80
ENDCHAR
STARTCHAR 00E2
ENCODING 226
SWIDTH 585 0
DWIDTH 26 0
BBX 25 38 1 0
BITMAP
07FFC000
0FFFE000
1FFFF000
1F00F800
1E007800
00000000
00000000
03FFC000
07FFE000
07FFE000
07FFE000
07FFE000
07FFF000
0FFFF000
0FC3F000
0FC3F000
0FC3F000
0F83F800
1F81F800
1F81F800
1F81F800
1F81F800
1F81FC00
3F81FC00
3F00FC00
3F00FC00
3F81FC00
3FFFFE00
7FFFFE00
7FFFFE00
7FFFFE00
7E7E7E00
7E007F00
FE007F00
FE007F00
FE007F00
FE007F00
FC003F80
ENDCHAR
STARTCHAR 00E3
ENCODING 227
SWIDTH 585 0
DWIDTH 26 0
BBX 25 39 1 0
BITMAP
00C00000
03F80800
0FFF3800
1FFFF800
1E0FF800
1C01E000
00000000
00000000
03FFC000
07FFE000
07FFE000
07FFE000
07FFE000
07FFF000
0FFFF000
0FC3F000
0FC3F000
0FC3F000
0F83F800
1F81F800
1F81F800
1F81F800
1F81F800
1F81FC00
3F81FC00
3F00FC00
3F00FC00
3F81FC00
3FFFFE00
7FFFFE00
7FFFFE00
7FFFFE00
7E7E7E00
7E007F00
FE007F00
FE007F00
FE007F00
FE007F00
FC003F80
ENDCHAR
STARTCHAR 00E4
ENCODING 228
SWIDTH 585 0
DWIDTH 26 0
BBX 25 37 1 0
BITMAP
03E7C000
03E7C000
03E7C000
03E7C000
00000000
00000000
03FFC000
07FFE000
07FFE000
07FFE000
07FFE000
07FFF000
0FFFF000
0FC3F000
0FC3F000
0FC3F000
0F83F800
1F81F800
1F81F800
1F81F800
1F81F800
1F81FC00
3F81FC00
3F00FC00
3F00FC00
3F81FC00
3FFFFE00
7FFFFE00
7FFFFE00
7FFFFE00
7E7E7E00
7E007F00
FE007F00
FE007F00
FE007F00
FE007F00
FC003F80
ENDCHAR
STARTCHAR 00E5
ENCODING 229
SWIDTH 585 0
DWIDTH 26 0
BBX 25 39 1 0
BITMAP
007E0000
007E0000
00660000
00660000
007E0000
007E0000
00000000
00000000
03FFC000
07FFE000
07FFE000
07FFE000
07FFE000
07FFF000
0FFFF000
0FC3F000
0FC3F000
0FC3F000
0F83F800
1F81F800
1F81F800
1F81F800
1F81F800
1F81FC00
3F81FC00
3F00FC00
3F00FC00
3F81FC00
3FFFFE00
7FFFFE00
7FFFFE00
7FFFFE00
7E7E7E00
7E007F00
FE007F00
FE007F00
FE007F00
FE007F00
FC003F80
ENDCHAR
STARTCHAR 00E6
ENCODING 230
SWIDTH 832 0
DWIDTH 37 0
BBX 35 31 1 0
BITMAP
03FFFFFE00
07FFFFFF00
07FFFFFF80
07FFFFFFC0
07FFFFFFC0
07FFFFFFE0
0FFFFFFFE0
0FC3F807E0
0FC3F80000
0FC3F80000
0F83F80000
1F83F80000
1F83F80000
1F83FFF800
1F83FFF800
1F83FFF800
3F83FFF800
3F03FFF800
3F03F80000
3F83F80000
3FFFF80000
7FFFF80000
7FFFF80000
7FFFF80FE0
7E7FFFFFE0
7E03FFFFE0
FE03FFFFC0
FE03FFFFC0
FE03FFFF80
FE03FFFF00
FC03FFFE00
ENDCHAR
STARTCHAR 00E7
ENCODING 231
SWIDTH 540 0
DWIDTH 24 0
BBX 21 37 2 -6
BITMAP
FFFF80
FFFFC0
FFFFE0
FFFFF0
FFFFF0
FFFFF8
FFFFF8
FE07F8
FE0000
FE0000
FE0000
FE0000
FE0000
FE0000
FE0000
FE0000
FE0000
FE0000
FE0000
FE0000
FE0000
FE0000
FE0000
FE07F8
FFFFF8
FFFFF8
FFFFF0
FFFFE0
FFFFE0
FFFFC0
FFFF80
003000
007000
01E000
01E000
03E000
03E000
ENDCHAR
STARTCHAR 00E8
ENCODING 232
SWIDTH 540 0
DWIDTH 24 0
BBX 20 38 2 0
BITMAP
300000
3F8000
3FFC00
3FFFC0
00FFC0
000000
000000
FFFF80
FFFFC0
FFFFE0
FFFFE0
FFFFF0
FFFFF0
FFFFF0
FE03F0
FE0000
FE0000
FE0000
FE0000
FE0000
FFFE00
FFFE00
FFFE00
FFFE00
FFFE00
FE0000
FE0000
FE0000
FE0000
FE0000
FE03F0
FFFFF0
FFFFF0
FFFFF0
FFFFE0
FFFFE0
FFFFC0
FFFF80
ENDCHAR
STARTCHAR 00E9
ENCODING 233
SWIDTH 540 0
DWIDTH 24 0
BBX 20 37 2 1
BITMAP
0FFFC0
3FFFC0
3FF800
3F0000
000000
000000
FFFF80
FFFFC0
FFFFE0
FFFFE0
FFFFF0
FFFFF0
FFFFF0
FE03F0
FE0000
FE0000
FE0000
FE0000
FE0000
FFFE00
FFFE00
FFFE00
FFFE00
FFFE00
FE0000
FE0000
FE0000
FE0000
FE0000
FE03F0
FFFFF0
FFFFF0
FFFFF0
FFFFE0
FFFFE0
FFFFC0
FFFF80
ENDCHAR
STARTCHAR 00EA
ENCODING 234
SWIDTH 540 0
DWIDTH 24 0
BBX 20 38 2 0
BITMAP
3FFE00
7FFF00
FFFF80
F807C0
F003C0
000000
000000
FFFF80
FFFFC0
FFFFE0
FFFFE0
FFFFF0
FFFFF0
FFFFF0
FE03F0
FE0000
FE0000
FE0000
FE0000
FE0000
FFFE00
FFFE00
FFFE00
FFFE00
FFFE00
FE0000
FE0000
FE0000
FE0000
FE0000
FE03F0
FFFFF0
FFFFF0
FFFFF0
FFFFE0
FFFFE0
FFFFC0
FFFF80
ENDCHAR
STARTCHAR 00EB
ENCODING 235
SWIDTH 540 0
DWIDTH 24 0
BBX 20 37 2 0
BITMAP
1E1E00
1E1E00
1E1E00
1E1E00
000000
000000
FFFF80
FFFFC0
FFFFE0
FFFFE0
FFFFF0
FFFFF0
FFFFF0
FE03F0
FE0000
FE0000
FE0000
FE0000
FE0000
FFFE00
FFFE00
FFFE00
FFFE00
FFFE00
FE0000
FE0000
FE0000
FE0000
FE0000
FE03F0
FFFFF0
FFFFF0
FFFFF0
FFFFE0
FFFFE0
FFFFC0
FFFF80
ENDCHAR
STARTCHAR 00EC
ENCODING 236
SWIDTH 225 0
DWIDTH 10 0
BBX 16 38 -3 0
BITMAP
E000
FF00
FFF8
7FFF
01FF
0000
0000
07F0
07F0
07F0
07F0
07F0
07F0
07F0
07F0
07F0
07F0
07F0
07F0
07F0
07F0
07F0
07F0
07F0
07F0
07F0
07F0
07F0
07F0
07F0
07F0
07F0
07F0
07F0
07F0
07F0
07F0
07F0
ENDCHAR
STARTCHAR 00ED
ENCODING 237
SWIDTH 225 0
DWIDTH 10 0
BBX 16 37 -3 1
BITMAP
1FFF
FFFF
FFE0
FC00
0000
0000
07F0
07F0
07F0
07F0
07F0
07F0
07F0
07F0
07F0
07F0
07F0
07F0
07F0
07F0
07F0
07F0
07F0
07F0
07F0
07F0
07F0
07F0
07F0
07F0
07F0
07F0
07F0
07F0
07F0
07F0
07F0
ENDCHAR
STARTCHAR 00EE
ENCODING 238
SWIDTH 472 0
DWIDTH 21 0
BBX 18 38 2 0
BITMAP
3FFE00
7FFF00
FFFF80
F807C0
F003C0
000000
000000
03F800
03F800
03F800
03F800
03F800
03F800
03F800
03F800
03F800
03F800
03F800
03F800
03F800
03F800
03F800
03F800
03F800
03F800
03F800
03F800
03F800
03F800
03F800
03F800
03F800
03F800
03F800
03F800
03F800
03F800
03F800
ENDCHAR
STARTCHAR 00EF
ENCODING 239
SWIDTH 225 0
DWIDTH 10 0
BBX 12 37 -1 0
BITMAP
F8F0
F8F0
F8F0
F8F0
0000
0000
1FC0
1FC0
1FC0
1FC0
1FC0
1FC0
1FC0
1FC0
1FC0
1FC0
1FC0
1FC0
1FC0
1FC0
1FC0
1FC0
1FC0
1FC0
1FC0
1FC0
1FC0
1FC0
1FC0
1FC0
1FC0
1FC0
1FC0
1FC0
1FC0
1FC0
1FC0
ENDCHAR
STARTCHAR 00F0
ENCODING 240
SWIDTH 562 0
DWIDTH 25 0
BBX 25 31 -1 0
BITMAP
1FFFFC00
1FFFFE00
1FFFFE00
1FFFFF00
1FFFFF80
1FFFFF80
1FFFFF80
1FC03F80
1FC03F80
1FC03F80
1FC03F80
1FC03F80
1FC03F80
FFF83F80
FFF83F80
FFF83F80
FFF83F80
FFF83F80
1FC03F80
1FC03F80
1FC03F80
1FC03F80
1FC03F80
1FC07F80
1FFFFF80
1FFFFF80
1FFFFF80
1FFFFF00
1FFFFE00
1FFFFE00
1FFFFC00
ENDCHAR
STARTCHAR 00F1
ENCODING 241
SWIDTH 562 0
DWIDTH 25 0
BBX 22 39 2 0
BITMAP
018000
07F010
1FFE70
3FFFF0
3C1FF0
3803C0
000000
000000
1E01FC
3E01FC
7F01FC
7F01FC
FF81FC
FF81FC
FFC1FC
FFC1FC
FFE1FC
FFE1FC
FFE1FC
FFF1FC
FFF1FC
FFF9FC
FFF9FC
FEFFFC
FEFFFC
FE7FFC
FE7FFC
FE3FFC
FE3FFC
FE3FFC
FE1FFC
FE1FFC
FE0FFC
FE0FFC
FE07F8
FE07F8
FE03F0
FE03E0
FE01C0
ENDCHAR
STARTCHAR 00F2
ENCODING 242
SWIDTH 607 0
DWIDTH 27 0
BBX 24 38 2 0
BITMAP
1C0000
1FE000
1FFF00
0FFFE0
003FE0
000000
000000
1FFFF8
3FFFF8
7FFFFC
7FFFFE
FFFFFF
FFFFFF
FFFFFF
FE00FF
FE007F
FE007F
FE007F
FE007F
FE007F
FE007F
FE007F
FE007F
FE007F
FE007F
FE007F
FE007F
FE007F
FE007F
FE007F
FE00FF
FFFFFF
FFFFFF
FFFFFE
7FFFFE
3FFFFC
3FFFF8
1FFFF8
ENDCHAR
STARTCHAR 00F3
ENCODING 243
SWIDTH 607 0
DWIDTH 27 0
BBX 24 37 2 1
BITMAP
03FFE0
1FFFE0
1FFC00
1FC000
000000
000000
1FFFF8
3FFFF8
7FFFFC
7FFFFE
FFFFFF
FFFFFF
FFFFFF
FE00FF
FE007F
FE007F
FE007F
FE007F
FE007F
FE007F
FE007F
FE007F
FE007F
FE007F
FE007F
FE007F
FE007F
FE007F
FE007F
FE00FF
FFFFFF
FFFFFF
FFFFFE
7FFFFE
3FFFFC
3FFFF8
1FFFF8
ENDCHAR
STARTCHAR 00F4
ENCODING 244
SWIDTH 607 0
DWIDTH 27 0
BBX 24 38 2 0
BITMAP
07FFC0
0FFFE0
1FFFF0
1F00F8
1E0078
000000
000000
1FFFF8
3FFFF8
7FFFFC
7FFFFE
FFFFFF
FFFFFF
FFFFFF
FE00FF
FE007F
FE007F
FE007F
FE007F
FE007F
FE007F
FE007F
FE007F
FE007F
FE007F
FE007F
FE007F
FE007F
FE007F
FE007F
FE00FF
FFFFFF
FFFFFF
FFFFFE
7FFFFE
3FFFFC
3FFFF8
1FFFF8
ENDCHAR
STARTCHAR 00F5
ENCODING 245
SWIDTH 607 0
DWIDTH 27 0
BBX 24 39 2 0
BITMAP
00C000
03F818
0FFF78
1FFFF8
1E0FF8
1801C0
000000
000000
1FFFF8
3FFFF8
7FFFFC
7FFFFE
FFFFFF
FFFFFF
FFFFFF
FE00FF
FE007F
FE007F
FE007F
FE007F
FE007F
FE007F
FE007F
FE007F
FE007F
FE007F
FE007F
FE007F
FE007F
FE007F
FE007F
FE00FF
FFFFFF
FFFFFF
FFFFFE
7FFFFE
3FFFFC
3FFFF8
1FFFF8
ENDCHAR
STARTCHAR 00F6
ENCODING 246
SWIDTH 607 0
DWIDTH 27 0
BBX 24 37 2 0
BITMAP
03C780
03C780
03C780
03C780
000000
000000
1FFFF8
3FFFF8
7FFFFC
7FFFFE
FFFFFF
FFFFFF
FFFFFF
FE00FF
FE007F
FE007F
FE007F
FE007F
FE007F
FE007F
FE007F
FE007F
FE007F
FE007F
FE007F
FE007F
FE007F
FE007F
FE007F
FE00FF
FFFFFF
FFFFFF
FFFFFE
7FFFFE
3FFFFC
3FFFF8
1FFFF8
ENDCHAR
STARTCHAR 00F7
ENCODING 247
SWIDTH 427 0
DWIDTH 19 0
BBX 17 16 1 8
BITMAP
03E000
03E000
03E000
03E000
000000
000000
FFFF80
FFFF80
FFFF80
FFFF80
000000
000000
03E000
03E000
03E000
03E000
ENDCHAR
STARTCHAR 00F8
ENCODING 248
SWIDTH 607 0
DWIDTH 27 0
BBX 24 39 2 -4
BITMAP
00003E
00003E
00007C
00007C
1FFFF8
3FFFF8
7FFFFC
7FFFFE
FFFFFF
FFFFFF
FFFFFF
FE07FF
FE07FF
FE0FFF
FE0FFF
FE1F7F
FE1F7F
FE3E7F
FE3E7F
FE7C7F
FE7C7F
FEF87F
FEF87F
FFF07F
FFF07F
FFE07F
FFE07F
FFC0FF
FFFFFF
FFFFFF
FFFFFE
7FFFFE
3FFFFC
3FFFF8
3FFFF8
3E0000
7C0000
7C0000
780000
ENDCHAR
STARTCHAR 00F9
ENCODING 249
SWIDTH 607 0
DWIDTH 27 0
BBX 23 38 2 0
BITMAP
0E0000
0FF000
0FFF00
0FFFF0
003FF0
000000
000000
FE007E
FE007E
FE007E
FE007E
FE007E
FE007E
FE007E
FE007E
FE007E
FE007E
FE007E
FE007E
FE007E
FE007E
FE007E
FE007E
FE007E
FE007E
FE007E
FE007E
FE007E
FE007E
FE007E
FE00FE
FFFFFE
FFFFFE
FFFFFE
7FFFFC
3FFFFC
3FFFF8
1FFFF0
ENDCHAR
STARTCHAR 00FA
ENCODING 250
SWIDTH 607 0
DWIDTH 27 0
BBX 23 37 2 1
BITMAP
01FFF0
0FFFF0
0FFE00
0FC000
000000
000000
FE007E
FE007E
FE007E
FE007E
FE007E
FE007E
FE007E
FE007E
FE007E
FE007E
FE007E
FE007E
FE007E
FE007E
FE007E
FE007E
FE007E
FE007E
FE007E
FE007E
FE007E
FE007E
FE007E
FE00FE
FFFFFE
FFFFFE
FFFFFE
7FFFFC
3FFFFC
3FFFF8
1FFFF0
ENDCHAR
STARTCHAR 00FB
ENCODING 251
SWIDTH 607 0
DWIDTH 27 0
BBX 23 38 2 0
BITMAP
07FFC0
0FFFE0
1FFFF0
1F01F8
1E0078
000000
000000
FE007E
FE007E
FE007E
FE007E
FE007E
FE007E
FE007E
FE007E
FE007E
FE007E
FE007E
FE007E
FE007E
FE007E
FE007E
FE007E
FE007E
FE007E
FE007E
FE007E
FE007E
FE007E
FE007E
FE00FE
FFFFFE
FFFFFE
FFFFFE
7FFFFC
3FFFFC
3FFFF8
1FFFF0
ENDCHAR
STARTCHAR 00FC
ENCODING 252
SWIDTH 607 0
DWIDTH 27 0
BBX 23 37 2 0
BITMAP
03C780
03C780
03C780
03C780
000000
000000
FE007E
FE007E
FE007E
FE007E
FE007E
FE007E
FE007E
FE007E
FE007E
FE007E
FE007E
FE007E
FE007E
FE007E
FE007E
FE007E
FE007E
FE007E
FE007E
FE007E
FE007E
FE007E
FE007E
FE00FE
FFFFFE
FFFFFE
FFFFFE
7FFFFC
3FFFFC
3FFFF8
1FFFF0
ENDCHAR
STARTCHAR 00FD
ENCODING 253
SWIDTH 450 0
DWIDTH 20 0
BBX 21 37 0 1
BITMAP
07FFC0
3FFFC0
3FFC00
3F8000
000000
000000
FE03F8
FE03F8
FE03F8
FF07F8
7F07F0
7F07F0
3F8FE0
3F8FE0
3F8FC0
1FDFC0
1FDFC0
0FDF80
0FFF80
07FF00
07FF00
03FE00
03FE00
03FE00
01FC00
01FC00
01FC00
01FC00
01FC00
01FC00
01FC00
01FC00
01FC00
01FC00
01FC00
01FC00
01FC00
ENDCHAR
STARTCHAR 00FE
ENCODING 254
SWIDTH 540 0
DWIDTH 24 0
BBX 20 36 2 0
BITMAP
FE0000
FE0000
FE0000
FE0000
FE0000
FFFF80
FFFFC0
FFFFE0
FFFFE0
FFFFF0
FFFFF0
FFFFF0
FE07F0
FE07F0
FE07F0
FE07F0
FE07F0
FE07F0
FE07F0
FFFFF0
FFFFF0
FFFFF0
FFFFE0
FFFFC0
FFFFC0
FFFF80
FE0000
FE0000
FE0000
FE0000
FE0000
FE0000
FE0000
FE0000
FE0000
FE0000
ENDCHAR
STARTCHAR 00FF
ENCODING 255
SWIDTH 450 0
DWIDTH 20 0
BBX 21 37 0 0
BITMAP
078F00
078F00
078F00
078F00
000000
000000
FE03F8
FE03F8
FE03F8
FF07F8
7F07F0
7F07F0
3F8FE0
3F8FE0
3F8FC0
1FDFC0
1FDFC0
0FDF80
0FFF80
07FF00
07FF00
03FE00
03FE00
03FE00
01FC00
01FC00
01FC00
01FC00
01FC00
01FC00
01FC00
01FC00
01FC00
01FC00
01FC00
01FC00
01FC00
ENDCHAR
STARTCHAR 0100
ENCODING 256
SWIDTH 585 0
DWIDTH 26 0
BBX 25 37 1 0
BITMAP
1FFFF000
1FFFF000
1FFFF000
1FFFF000
00000000
00000000
03FFC000
07FFE000
07FFE000
07FFE000
07FFE000
07FFF000
0FFFF000
0FC3F000
0FC3F000
0FC3F000
0F83F800
1F81F800
1F81F800
1F81F800
1F81F800
1F81FC00
3F81FC00
3F00FC00
3F00FC00
3F81FC00
3FFFFE00
7FFFFE00
7FFFFE00
7FFFFE00
7E7E7E00
7E007F00
FE007F00
FE007F00
FE007F00
FE007F00
FC003F80
ENDCHAR
STARTCHAR 0101
ENCODING 257
SWIDTH 585 0
DWIDTH 26 0
BBX 25 37 1 0
BITMAP
1FFFF000
1FFFF000
1FFFF000
1FFFF000
00000000
00000000
03FFC000
07FFE000
07FFE000
07FFE000
07FFE000
07FFF000
0FFFF000
0FC3F000
0FC3F000
0FC3F000
0F83F800
1F81F800
1F81F800
1F81F800
1F81F800
1F81FC00
3F81FC00
3F00FC00
3F00FC00
3F81FC00
3FFFFE00
7FFFFE00
7FFFFE00
7FFFFE00
7E7E7E00
7E007F00
FE007F00
FE007F00
FE007F00
FE007F00
FC003F80
ENDCHAR
STARTCHAR 0102
ENCODING 258
SWIDTH 585 0
DWIDTH 26 0
BBX 25 38 1 0
BITMAP
1E007800
1F01F800
1FFFF000
0FFFE000
07FFC000
00000000
00000000
03FFC000
07FFE000
07FFE000
07FFE000
07FFE000
07FFF000
0FFFF000
0FC3F000
0FC3F000
0FC3F000
0F83F800
1F81F800
1F81F800
1F81F800
1F81F800
1F81FC00
3F81FC00
3F00FC00
3F00FC00
3F81FC00
3FFFFE00
7FFFFE00
7FFFFE00
7FFFFE00
7E7E7E00
7E007F00
FE007F00
FE007F00
FE007F00
FE007F00
FC003F80
ENDCHAR
STARTCHAR 0103
ENCODING 259
SWIDTH 585 0
DWIDTH 26 0
BBX 25 38 1 0
BITMAP
1E007800
1F01F800
1FFFF000
0FFFE000
07FFC000
00000000
00000000
03FFC000
07FFE000
07FFE000
07FFE000
07FFE000
07FFF000
0FFFF000
0FC3F000
0FC3F000
0FC3F000
0F83F800
1F81F800
1F81F800
1F81F800
1F81F800
1F81FC00
3F81FC00
3F00FC00
3F00FC00
3F81FC00
3FFFFE00
7FFFFE00
7FFFFE00
7FFFFE00
7E7E7E00
7E007F00
FE007F00
FE007F00
FE007F00
FE007F00
FC003F80
ENDCHAR
STARTCHAR 0104
ENCODING 260
SWIDTH 585 0
DWIDTH 26 0
BBX 27 38 1 -7
BITMAP
03FFC000
07FFE000
07FFE000
07FFE000
07FFE000
07FFF000
0FFFF000
0FC3F000
0FC3F000
0FC3F000
0F83F800
1F81F800
1F81F800
1F81F800
1F81F800
1F81FC00
3F81FC00
3F00FC00
3F00FC00
3F81FC00
3FFFFE00
7FFFFE00
7FFFFE00
7FFFFE00
7E7E7E00
7E007F00
FE007F00
FE007F00
FE007F00
FE007F00
FC003F80
00000700
00000700
00000E00
00000E60
00000FE0
00000FE0
00000FC0
ENDCHAR
STARTCHAR 0105
ENCODING 261
SWIDTH 585 0
DWIDTH 26 0
BBX 27 38 1 -7
BITMAP
03FFC000
07FFE000
07FFE000
07FFE000
07FFE000
07FFF000
0FFFF000
0FC3F000
0FC3F000
0FC3F000
0F83F800
1F81F800
1F81F800
1F81F800
1F81F800
1F81FC00
3F81FC00
3F00FC00
3F00FC00
3F81FC00
3FFFFE00
7FFFFE00
7FFFFE00
7FFFFE00
7E7E7E00
7E007F00
FE007F00
FE007F00
FE007F00
FE007F00
FC003F80
00000700
00000700
00000E00
00000E60
00000FE0
00000FE0
00000FC0
ENDCHAR
STARTCHAR 0106
ENCODING 262
SWIDTH 540 0
DWIDTH 24 0
BBX 21 37 2 1
BITMAP
07FFC0
3FFFC0
3FF800
3F0000
000000
000000
FFFF80
FFFFC0
FFFFE0
FFFFF0
FFFFF0
FFFFF8
FFFFF8
FE07F8
FE0000
FE0000
FE0000
FE0000
FE0000
FE0000
FE0000
FE0000
FE0000
FE0000
FE0000
FE0000
FE0000
FE0000
FE0000
FE07F8
FFFFF8
FFFFF8
FFFFF0
FFFFE0
FFFFE0
FFFFC0
FFFF80
ENDCHAR
STARTCHAR 0107
ENCODING 263
SWIDTH 540 0
DWIDTH 24 0
BBX 21 37 2 1
BITMAP
07FFC0
3FFFC0
3FF800
3F0000
000000
000000
FFFF80
FFFFC0
FFFFE0
FFFFF0
FFFFF0
FFFFF8
FFFFF8
FE07F8
FE0000
FE0000
FE0000
FE0000
FE0000
FE0000
FE0000
FE0000
FE0000
FE0000
FE0000
FE0000
FE0000
FE0000
FE0000
FE07F8
FFFFF8
FFFFF8
FFFFF0
FFFFE0
FFFFE0
FFFFC0
FFFF80
ENDCHAR
STARTCHAR 0108
ENCODING 264
SWIDTH 540 0
DWIDTH 24 0
BBX 21 38 2 0
BITMAP
3FFE00
7FFF00
FFFF80
F807C0
F003C0
000000
000000
FFFF80
FFFFC0
FFFFE0
FFFFF0
FFFFF0
FFFFF8
FFFFF8
FE07F8
FE0000
FE0000
FE0000
FE0000
FE0000
FE0000
FE0000
FE0000
FE0000
FE0000
FE0000
FE0000
FE0000
FE0000
FE0000
FE07F8
FFFFF8
FFFFF8
FFFFF0
FFFFE0
FFFFE0
FFFFC0
FFFF80
ENDCHAR
STARTCHAR 0109
ENCODING 265
SWIDTH 540 0
DWIDTH 24 0
BBX 21 38 2 0
BITMAP
3FFE00
7FFF00
FFFF80
F807C0
F003C0
000000
000000
FFFF80
FFFFC0
FFFFE0
FFFFF0
FFFFF0
FFFFF8
FFFFF8
FE07F8
FE0000
FE0000
FE0000
FE0000
FE0000
FE0000
FE0000
FE0000
FE0000
FE0000
FE0000
FE0000
FE0000
FE0000
FE0000
FE07F8
FFFFF8
FFFFF8
FFFFF0
FFFFE0
FFFFE0
FFFFC0
FFFF80
ENDCHAR
STARTCHAR 010A
ENCODING 266
SWIDTH 540 0
DWIDTH 24 0
BBX 21 38 2 0
BITMAP
00F000
00F800
00F800
00F800
00F000
000000
000000
FFFF80
FFFFC0
FFFFE0
FFFFF0
FFFFF0
FFFFF8
FFFFF8
FE07F8
FE0000
FE0000
FE0000
FE0000
FE0000
FE0000
FE0000
FE0000
FE0000
FE0000
FE0000
FE0000
FE0000
FE0000
FE0000
FE07F8
FFFFF8
FFFFF8
FFFFF0
FFFFE0
FFFFE0
FFFFC0
FFFF80
ENDCHAR
STARTCHAR 010B
ENCODING 267
SWIDTH 540 0
DWIDTH 24 0
BBX 21 38 2 0
BITMAP
00F000
00F800
00F800
00F800
00F000
000000
000000
FFFF80
FFFFC0
FFFFE0
FFFFF0
FFFFF0
FFFFF8
FFFFF8
FE07F8
FE0000
FE0000
FE0000
FE0000
FE0000
FE0000
FE0000
FE0000
FE0000
FE0000
FE0000
FE0000
FE0000
FE0000
FE0000
FE07F8
FFFFF8
FFFFF8
FFFFF0
FFFFE0
FFFFE0
FFFFC0
FFFF80
ENDCHAR
STARTCHAR 010C
ENCODING 268
SWIDTH 540 0
DWIDTH 24 0
BBX 21 39 2 0
BITMAP
180600
1C0E00
1E1E00
0FFE00
07FC00
03F800
000000
000000
FFFF80
FFFFC0
FFFFE0
FFFFF0
FFFFF0
FFFFF8
FFFFF8
FE07F8
FE0000
FE0000
FE0000
FE0000
FE0000
FE0000
FE0000
FE0000
FE0000
FE0000
FE0000
FE0000
FE0000
FE0000
FE0000
FE07F8
FFFFF8
FFFFF8
FFFFF0
FFFFE0
FFFFE0
FFFFC0
FFFF80
ENDCHAR
STARTCHAR 010D
ENCODING 269
SWIDTH 540 0
DWIDTH 24 0
BBX 21 39 2 0
BITMAP
180600
1C0E00
1E1E00
0FFE00
07FC00
03F800
000000
000000
FFFF80
FFFFC0
FFFFE0
FFFFF0
FFFFF0
FFFFF8
FFFFF8
FE07F8
FE0000
FE0000
FE0000
FE0000
FE0000
FE0000
FE0000
FE0000
FE0000
FE0000
FE0000
FE0000
FE0000
FE0000
FE0000
FE07F8
FFFFF8
FFFFF8
FFFFF0
FFFFE0
FFFFE0
FFFFC0
FFFF80
ENDCHAR
STARTCHAR 010E
ENCODING 270
SWIDTH 562 0
DWIDTH 25 0
BBX 22 39 2 0
BITMAP
060180
070380
078780
07FF00
03FE00
00FC00
000000
000000
FFFFE0
FFFFF0
FFFFF0
FFFFF8
FFFFFC
FFFFFC
FFFFFC
FE01FC
FE01FC
FE01FC
FE01FC
FE01FC
FE01FC
FE01FC
FE01FC
FE01FC
FE01FC
FE01FC
FE01FC
FE01FC
FE01FC
FE01FC
FE01FC
FE03FC
FFFFFC
FFFFFC
FFFFFC
FFFFF8
FFFFF0
FFFFF0
FFFFE0
ENDCHAR
STARTCHAR 010F
ENCODING 271
SWIDTH 742 0
DWIDTH 33 0
BBX 31 31 2 0
BITMAP
FFFFE01E
FFFFF01E
FFFFF01E
FFFFF81E
FFFFFC1E
FFFFFC3E
FFFFFC3E
FE01FC7C
FE01FCF8
FE01FCF8
FE01FC00
FE01FC00
FE01FC00
FE01FC00
FE01FC00
FE01FC00
FE01FC00
FE01FC00
FE01FC00
FE01FC00
FE01FC00
FE01FC00
FE01FC00
FE03FC00
FFFFFC00
FFFFFC00
FFFFFC00
FFFFF800
FFFFF000
FFFFF000
FFFFE000
ENDCHAR
STARTCHAR 0110
ENCODING 272
SWIDTH 562 0
DWIDTH 25 0
BBX 25 31 -1 0
BITMAP
1FFFFC00
1FFFFE00
1FFFFE00
1FFFFF00
1FFFFF80
1FFFFF80
1FFFFF80
1FC03F80
1FC03F80
1FC03F80
1FC03F80
1FC03F80
1FC03F80
FFF83F80
FFF83F80
FFF83F80
FFF83F80
FFF83F80
1FC03F80
1FC03F80
1FC03F80
1FC03F80
1FC03F80
1FC07F80
1FFFFF80
1FFFFF80
1FFFFF80
1FFFFF00
1FFFFE00
1FFFFE00
1FFFFC00
ENDCHAR
STARTCHAR 0111
ENCODING 273
SWIDTH 562 0
DWIDTH 25 0
BBX 25 31 -1 0
BITMAP
1FFFFC00
1FFFFE00
1FFFFE00
1FFFFF00
1FFFFF80
1FFFFF80
1FFFFF80
1FC03F80
1FC03F80
1FC03F80
1FC03F80
1FC03F80
1FC03F80
FFF83F80
FFF83F80
FFF83F80
FFF83F80
FFF83F80
1FC03F80
1FC03F80
1FC03F80
1FC03F80
1FC03F80
1FC07F80
1FFFFF80
1FFFFF80
1FFFFF80
1FFFFF00
1FFFFE00
1FFFFE00
1FFFFC00
ENDCHAR
STARTCHAR 0112
ENCODING 274
SWIDTH 540 0
DWIDTH 24 0
BBX 20 37 2 0
BITMAP
FFFFC0
FFFFC0
FFFFC0
FFFFC0
000000
000000
FFFF80
FFFFC0
FFFFE0
FFFFE0
FFFFF0
FFFFF0
FFFFF0
FE03F0
FE0000
FE0000
FE0000
FE0000
FE0000
FFFE00
FFFE00
FFFE00
FFFE00
FFFE00
FE0000
FE0000
FE0000
FE0000
FE0000
FE03F0
FFFFF0
FFFFF0
FFFFF0
FFFFE0
FFFFE0
FFFFC0
FFFF80
ENDCHAR
STARTCHAR 0113
ENCODING 275
SWIDTH 540 0
DWIDTH 24 0
BBX 20 37 2 0
BITMAP
FFFFC0
FFFFC0
FFFFC0
FFFFC0
000000
000000
FFFF80
FFFFC0
FFFFE0
FFFFE0
FFFFF0
FFFFF0
FFFFF0
FE03F0
FE0000
FE0000
FE0000
FE0000
FE0000
FFFE00
FFFE00
FFFE00
FFFE00
FFFE00
FE0000
FE0000
FE0000
FE0000
FE0000
FE03F0
FFFFF0
FFFFF0
FFFFF0
FFFFE0
FFFFE0
FFFFC0
FFFF80
ENDCHAR
STARTCHAR 0116
ENCODING 278
SWIDTH 540 0
DWIDTH 24 0
BBX 20 38 2 0
BITMAP
01F000
01F000
01F000
01F000
01F000
000000
000000
FFFF80
FFFFC0
FFFFE0
FFFFE0
FFFFF0
FFFFF0
FFFFF0
FE03F0
FE0000
FE0000
FE0000
FE0000
FE0000
FFFE00
FFFE00
FFFE00
FFFE00
FFFE00
FE0000
FE0000
FE0000
FE0000
FE0000
FE03F0
FFFFF0
FFFFF0
FFFFF0
FFFFE0
FFFFE0
FFFFC0
FFFF80
ENDCHAR
STARTCHAR 0117
ENCODING 279
SWIDTH 540 0
DWIDTH 24 0
BBX 20 38 2 0
BITMAP
01F000
01F000
01F000
01F000
01F000
000000
000000
FFFF80
FFFFC0
FFFFE0
FFFFE0
FFFFF0
FFFFF0
FFFFF0
FE03F0
FE0000
FE0000
FE0000
FE0000
FE0000
FFFE00
FFFE00
FFFE00
FFFE00
FFFE00
FE0000
FE0000
FE0000
FE0000
FE0000
FE03F0
FFFFF0
FFFFF0
FFFFF0
FFFFE0
FFFFE0
FFFFC0
FFFF80
ENDCHAR
STARTCHAR 0118
ENCODING 280
SWIDTH 540 0
DWIDTH 24 0
BBX 20 38 2 -7
BITMAP
FFFF80
FFFFC0
FFFFE0
FFFFE0
FFFFF0
FFFFF0
FFFFF0
FE03F0
FE0000
FE0000
FE0000
FE0000
FE0000
FFFE00
FFFE00
FFFE00
FFFE00
FFFE00
FE0000
FE0000
FE0000
FE0000
FE0000
FE03F0
FFFFF0
FFFFF0
FFFFF0
FFFFE0
FFFFE0
FFFFC0
FFFF80
00E000
01C000
038000
039800
03F800
03F800
03F800
ENDCHAR
STARTCHAR 0119
ENCODING 281
SWIDTH 540 0
DWIDTH 24 0
BBX 20 38 2 -7
BITMAP
FFFF80
FFFFC0
FFFFE0
FFFFE0
FFFFF0
FFFFF0
FFFFF0
FE03F0
FE0000
FE0000
FE0000
FE0000
FE0000
FFFE00
FFFE00
FFFE00
FFFE00
FFFE00
FE0000
FE0000
FE0000
FE0000
FE0000
FE03F0
FFFFF0
FFFFF0
FFFFF0
FFFFE0
FFFFE0
FFFFC0
FFFF80
00E000
01C000
038000
039800
03F800
03F800
03F800
ENDCHAR
STARTCHAR 011C
ENCODING 284
SWIDTH 540 0
DWIDTH 24 0
BBX 21 38 2 0
BITMAP
0FFF00
1FFFC0
7FFFE0
7C03E0
7801E0
000000
000000
FFFFC0
FFFFC0
FFFFE0
FFFFF0
FFFFF8
FFFFF8
FFFFF8
FE01F8
FE0000
FE0000
FE0000
FE0000
FE0000
FE3FF8
FE3FF8
FE3FF8
FE3FF8
FE3FF8
FE3FF8
FE3FF8
FE03F8
FE03F8
FE03F8
FE03F8
FFFFF8
FFFFF8
FFFFF8
FFFFF8
FFFFF8
FFFFF8
FFFF78
ENDCHAR
STARTCHAR 011D
ENCODING 285
SWIDTH 540 0
DWIDTH 24 0
BBX 21 38 2 0
BITMAP
0FFF00
1FFFC0
7FFFE0
7C03E0
7801E0
000000
000000
FFFFC0
FFFFC0
FFFFE0
FFFFF0
FFFFF8
FFFFF8
FFFFF8
FE01F8
FE0000
FE0000
FE0000
FE0000
FE0000
FE3FF8
FE3FF8
FE3FF8
FE3FF8
FE3FF8
FE3FF8
FE3FF8
FE03F8
FE03F8
FE03F8
FE03F8
FFFFF8
FFFFF8
FFFFF8
FFFFF8
FFFFF8
FFFFF8
FFFF78
ENDCHAR
STARTCHAR 011E
ENCODING 286
SWIDTH 540 0
DWIDTH 24 0
BBX 21 38 2 0
BITMAP
7801E0
7C03E0
3FFFE0
1FFF80
0FFF00
000000
000000
FFFFC0
FFFFC0
FFFFE0
FFFFF0
FFFFF8
FFFFF8
FFFFF8
FE01F8
FE0000
FE0000
FE0000
FE0000
FE0000
FE3FF8
FE3FF8
FE3FF8
FE3FF8
FE3FF8
FE3FF8
FE3FF8
FE03F8
FE03F8
FE03F8
FE03F8
FFFFF8
FFFFF8
FFFFF8
FFFFF8
FFFFF8
FFFFF8
FFFF78
ENDCHAR
STARTCHAR 011F
ENCODING 287
SWIDTH 540 0
DWIDTH 24 0
BBX 21 38 2 0
BITMAP
7801E0
7C03E0
3FFFE0
1FFF80
0FFF00
000000
000000
FFFFC0
FFFFC0
FFFFE0
FFFFF0
FFFFF8
FFFFF8
FFFFF8
FE01F8
FE0000
FE0000
FE0000
FE0000
FE0000
FE3FF8
FE3FF8
FE3FF8
FE3FF8
FE3FF8
FE3FF8
FE3FF8
FE03F8
FE03F8
FE03F8
FE03F8
FFFFF8
FFFFF8
FFFFF8
FFFFF8
FFFFF8
FFFFF8
FFFF78
ENDCHAR
STARTCHAR 0120
ENCODING 288
SWIDTH 540 0
DWIDTH 24 0
BBX 21 38 2 0
BITMAP
00F800
00F800
00F800
00F800
00F800
000000
000000
FFFFC0
FFFFC0
FFFFE0
FFFFF0
FFFFF8
FFFFF8
FFFFF8
FE01F8
FE0000
FE0000
FE0000
FE0000
FE0000
FE3FF8
FE3FF8
FE3FF8
FE3FF8
FE3FF8
FE3FF8
FE3FF8
FE03F8
FE03F8
FE03F8
FE03F8
FFFFF8
FFFFF8
FFFFF8
FFFFF8
FFFFF8
FFFFF8
FFFF78
ENDCHAR
STARTCHAR 0121
ENCODING 289
SWIDTH 540 0
DWIDTH 24 0
BBX 21 38 2 0
BITMAP
00F800
00F800
00F800
00F800
00F800
000000
000000
FFFFC0
FFFFC0
FFFFE0
FFFFF0
FFFFF8
FFFFF8
FFFFF8
FE01F8
FE0000
FE0000
FE0000
FE0000
FE0000
FE3FF8
FE3FF8
FE3FF8
FE3FF8
FE3FF8
FE3FF8
FE3FF8
FE03F8
FE03F8
FE03F8
FE03F8
FFFFF8
FFFFF8
FFFFF8
FFFFF8
FFFFF8
FFFFF8
FFFF78
ENDCHAR
STARTCHAR 0122
ENCODING 290
SWIDTH 540 0
DWIDTH 24 0
BBX 21 38 2 -7
BITMAP
FFFFC0
FFFFC0
FFFFE0
FFFFF0
FFFFF8
FFFFF8
FFFFF8
FE01F8
FE0000
FE0000
FE0000
FE0000
FE0000
FE3FF8
FE3FF8
FE3FF8
FE3FF8
FE3FF8
FE3FF8
FE3FF8
FE03F8
FE03F8
FE03F8
FE03F8
FFFFF8
FFFFF8
FFFFF8
FFFFF8
FFFFF8
FFFFF8
FFFF78
000000
006000
007000
007000
007000
00E000
01C000
ENDCHAR
STARTCHAR 0123
ENCODING 291
SWIDTH 540 0
DWIDTH 24 0
BBX 21 38 2 -7
BITMAP
FFFFC0
FFFFC0
FFFFE0
FFFFF0
FFFFF8
FFFFF8
FFFFF8
FE01F8
FE0000
FE0000
FE0000
FE0000
FE0000
FE3FF8
FE3FF8
FE3FF8
FE3FF8
FE3FF8
FE3FF8
FE3FF8
FE03F8
FE03F8
FE03F8
FE03F8
FFFFF8
FFFFF8
FFFFF8
FFFFF8
FFFFF8
FFFFF8
FFFF78
000000
006000
007000
007000
007000
00E000
01C000
ENDCHAR
STARTCHAR 0124
ENCODING 292
SWIDTH 562 0
DWIDTH 25 0
BBX 22 38 2 0
BITMAP
0FFF80
1FFFC0
3FFFE0
3E01F0
3C00F0
000000
000000
FE01FC
FE01FC
FE01FC
FE01FC
FE01FC
FE01FC
FE01FC
FE01FC
FE01FC
FE01FC
FE01FC
FFFFFC
FFFFFC
FFFFFC
FFFFFC
FFFFFC
FFFFFC
FFFFFC
FF03FC
FE01FC
FE01FC
FE01FC
FE01FC
FE01FC
FE01FC
FE01FC
FE01FC
FE01FC
FE01FC
FE01FC
FE01FC
ENDCHAR
STARTCHAR 0125
ENCODING 293
SWIDTH 562 0
DWIDTH 25 0
BBX 22 38 2 0
BITMAP
0FFF80
1FFFC0
3FFFE0
3E01F0
3C00F0
000000
000000
FE01FC
FE01FC
FE01FC
FE01FC
FE01FC
FE01FC
FE01FC
FE01FC
FE01FC
FE01FC
FE01FC
FFFFFC
FFFFFC
FFFFFC
FFFFFC
FFFFFC
FFFFFC
FFFFFC
FF03FC
FE01FC
FE01FC
FE01FC
FE01FC
FE01FC
FE01FC
FE01FC
FE01FC
FE01FC
FE01FC
FE01FC
FE01FC
ENDCHAR
STARTCHAR 0126
ENCODING 294
SWIDTH 562 0
DWIDTH 25 0
BBX 30 31 -2 0
BITMAP
0FE01FC0
0FE01FC0
0FE01FC0
FFFFFFFC
FFFFFFFC
FFFFFFFC
FFFFFFFC
0FE01FC0
0FE01FC0
0FE01FC0
0FE01FC0
0FFFFFC0
0FFFFFC0
0FFFFFC0
0FFFFFC0
0FFFFFC0
0FFFFFC0
0FFFFFC0
0FF03FC0
0FE01FC0
0FE01FC0
0FE01FC0
0FE01FC0
0FE01FC0
0FE01FC0
0FE01FC0
0FE01FC0
0FE01FC0
0FE01FC0
0FE01FC0
0FE01FC0
ENDCHAR
STARTCHAR 0127
ENCODING 295
SWIDTH 562 0
DWIDTH 25 0
BBX 30 31 -2 0
BITMAP
0FE01FC0
0FE01FC0
0FE01FC0
FFFFFFFC
FFFFFFFC
FFFFFFFC
FFFFFFFC
0FE01FC0
0FE01FC0
0FE01FC0
0FE01FC0
0FFFFFC0
0FFFFFC0
0FFFFFC0
0FFFFFC0
0FFFFFC0
0FFFFFC0
0FFFFFC0
0FF03FC0
0FE01FC0
0FE01FC0
0FE01FC0
0FE01FC0
0FE01FC0
0FE01FC0
0FE01FC0
0FE01FC0
0FE01FC0
0FE01FC0
0FE01FC0
0FE01FC0
ENDCHAR
STARTCHAR 0128
ENCODING 296
SWIDTH 225 0
DWIDTH 10 0
BBX 18 39 -4 0
BITMAP
060000
1FC040
7FF9C0
FFFFC0
F07FC0
E00F00
000000
000000
03F800
03F800
03F800
03F800
03F800
03F800
03F800
03F800
03F800
03F800
03F800
03F800
03F800
03F800
03F800
03F800
03F800
03F800
03F800
03F800
03F800
03F800
03F800
03F800
03F800
03F800
03F800
03F800
03F800
03F800
03F800
ENDCHAR
STARTCHAR 0129
ENCODING 297
SWIDTH 225 0
DWIDTH 10 0
BBX 18 39 -4 0
BITMAP
070000
1FC040
7FF9C0
FFFFC0
F07FC0
E00F00
000000
000000
03F800
03F800
03F800
03F800
03F800
03F800
03F800
03F800
03F800
03F800
03F800
03F800
03F800
03F800
03F800
03F800
03F800
03F800
03F800
03F800
03F800
03F800
03F800
03F800
03F800
03F800
03F800
03F800
03F800
03F800
03F800
ENDCHAR
STARTCHAR 012A
ENCODING 298
SWIDTH 225 0
DWIDTH 10 0
BBX 18 37 -4 0
BITMAP
FFFFC0
FFFFC0
FFFFC0
FFFFC0
000000
000000
03F800
03F800
03F800
03F800
03F800
03F800
03F800
03F800
03F800
03F800
03F800
03F800
03F800
03F800
03F800
03F800
03F800
03F800
03F800
03F800
03F800
03F800
03F800
03F800
03F800
03F800
03F800
03F800
03F800
03F800
03F800
ENDCHAR
STARTCHAR 012B
ENCODING 299
SWIDTH 225 0
DWIDTH 10 0
BBX 18 37 -4 0
BITMAP
FFFFC0
FFFFC0
FFFFC0
FFFFC0
000000
000000
03F800
03F800
03F800
03F800
03F800
03F800
03F800
03F800
03F800
03F800
03F800
03F800
03F800
03F800
03F800
03F800
03F800
03F800
03F800
03F800
03F800
03F800
03F800
03F800
03F800
03F800
03F800
03F800
03F800
03F800
03F800
ENDCHAR
STARTCHAR 012E
ENCODING 302
SWIDTH 225 0
DWIDTH 10 0
BBX 8 38 1 -7
BITMAP
7F
7F
7F
7F
7F
7F
7F
7F
7F
7F
7F
7F
7F
7F
7F
7F
7F
7F
7F
7F
7F
7F
7F
7F
7F
7F
7F
7F
7F
7F
7F
38
38
70
E3
FF
FF
7E
ENDCHAR
STARTCHAR 012F
ENCODING 303
SWIDTH 225 0
DWIDTH 10 0
BBX 8 38 1 -7
BITMAP
7F
7F
7F
7F
7F
7F
7F
7F
7F
7F
7F
7F
7F
7F
7F
7F
7F
7F
7F
7F
7F
7F
7F
7F
7F
7F
7F
7F
7F
7F
7F
38
38
70
E3
FF
FF
7E
ENDCHAR
STARTCHAR 0134
ENCODING 308
SWIDTH 495 0
DWIDTH 22 0
BBX 19 38 2 0
BITMAP
03FF00
07FF80
0FFFC0
1F03E0
1E01E0
000000
000000
1FFFE0
1FFFE0
1FFFE0
1FFFE0
1FFFE0
1FFFE0
1FFFE0
000FE0
000FE0
000FE0
000FE0
000FE0
000FE0
000FE0
000FE0
000FE0
000FE0
000FE0
000FE0
000FE0
000FE0
000FE0
000FE0
FE0FE0
FFFFE0
FFFFE0
FFFFE0
7FFFE0
3FFFE0
3FFFE0
1FFFE0
ENDCHAR
STARTCHAR 0135
ENCODING 309
SWIDTH 495 0
DWIDTH 22 0
BBX 19 38 2 0
BITMAP
03FF00
07FF80
0FFFC0
1F03E0
1E01E0
000000
000000
1FFFE0
1FFFE0
1FFFE0
1FFFE0
1FFFE0
1FFFE0
1FFFE0
000FE0
000FE0
000FE0
000FE0
000FE0
000FE0
000FE0
000FE0
000FE0
000FE0
000FE0
000FE0
000FE0
000FE0
000FE0
000FE0
FE0FE0
FFFFE0
FFFFE0
FFFFE0
7FFFE0
3FFFE0
3FFFE0
1FFFE0
ENDCHAR
STARTCHAR 0136
ENCODING 310
SWIDTH 562 0
DWIDTH 25 0
BBX 22 38 2 -7
BITMAP
FE03FC
FE03FC
FE07FC
FE0FFC
FE0FF8
FE1FF0
FE3FF0
FE3FE0
FE7FC0
FEFF80
FEFF80
FFFF00
FFFE00
FFFC00
FFFC00
FFF800
FFFC00
FFFC00
FFFE00
FFFF00
FEFF80
FE7F80
FE7FC0
FE3FE0
FE1FF0
FE1FF0
FE0FF8
FE07FC
FE07FC
FE03FC
FE01FC
000000
003000
003000
003000
007000
007000
00E000
ENDCHAR
STARTCHAR 0137
ENCODING 311
SWIDTH 562 0
DWIDTH 25 0
BBX 22 38 2 -7
BITMAP
FE03FC
FE03FC
FE07FC
FE0FFC
FE0FF8
FE1FF0
FE3FF0
FE3FE0
FE7FC0
FEFF80
FEFF80
FFFF00
FFFE00
FFFC00
FFFC00
FFF800
FFFC00
FFFC00
FFFE00
FFFF00
FEFF80
FE7F80
FE7FC0
FE3FE0
FE1FF0
FE1FF0
FE0FF8
FE07FC
FE07FC
FE03FC
FE01FC
000000
003000
003000
003000
007000
007000
00E000
ENDCHAR
STARTCHAR 0139
ENCODING 313
SWIDTH 405 0
DWIDTH 18 0
BBX 20 37 -2 1
BITMAP
1FFF00
FFFF00
FFE000
FC0000
000000
000000
0FE000
0FE000
0FE000
0FE000
0FE000
0FE000
0FE000
0FE000
0FE000
0FE000
0FE000
0FE000
0FE000
0FE000
0FE000
0FE000
0FE000
0FE000
0FE000
0FE000
0FE000
0FE000
0FE000
0FE000
0FFFF0
0FFFF0
0FFFF0
0FFFE0
0FFFE0
0FFFC0
0FFF80
ENDCHAR
STARTCHAR 013A
ENCODING 314
SWIDTH 405 0
DWIDTH 18 0
BBX 20 37 -2 1
BITMAP
1FFF00
FFFF00
FFE000
FC0000
000000
000000
0FE000
0FE000
0FE000
0FE000
0FE000
0FE000
0FE000
0FE000
0FE000
0FE000
0FE000
0FE000
0FE000
0FE000
0FE000
0FE000
0FE000
0FE000
0FE000
0FE000
0FE000
0FE000
0FE000
0FE000
0FFFF0
0FFFF0
0FFFF0
0FFFE0
0FFFE0
0FFFC0
0FFF80
ENDCHAR
STARTCHAR 013C
ENCODING 316
SWIDTH 405 0
DWIDTH 18 0
BBX 16 38 2 -7
BITMAP
FE00
FE00
FE00
FE00
FE00
FE00
FE00
FE00
FE00
FE00
FE00
FE00
FE00
FE00
FE00
FE00
FE00
FE00
FE00
FE00
FE00
FE00
FE00
FE00
FFFF
FFFF
FFFF
FFFE
FFFE
FFFC
FFF8
0000
0180
01C0
01C0
0180
0380
0700
ENDCHAR
STARTCHAR 013D
ENCODING 317
SWIDTH 405 0
DWIDTH 18 0
BBX 19 39 -1 0
BITMAP
C01000
E03000
F0F000
7FF000
3FE000
1FC000
000000
000000
1FC000
1FC000
1FC000
1FC000
1FC000
1FC000
1FC000
1FC000
1FC000
1FC000
1FC000
1FC000
1FC000
1FC000
1FC000
1FC000
1FC000
1FC000
1FC000
1FC000
1FC000
1FC000
1FC000
1FC000
1FFFE0
1FFFE0
1FFFE0
1FFFC0
1FFFC0
1FFF80
1FFF00
ENDCHAR
STARTCHAR 013E
ENCODING 318
SWIDTH 405 0
DWIDTH 18 0
BBX 19 39 -1 0
BITMAP
C01000
E03000
F0F000
7FF000
3FE000
1FC000
000000
000000
1FC000
1FC000
1FC000
1FC000
1FC000
1FC000
1FC000
1FC000
1FC000
1FC000
1FC000
1FC000
1FC000
1FC000
1FC000
1FC000
1FC000
1FC000
1FC000
1FC000
1FC000
1FC000
1FC000
1FC000
1FFFE0
1FFFE0
1FFFE0
1FFFC0
1FFFC0
1FFF80
1FFF00
ENDCHAR
STARTCHAR 0141
ENCODING 321
SWIDTH 495 0
DWIDTH 22 0
BBX 20 31 2 0
BITMAP
0FE000
0FE000
0FE000
0FE000
0FE000
0FE000
0FE000
0FE300
0FEF00
0FFF00
0FFF00
0FFF00
0FFC00
0FF800
3FE000
FFE000
FFE000
FFE000
FFE000
CFE000
0FE000
0FE000
0FE000
0FE000
0FFFF0
0FFFF0
0FFFF0
0FFFE0
0FFFE0
0FFFC0
0FFF80
ENDCHAR
STARTCHAR 0142
ENCODING 322
SWIDTH 495 0
DWIDTH 22 0
BBX 20 31 2 0
BITMAP
0FE000
0FE000
0FE000
0FE000
0FE000
0FE000
0FE000
0FE300
0FEF00
0FFF00
0FFF00
0FFF00
0FFC00
0FF800
3FE000
FFE000
FFE000
FFE000
FFE000
CFE000
0FE000
0FE000
0FE000
0FE000
0FFFF0
0FFFF0
0FFFF0
0FFFE0
0FFFE0
0FFFC0
0FFF80
ENDCHAR
STARTCHAR 0143
ENCODING 323
SWIDTH 562 0
DWIDTH 25 0
BBX 22 37 2 1
BITMAP
07FFE0
1FFFE0
1FFC00
1F8000
000000
000000
1E01FC
3E01FC
7F01FC
7F01FC
FF81FC
FF81FC
FFC1FC
FFC1FC
FFE1FC
FFE1FC
FFE1FC
FFF1FC
FFF1FC
FFF9FC
FFF9FC
FEFFFC
FEFFFC
FE7FFC
FE7FFC
FE3FFC
FE3FFC
FE3FFC
FE1FFC
FE1FFC
FE0FFC
FE0FFC
FE07F8
FE07F8
FE03F0
FE03E0
FE01C0
ENDCHAR
STARTCHAR 0144
ENCODING 324
SWIDTH 562 0
DWIDTH 25 0
BBX 22 37 2 1
BITMAP
07FFE0
1FFFE0
1FFC00
1F8000
000000
000000
1E01FC
3E01FC
7F01FC
7F01FC
FF81FC
FF81FC
FFC1FC
FFC1FC
FFE1FC
FFE1FC
FFE1FC
FFF1FC
FFF1FC
FFF9FC
FFF9FC
FEFFFC
FEFFFC
FE7FFC
FE7FFC
FE3FFC
FE3FFC
FE3FFC
FE1FFC
FE1FFC
FE0FFC
FE0FFC
FE07F8
FE07F8
FE03F0
FE03E0
FE01C0
ENDCHAR
STARTCHAR 0145
ENCODING 325
SWIDTH 562 0
DWIDTH 25 0
BBX 22 38 2 -7
BITMAP
1E01FC
3E01FC
7F01FC
7F01FC
FF81FC
FF81FC
FFC1FC
FFC1FC
FFE1FC
FFE1FC
FFE1FC
FFF1FC
FFF1FC
FFF9FC
FFF9FC
FEFFFC
FEFFFC
FE7FFC
FE7FFC
FE3FFC
FE3FFC
FE3FFC
FE1FFC
FE1FFC
FE0FFC
FE0FFC
FE07F8
FE07F8
FE03F0
FE03E0
FE01C0
000000
003800
003800
003800
003800
007000
007000
ENDCHAR
STARTCHAR 0146
ENCODING 326
SWIDTH 562 0
DWIDTH 25 0
BBX 22 38 2 -7
BITMAP
1E01FC
3E01FC
7F01FC
7F01FC
FF81FC
FF81FC
FFC1FC
FFC1FC
FFE1FC
FFE1FC
FFE1FC
FFF1FC
FFF1FC
FFF9FC
FFF9FC
FEFFFC
FEFFFC
FE7FFC
FE7FFC
FE3FFC
FE3FFC
FE3FFC
FE1FFC
FE1FFC
FE0FFC
FE0FFC
FE07F8
FE07F8
FE03F0
FE03E0
FE01C0
000000
003800
003800
003800
003800
007000
007000
ENDCHAR
STARTCHAR 0147
ENCODING 327
SWIDTH 562 0
DWIDTH 25 0
BBX 22 39 2 0
BITMAP
040180
060380
070780
07FF00
03FE00
01FC00
000000
000000
1E01FC
3E01FC
7F01FC
7F01FC
FF81FC
FF81FC
FFC1FC
FFC1FC
FFE1FC
FFE1FC
FFE1FC
FFF1FC
FFF1FC
FFF9FC
FFF9FC
FEFFFC
FEFFFC
FE7FFC
FE7FFC
FE3FFC
FE3FFC
FE3FFC
FE1FFC
FE1FFC
FE0FFC
FE0FFC
FE07F8
FE07F8
FE03F0
FE03E0
FE01C0
ENDCHAR
STARTCHAR 0148
ENCODING 328
SWIDTH 562 0
DWIDTH 25 0
BBX 22 39 2 0
BITMAP
040180
060380
070780
07FF00
03FE00
01FC00
000000
000000
1E01FC
3E01FC
7F01FC
7F01FC
FF81FC
FF81FC
FFC1FC
FFC1FC
FFE1FC
FFE1FC
FFE1FC
FFF1FC
FFF1FC
FFF9FC
FFF9FC
FEFFFC
FEFFFC
FE7FFC
FE7FFC
FE3FFC
FE3FFC
FE3FFC
FE1FFC
FE1FFC
FE0FFC
FE0FFC
FE07F8
FE07F8
FE03F0
FE03E0
FE01C0
ENDCHAR
STARTCHAR 014C
ENCODING 332
SWIDTH 607 0
DWIDTH 27 0
BBX 24 37 2 0
BITMAP
1FFFF0
1FFFF0
1FFFF0
1FFFF0
000000
000000
1FFFF8
3FFFF8
7FFFFC
7FFFFE
FFFFFF
FFFFFF
FFFFFF
FE00FF
FE007F
FE007F
FE007F
FE007F
FE007F
FE007F
FE007F
FE007F
FE007F
FE007F
FE007F
FE007F
FE007F
FE007F
FE007F
FE00FF
FFFFFF
FFFFFF
FFFFFE
7FFFFE
3FFFFC
3FFFF8
1FFFF8
ENDCHAR
STARTCHAR 014D
ENCODING 333
SWIDTH 607 0
DWIDTH 27 0
BBX 24 37 2 0
BITMAP
1FFFF0
1FFFF0
1FFFF0
1FFFF0
000000
000000
1FFFF8
3FFFF8
7FFFFC
7FFFFE
FFFFFF
FFFFFF
FFFFFF
FE00FF
FE007F
FE007F
FE007F
FE007F
FE007F
FE007F
FE007F
FE007F
FE007F
FE007F
FE007F
FE007F
FE007F
FE007F
FE007F
FE00FF
FFFFFF
FFFFFF
FFFFFE
7FFFFE
3FFFFC
3FFFF8
1FFFF8
ENDCHAR
STARTCHAR 0150
ENCODING 336
SWIDTH 607 0
DWIDTH 27 0
BBX 24 40 2 0
BITMAP
0039C0
0039C0
0039C0
007380
007780
00F700
00EF00
000000
000000
1FFFF8
3FFFF8
7FFFFC
7FFFFE
FFFFFF
FFFFFF
FFFFFF
FE00FF
FE007F
FE007F
FE007F
FE007F
FE007F
FE007F
FE007F
FE007F
FE007F
FE007F
FE007F
FE007F
FE007F
FE007F
FE007F
FE00FF
FFFFFF
FFFFFF
FFFFFE
7FFFFE
3FFFFC
3FFFF8
1FFFF8
ENDCHAR
STARTCHAR 0151
ENCODING 337
SWIDTH 607 0
DWIDTH 27 0
BBX 24 40 2 0
BITMAP
0039C0
0039C0
0039C0
007380
007780
00F700
00EF00
000000
000000
1FFFF8
3FFFF8
7FFFFC
7FFFFE
FFFFFF
FFFFFF
FFFFFF
FE00FF
FE007F
FE007F
FE007F
FE007F
FE007F
FE007F
FE007F
FE007F
FE007F
FE007F
FE007F
FE007F
FE007F
FE007F
FE007F
FE00FF
FFFFFF
FFFFFF
FFFFFE
7FFFFE
3FFFFC
3FFFF8
1FFFF8
ENDCHAR
STARTCHAR 0152
ENCODING 338
SWIDTH 855 0
DWIDTH 38 0
BBX 34 31 2 0
BITMAP
1FFFFFFE00
3FFFFFFF00
7FFFFFFF80
7FFFFFFF80
FFFFFFFFC0
FFFFFFFFC0
FFFFFFFFC0
FE03F80FC0
FE03F80000
FE03F80000
FE03F80000
FE03F80000
FE03F80000
FE03FFF800
FE03FFF800
FE03FFF800
FE03FFF800
FE03FFF800
FE03F80000
FE03F80000
FE03F80000
FE03F80000
FE03F80000
FE03F80FC0
FFFFFFFFC0
FFFFFFFFC0
FFFFFFFFC0
7FFFFFFF80
3FFFFFFF80
3FFFFFFF00
1FFFFFFE00
ENDCHAR
STARTCHAR 0153
ENCODING 339
SWIDTH 855 0
DWIDTH 38 0
BBX 34 31 2 0
BITMAP
1FFFFFFE00
3FFFFFFF00
7FFFFFFF80
7FFFFFFF80
FFFFFFFFC0
FFFFFFFFC0
FFFFFFFFC0
FE03F80FC0
FE03F80000
FE03F80000
FE03F80000
FE03F80000
FE03F80000
FE03FFF800
FE03FFF800
FE03FFF800
FE03FFF800
FE03FFF800
FE03F80000
FE03F80000
FE03F80000
FE03F80000
FE03F80000
FE03F80FC0
FFFFFFFFC0
FFFFFFFFC0
FFFFFFFFC0
7FFFFFFF80
3FFFFFFF80
3FFFFFFF00
1FFFFFFE00
ENDCHAR
STARTCHAR 0154
ENCODING 340
SWIDTH 540 0
DWIDTH 24 0
BBX 21 37 2 1
BITMAP
07FFC0
3FFFC0
3FF800
3F0000
000000
000000
FFFF80
FFFFC0
FFFFE0
FFFFE0
FFFFF0
FFFFF0
FFFFF0
FE07F0
FE07F0
FE07F0
FE07F0
FE07F0
FFFFF0
FFFFF0
FFFFE0
FFFFC0
FFFF80
FFFF80
FFFF80
FE3FC0
FE1FC0
FE1FE0
FE1FE0
FE0FE0
FE0FF0
FE0FF0
FE07F8
FE07F8
FE07F8
FE03F8
FE03F8
ENDCHAR
STARTCHAR 0155
ENCODING 341
SWIDTH 540 0
DWIDTH 24 0
BBX 21 37 2 1
BITMAP
07FFC0
3FFFC0
3FF800
3F0000
000000
000000
FFFF80
FFFFC0
FFFFE0
FFFFE0
FFFFF0
FFFFF0
FFFFF0
FE07F0
FE07F0
FE07F0
FE07F0
FE07F0
FFFFF0
FFFFF0
FFFFE0
FFFFC0
FFFF80
FFFF80
FFFF80
FE3FC0
FE1FC0
FE1FE0
FE1FE0
FE0FE0
FE0FF0
FE0FF0
FE07F8
FE07F8
FE07F8
FE03F8
FE03F8
ENDCHAR
STARTCHAR 0156
ENCODING 342
SWIDTH 540 0
DWIDTH 24 0
BBX 21 38 2 -7
BITMAP
FFFF80
FFFFC0
FFFFE0
FFFFE0
FFFFF0
FFFFF0
FFFFF0
FE07F0
FE07F0
FE07F0
FE07F0
FE07F0
FFFFF0
FFFFF0
FFFFE0
FFFFC0
FFFF80
FFFF80
FFFF80
FE3FC0
FE1FC0
FE1FE0
FE1FE0
FE0FE0
FE0FF0
FE0FF0
FE07F8
FE07F8
FE07F8
FE03F8
FE03F8
000000
003000
003000
003000
007000
006000
00E000
ENDCHAR
STARTCHAR 0157
ENCODING 343
SWIDTH 540 0
DWIDTH 24 0
BBX 21 38 2 -7
BITMAP
FFFF80
FFFFC0
FFFFE0
FFFFE0
FFFFF0
FFFFF0
FFFFF0
FE07F0
FE07F0
FE07F0
FE07F0
FE07F0
FFFFF0
FFFFF0
FFFFE0
FFFFC0
FFFF80
FFFF80
FFFF80
FE3FC0
FE1FC0
FE1FE0
FE1FE0
FE0FE0
FE0FF0
FE0FF0
FE07F8
FE07F8
FE07F8
FE03F8
FE03F8
000000
003000
003000
003000
007000
006000
00E000
ENDCHAR
STARTCHAR 0158
ENCODING 344
SWIDTH 540 0
DWIDTH 24 0
BBX 21 39 2 0
BITMAP
180200
1C0E00
1E1E00
0FFE00
07FC00
03F800
000000
000000
FFFF80
FFFFC0
FFFFE0
FFFFE0
FFFFF0
FFFFF0
FFFFF0
FE07F0
FE07F0
FE07F0
FE07F0
FE07F0
FFFFF0
FFFFF0
FFFFE0
FFFFC0
FFFF80
FFFF80
FFFF80
FE3FC0
FE1FC0
FE1FE0
FE1FE0
FE0FE0
FE0FF0
FE0FF0
FE07F8
FE07F8
FE07F8
FE03F8
FE03F8
ENDCHAR
STARTCHAR 0159
ENCODING 345
SWIDTH 540 0
DWIDTH 24 0
BBX 21 39 2 0
BITMAP
180200
1C0E00
1E1E00
0FFE00
07FC00
03F800
000000
000000
FFFF80
FFFFC0
FFFFE0
FFFFE0
FFFFF0
FFFFF0
FFFFF0
FE07F0
FE07F0
FE07F0
FE07F0
FE07F0
FFFFF0
FFFFF0
FFFFE0
FFFFC0
FFFF80
FFFF80
FFFF80
FE3FC0
FE1FC0
FE1FE0
FE1FE0
FE0FE0
FE0FF0
FE0FF0
FE07F8
FE07F8
FE07F8
FE03F8
FE03F8
ENDCHAR
STARTCHAR 015C
ENCODING 348
SWIDTH 540 0
DWIDTH 24 0
BBX 20 38 2 0
BITMAP
3FFE00
7FFF00
FFFF80
F807C0
F003C0
000000
000000
FFFF80
FFFFC0
FFFFE0
FFFFE0
FFFFF0
FFFFF0
FFFFF0
FE03F0
FF0000
FF8000
7FC000
3FE000
1FF000
0FF800
0FFC00
07FE00
03FF00
01FF80
00FFC0
007FE0
003FF0
001FF0
000FF0
FC07F0
FFFFF0
FFFFF0
FFFFF0
7FFFF0
3FFFF0
3FFFF0
1FFFF0
ENDCHAR
STARTCHAR 015D
ENCODING 349
SWIDTH 540 0
DWIDTH 24 0
BBX 20 38 2 0
BITMAP
3FFE00
7FFF00
FFFF80
F807C0
F003C0
000000
000000
FFFF80
FFFFC0
FFFFE0
FFFFE0
FFFFF0
FFFFF0
FFFFF0
FE03F0
FF0000
FF8000
7FC000
3FE000
1FF000
0FF800
0FFC00
07FE00
03FF00
01FF80
00FFC0
007FE0
003FF0
001FF0
000FF0
FC07F0
FFFFF0
FFFFF0
FFFFF0
7FFFF0
3FFFF0
3FFFF0
1FFFF0
ENDCHAR
STARTCHAR 015E
ENCODING 350
SWIDTH 540 0
DWIDTH 24 0
BBX 20 37 2 -6
BITMAP
FFFF80
FFFFC0
FFFFE0
FFFFE0
FFFFF0
FFFFF0
FFFFF0
FE03F0
FF0000
FF8000
7FC000
3FE000
1FF000
0FF800
0FFC00
07FE00
03FF00
01FF80
00FFC0
007FE0
003FF0
001FF0
000FF0
FC07F0
FFFFF0
FFFFF0
FFFFF0
7FFFF0
3FFFF0
3FFFF0
1FFFF0
001C00
003800
007800
007800
01F800
01F000
ENDCHAR
STARTCHAR 015F
ENCODING 351
SWIDTH 540 0
DWIDTH 24 0
BBX 20 37 2 -6
BITMAP
FFFF80
FFFFC0
FFFFE0
FFFFE0
FFFFF0
FFFFF0
FFFFF0
FE03F0
FF0000
FF8000
7FC000
3FE000
1FF000
0FF800
0FFC00
07FE00
03FF00
01FF80
00FFC0
007FE0
003FF0
001FF0
000FF0
FC07F0
FFFFF0
FFFFF0
FFFFF0
7FFFF0
3FFFF0
3FFFF0
1FFFF0
001C00
003800
007800
007800
01F800
01F000
ENDCHAR
STARTCHAR 0160
ENCODING 352
SWIDTH 540 0
DWIDTH 24 0
BBX 20 39 2 0
BITMAP
080300
0C0700
0E0F00
0FFE00
07FC00
03F800
000000
000000
FFFF80
FFFFC0
FFFFE0
FFFFE0
FFFFF0
FFFFF0
FFFFF0
FE03F0
FF0000
FF8000
7FC000
3FE000
1FF000
0FF800
0FFC00
07FE00
03FF00
01FF80
00FFC0
007FE0
003FF0
001FF0
000FF0
FC07F0
FFFFF0
FFFFF0
FFFFF0
7FFFF0
3FFFF0
3FFFF0
1FFFF0
ENDCHAR
STARTCHAR 0161
ENCODING 353
SWIDTH 540 0
DWIDTH 24 0
BBX 20 39 2 0
BITMAP
080200
0C0600
0E0E00
0FFE00
07FC00
03F800
000000
000000
FFFF80
FFFFC0
FFFFE0
FFFFE0
FFFFF0
FFFFF0
FFFFF0
FE03F0
FF0000
FF8000
7FC000
3FE000
1FF000
0FF800
0FFC00
07FE00
03FF00
01FF80
00FFC0
007FE0
003FF0
001FF0
000FF0
FC07F0
FFFFF0
FFFFF0
FFFFF0
7FFFF0
3FFFF0
3FFFF0
1FFFF0
ENDCHAR
STARTCHAR 0162
ENCODING 354
SWIDTH 517 0
DWIDTH 23 0
BBX 24 37 0 -6
BITMAP
1FFFF0
3FFFF8
3FFFFC
7FFFFE
FFFFFE
FFFFFF
FEFE7F
FCFE3F
F0FE1F
00FE00
00FE00
00FE00
00FE00
00FE00
00FE00
00FE00
00FE00
00FE00
00FE00
00FE00
00FE00
00FE00
00FE00
00FE00
00FE00
00FE00
00FE00
00FE00
00FE00
00FE00
00FE00
000E00
000C00
003C00
003C00
007C00
00FC00
ENDCHAR
STARTCHAR 0163
ENCODING 355
SWIDTH 517 0
DWIDTH 23 0
BBX 24 37 0 -6
BITMAP
1FFFF0
3FFFF8
3FFFFC
7FFFFE
FFFFFE
FFFFFF
FEFE7F
FCFE3F
F0FE1F
00FE00
00FE00
00FE00
00FE00
00FE00
00FE00
00FE00
00FE00
00FE00
00FE00
00FE00
00FE00
00FE00
00FE00
00FE00
00FE00
00FE00
00FE00
00FE00
00FE00
00FE00
00FE00
000E00
000C00
003C00
003C00
007C00
00FC00
ENDCHAR
STARTCHAR 0164
ENCODING 356
SWIDTH 517 0
DWIDTH 23 0
BBX 24 39 0 0
BITMAP
0300C0
0381C0
03C3C0
03FF80
01FF00
00FE00
000000
000000
1FFFF0
3FFFF8
3FFFFC
7FFFFE
FFFFFE
FFFFFF
FEFE7F
FCFE3F
F0FE1F
00FE00
00FE00
00FE00
00FE00
00FE00
00FE00
00FE00
00FE00
00FE00
00FE00
00FE00
00FE00
00FE00
00FE00
00FE00
00FE00
00FE00
00FE00
00FE00
00FE00
00FE00
00FE00
ENDCHAR
STARTCHAR 0165
ENCODING 357
SWIDTH 517 0
DWIDTH 23 0
BBX 24 39 0 0
BITMAP
0300C0
0381C0
03C3C0
03FF80
01FF00
00FE00
000000
000000
1FFFF0
3FFFF8
3FFFFC
7FFFFE
FFFFFE
FFFFFF
FEFE7F
FCFE3F
F0FE1F
00FE00
00FE00
00FE00
00FE00
00FE00
00FE00
00FE00
00FE00
00FE00
00FE00
00FE00
00FE00
00FE00
00FE00
00FE00
00FE00
00FE00
00FE00
00FE00
00FE00
00FE00
00FE00
ENDCHAR
STARTCHAR 0166
ENCODING 358
SWIDTH 517 0
DWIDTH 23 0
BBX 24 31 0 0
BITMAP
1FFFF0
3FFFF8
3FFFFC
7FFFFE
FFFFFE
FFFFFF
FEFE7F
FCFE3F
F0FE1F
00FE00
00FE00
00FE00
00FE00
1FFFF0
1FFFF0
1FFFF0
1FFFF0
1FFFF0
00FE00
00FE00
00FE00
00FE00
00FE00
00FE00
00FE00
00FE00
00FE00
00FE00
00FE00
00FE00
00FE00
ENDCHAR
STARTCHAR 0167
ENCODING 359
SWIDTH 517 0
DWIDTH 23 0
BBX 24 31 0 0
BITMAP
1FFFF0
3FFFF8
3FFFFC
7FFFFE
FFFFFE
FFFFFF
FEFE7F
FCFE3F
F0FE1F
00FE00
00FE00
00FE00
00FE00
1FFFF0
1FFFF0
1FFFF0
1FFFF0
1FFFF0
00FE00
00FE00
00FE00
00FE00
00FE00
00FE00
00FE00
00FE00
00FE00
00FE00
00FE00
00FE00
00FE00
ENDCHAR
STARTCHAR 0168
ENCODING 360
SWIDTH 607 0
DWIDTH 27 0
BBX 23 39 2 0
BITMAP
00C000
03F818
0FFF78
1F7FF8
1E0FF8
1801C0
000000
000000
FE007E
FE007E
FE007E
FE007E
FE007E
FE007E
FE007E
FE007E
FE007E
FE007E
FE007E
FE007E
FE007E
FE007E
FE007E
FE007E
FE007E
FE007E
FE007E
FE007E
FE007E
FE007E
FE007E
FE00FE
FFFFFE
FFFFFE
FFFFFE
7FFFFC
3FFFFC
3FFFF8
1FFFF0
ENDCHAR
STARTCHAR 0169
ENCODING 361
SWIDTH 607 0
DWIDTH 27 0
BBX 23 39 2 0
BITMAP
00C000
03F818
0FFF78
1FFFF8
1E0FF8
1801C0
000000
000000
FE007E
FE007E
FE007E
FE007E
FE007E
FE007E
FE007E
FE007E
FE007E
FE007E
FE007E
FE007E
FE007E
FE007E
FE007E
FE007E
FE007E
FE007E
FE007E
FE007E
FE007E
FE007E
FE007E
FE00FE
FFFFFE
FFFFFE
FFFFFE
7FFFFC
3FFFFC
3FFFF8
1FFFF0
ENDCHAR
STARTCHAR 016A
ENCODING 362
SWIDTH 607 0
DWIDTH 27 0
BBX 23 37 2 0
BITMAP
1FFFF0
1FFFF0
1FFFF0
1FFFF0
000000
000000
FE007E
FE007E
FE007E
FE007E
FE007E
FE007E
FE007E
FE007E
FE007E
FE007E
FE007E
FE007E
FE007E
FE007E
FE007E
FE007E
FE007E
FE007E
FE007E
FE007E
FE007E
FE007E
FE007E
FE00FE
FFFFFE
FFFFFE
FFFFFE
7FFFFC
3FFFFC
3FFFF8
1FFFF0
ENDCHAR
STARTCHAR 016B
ENCODING 363
SWIDTH 607 0
DWIDTH 27 0
BBX 23 37 2 0
BITMAP
1FFFF0
1FFFF0
1FFFF0
1FFFF0
000000
000000
FE007E
FE007E
FE007E
FE007E
FE007E
FE007E
FE007E
FE007E
FE007E
FE007E
FE007E
FE007E
FE007E
FE007E
FE007E
FE007E
FE007E
FE007E
FE007E
FE007E
FE007E
FE007E
FE007E
FE00FE
FFFFFE
FFFFFE
FFFFFE
7FFFFC
3FFFFC
3FFFF8
1FFFF0
ENDCHAR
STARTCHAR 016E
ENCODING 366
SWIDTH 607 0
DWIDTH 27 0
BBX 23 39 2 0
BITMAP
007C00
00FE00
00C600
00C600
00FE00
007C00
000000
000000
FE007E
FE007E
FE007E
FE007E
FE007E
FE007E
FE007E
FE007E
FE007E
FE007E
FE007E
FE007E
FE007E
FE007E
FE007E
FE007E
FE007E
FE007E
FE007E
FE007E
FE007E
FE007E
FE007E
FE00FE
FFFFFE
FFFFFE
FFFFFE
7FFFFC
3FFFFC
3FFFF8
1FFFF0
ENDCHAR
STARTCHAR 016F
ENCODING 367
SWIDTH 607 0
DWIDTH 27 0
BBX 23 39 2 0
BITMAP
007C00
00FE00
00C600
00C600
00FE00
007C00
000000
000000
FE007E
FE007E
FE007E
FE007E
FE007E
FE007E
FE007E
FE007E
FE007E
FE007E
FE007E
FE007E
FE007E
FE007E
FE007E
FE007E
FE007E
FE007E
FE007E
FE007E
FE007E
FE007E
FE007E
FE00FE
FFFFFE
FFFFFE
FFFFFE
7FFFFC
3FFFFC
3FFFF8
1FFFF0
ENDCHAR
STARTCHAR 0170
ENCODING 368
SWIDTH 607 0
DWIDTH 27 0
BBX 23 40 2 0
BITMAP
003980
003980
003B80
007380
007700
00E700
00EE00
000000
000000
FE007E
FE007E
FE007E
FE007E
FE007E
FE007E
FE007E
FE007E
FE007E
FE007E
FE007E
FE007E
FE007E
FE007E
FE007E
FE007E
FE007E
FE007E
FE007E
FE007E
FE007E
FE007E
FE007E
FE00FE
FFFFFE
FFFFFE
FFFFFE
7FFFFC
3FFFFC
3FFFF8
1FFFF0
ENDCHAR
STARTCHAR 0171
ENCODING 369
SWIDTH 607 0
DWIDTH 27 0
BBX 23 40 2 0
BITMAP
003980
003980
003B80
007380
007700
00E700
00EE00
000000
000000
FE007E
FE007E
FE007E
FE007E
FE007E
FE007E
FE007E
FE007E
FE007E
FE007E
FE007E
FE007E
FE007E
FE007E
FE007E
FE007E
FE007E
FE007E
FE007E
FE007E
FE007E
FE007E
FE007E
FE00FE
FFFFFE
FFFFFE
FFFFFE
7FFFFC
3FFFFC
3FFFF8
1FFFF0
ENDCHAR
STARTCHAR 0172
ENCODING 370
SWIDTH 607 0
DWIDTH 27 0
BBX 23 38 2 -7
BITMAP
FE007E
FE007E
FE007E
FE007E
FE007E
FE007E
FE007E
FE007E
FE007E
FE007E
FE007E
FE007E
FE007E
FE007E
FE007E
FE007E
FE007E
FE007E
FE007E
FE007E
FE007E
FE007E
FE007E
FE00FE
FFFFFE
FFFFFE
FFFFFE
7FFFFC
3FFFFC
3FFFF8
1FFFF0
003800
007000
00E000
00E600
00FE00
00FE00
00FE00
ENDCHAR
STARTCHAR 0173
ENCODING 371
SWIDTH 607 0
DWIDTH 27 0
BBX 23 38 2 -7
BITMAP
FE007E
FE007E
FE007E
FE007E
FE007E
FE007E
FE007E
FE007E
FE007E
FE007E
FE007E
FE007E
FE007E
FE007E
FE007E
FE007E
FE007E
FE007E
FE007E
FE007E
FE007E
FE007E
FE007E
FE00FE
FFFFFE
FFFFFE
FFFFFE
7FFFFC
3FFFFC
3FFFF8
1FFFF0
003800
007000
00E000
00E600
00FE00
00FE00
00FE00
ENDCHAR
STARTCHAR 0174
ENCODING 372
SWIDTH 877 0
DWIDTH 39 0
BBX 35 38 2 0
BITMAP
001FFF0000
003FFF8000
007FFFC000
00FC07E000
00F003E000
0000000000
0000000000
FE00000FE0
FE00000FE0
FE00000FE0
FE00000FE0
FF00000FE0
FF00000FE0
FF00001FE0
7F00001FE0
7F00001FC0
7F03F81FC0
7F83FC1FC0
3F83FC1FC0
3F87FC3FC0
3F87FC3F80
3F87FE3F80
3FC7FE3F80
1FCFBE3F80
1FCFBE7F80
1FCF9F7F00
1FCF9F7F00
1FFF9FFF00
0FFF1FFF00
0FFF1FFF00
0FFF0FFE00
0FFF0FFE00
0FFF0FFE00
07FE0FFE00
07FE0FFE00
07FE07FC00
07FE07FC00
03FC07FC00
ENDCHAR
STARTCHAR 0175
ENCODING 373
SWIDTH 877 0
DWIDTH 39 0
BBX 35 38 2 0
BITMAP
001FFF0000
003FFF8000
007FFFC000
00FC07E000
00F003E000
0000000000
0000000000
FE00000FE0
FE00000FE0
FE00000FE0
FE00000FE0
FF00000FE0
FF00000FE0
FF00001FE0
7F00001FE0
7F00001FC0
7F03F81FC0
7F83FC1FC0
3F83FC1FC0
3F87FC3FC0
3F87FC3F80
3F87FE3F80
3FC7FE3F80
1FCFBE3F80
1FCFBE7F80
1FCF9F7F00
1FCF9F7F00
1FFF9FFF00
0FFF1FFF00
0FFF1FFF00
0FFF0FFE00
0FFF0FFE00
0FFF0FFE00
07FE0FFE00
07FE0FFE00
07FE07FC00
07FE07FC00
03FC07FC00
ENDCHAR
STARTCHAR 0176
ENCODING 374
SWIDTH 450 0
DWIDTH 20 0
BBX 21 38 0 0
BITMAP
0FFF80
1FFFC0
3FFFE0
7E03F0
7C00F0
000000
000000
FE03F8
FE03F8
FE03F8
FF07F8
7F07F0
7F07F0
3F8FE0
3F8FE0
3F8FC0
1FDFC0
1FDFC0
0FDF80
0FFF80
07FF00
07FF00
03FE00
03FE00
03FE00
01FC00
01FC00
01FC00
01FC00
01FC00
01FC00
01FC00
01FC00
01FC00
01FC00
01FC00
01FC00
01FC00
ENDCHAR
STARTCHAR 0177
ENCODING 375
SWIDTH 450 0
DWIDTH 20 0
BBX 21 38 0 0
BITMAP
0FFF80
1FFFC0
3FFFE0
7E03F0
7C00F0
000000
000000
FE03F8
FE03F8
FE03F8
FF07F8
7F07F0
7F07F0
3F8FE0
3F8FE0
3F8FC0
1FDFC0
1FDFC0
0FDF80
0FFF80
07FF00
07FF00
03FE00
03FE00
03FE00
01FC00
01FC00
01FC00
01FC00
01FC00
01FC00
01FC00
01FC00
01FC00
01FC00
01FC00
01FC00
01FC00
ENDCHAR
STARTCHAR 0178
ENCODING 376
SWIDTH 450 0
DWIDTH 20 0
BBX 21 37 0 0
BITMAP
078F00
078F00
078F00
078F00
000000
000000
FE03F8
FE03F8
FE03F8
FF07F8
7F07F0
7F07F0
3F8FE0
3F8FE0
3F8FC0
1FDFC0
1FDFC0
0FDF80
0FFF80
07FF00
07FF00
03FE00
03FE00
03FE00
01FC00
01FC00
01FC00
01FC00
01FC00
01FC00
01FC00
01FC00
01FC00
01FC00
01FC00
01FC00
01FC00
ENDCHAR
STARTCHAR 017B
ENCODING 379
SWIDTH 562 0
DWIDTH 25 0
BBX 21 38 2 0
BITMAP
00F800
00F800
00F800
00F800
00F800
000000
000000
FFFFC0
FFFFE0
FFFFF0
FFFFF8
FFFFF8
FFFFF8
7FFFF0
001FF0
003FE0
003FE0
007FC0
007F80
00FF80
01FF00
01FF00
03FE00
03FC00
07FC00
0FF800
0FF800
1FF000
1FE000
3FE000
7FC000
7FFFF8
FFFFF8
FFFFF8
7FFFF8
3FFFF8
3FFFF8
1FFFF8
ENDCHAR
STARTCHAR 017C
ENCODING 380
SWIDTH 562 0
DWIDTH 25 0
BBX 21 40 2 0
BITMAP
007800
00F800
00F800
00F800
00F800
000000
000000
000000
000000
FFFFC0
FFFFE0
FFFFF0
FFFFF8
FFFFF8
FFFFF8
7FFFF0
001FF0
003FE0
003FE0
007FC0
007F80
00FF80
01FF00
01FF00
03FE00
03FC00
07FC00
0FF800
0FF800
1FF000
1FE000
3FE000
7FC000
7FFFF8
FFFFF8
FFFFF8
7FFFF8
3FFFF8
3FFFF8
1FFFF8
ENDCHAR
STARTCHAR 017D
ENCODING 381
SWIDTH 562 0
DWIDTH 25 0
BBX 21 39 2 0
BITMAP
040100
060300
070700
07FF00
03FE00
01FC00
000000
000000
FFFFC0
FFFFE0
FFFFF0
FFFFF8
FFFFF8
FFFFF8
7FFFF0
001FF0
003FE0
003FE0
007FC0
007F80
00FF80
01FF00
01FF00
03FE00
03FC00
07FC00
0FF800
0FF800
1FF000
1FE000
3FE000
7FC000
7FFFF8
FFFFF8
FFFFF8
7FFFF8
3FFFF8
3FFFF8
1FFFF8
ENDCHAR
STARTCHAR 017E
ENCODING 382
SWIDTH 562 0
DWIDTH 25 0
BBX 21 39 2 0
BITMAP
040180
060380
070780
07FF00
03FE00
01FC00
000000
000000
FFFFC0
FFFFE0
FFFFF0
FFFFF8
FFFFF8
FFFFF8
7FFFF0
001FF0
003FE0
003FE0
007FC0
007F80
00FF80
01FF00
01FF00
03FE00
03FC00
07FC00
0FF800
0FF800
1FF000
1FE000
3FE000
7FC000
7FFFF8
FFFFF8
FFFFF8
7FFFF8
3FFFF8
3FFFF8
1FFFF8
ENDCHAR
STARTCHAR 01A0
ENCODING 416
SWIDTH 607 0
DWIDTH 27 0
BBX 26 34 2 0
BITMAP
00000380
000003C0
000007C0
1FFFFFC0
3FFFFF80
7FFFFF00
7FFFFE00
FFFFFF00
FFFFFF00
FFFFFF00
FE00FF00
FE007F00
FE007F00
FE007F00
FE007F00
FE007F00
FE007F00
FE007F00
FE007F00
FE007F00
FE007F00
FE007F00
FE007F00
FE007F00
FE007F00
FE007F00
FE00FF00
FFFFFF00
FFFFFF00
FFFFFE00
7FFFFE00
3FFFFC00
3FFFF800
1FFFF800
ENDCHAR
STARTCHAR 01A1
ENCODING 417
SWIDTH 607 0
DWIDTH 27 0
BBX 26 34 2 0
BITMAP
00000380
000003C0
000007C0
1FFFFFC0
3FFFFF80
7FFFFF00
7FFFFE00
FFFFFF00
FFFFFF00
FFFFFF00
FE00FF00
FE007F00
FE007F00
FE007F00
FE007F00
FE007F00
FE007F00
FE007F00
FE007F00
FE007F00
FE007F00
FE007F00
FE007F00
FE007F00
FE007F00
FE007F00
FE00FF00
FFFFFF00
FFFFFF00
FFFFFE00
7FFFFE00
3FFFFC00
3FFFF800
1FFFF800
ENDCHAR
STARTCHAR 01AF
ENCODING 431
SWIDTH 607 0
DWIDTH 27 0
BBX 25 34 2 0
BITMAP
00000780
00000780
00000780
FE007F80
FE007F80
FE007E00
FE007E00
FE007E00
FE007E00
FE007E00
FE007E00
FE007E00
FE007E00
FE007E00
FE007E00
FE007E00
FE007E00
FE007E00
FE007E00
FE007E00
FE007E00
FE007E00
FE007E00
FE007E00
FE007E00
FE007E00
FE00FE00
FFFFFE00
FFFFFE00
FFFFFE00
7FFFFC00
3FFFFC00
3FFFF800
1FFFF000
ENDCHAR
STARTCHAR 01B0
ENCODING 432
SWIDTH 607 0
DWIDTH 27 0
BBX 25 34 2 0
BITMAP
00000780
00000780
00000780
FE007F80
FE007F80
FE007E00
FE007E00
FE007E00
FE007E00
FE007E00
FE007E00
FE007E00
FE007E00
FE007E00
FE007E00
FE007E00
FE007E00
FE007E00
FE007E00
FE007E00
FE007E00
FE007E00
FE007E00
FE007E00
FE007E00
FE007E00
FE00FE00
FFFFFE00
FFFFFE00
FFFFFE00
7FFFFC00
3FFFFC00
3FFFF800
1FFFF000
ENDCHAR
STARTCHAR 0218
ENCODING 536
SWIDTH 540 0
DWIDTH 24 0
BBX 20 38 2 -7
BITMAP
FFFF80
FFFFC0
FFFFE0
FFFFE0
FFFFF0
FFFFF0
FFFFF0
FE03F0
FF0000
FF8000
7FC000
3FE000
1FF000
0FF800
0FFC00
07FE00
03FF00
01FF80
00FFC0
007FE0
003FF0
001FF0
000FF0
FC07F0
FFFFF0
FFFFF0
FFFFF0
7FFFF0
3FFFF0
3FFFF0
1FFFF0
000000
003000
003000
003000
007000
007000
00E000
ENDCHAR
STARTCHAR 0219
ENCODING 537
SWIDTH 540 0
DWIDTH 24 0
BBX 20 38 2 -7
BITMAP
FFFF80
FFFFC0
FFFFE0
FFFFE0
FFFFF0
FFFFF0
FFFFF0
FE03F0
FF0000
FF8000
7FC000
3FE000
1FF000
0FF800
0FFC00
07FE00
03FF00
01FF80
00FFC0
007FE0
003FF0
001FF0
000FF0
FC07F0
FFFFF0
FFFFF0
FFFFF0
7FFFF0
3FFFF0
3FFFF0
1FFFF0
000000
003000
003000
003000
007000
007000
00E000
ENDCHAR
STARTCHAR 021A
ENCODING 538
SWIDTH 517 0
DWIDTH 23 0
BBX 24 38 0 -7
BITMAP
1FFFF0
3FFFF8
3FFFFC
7FFFFE
FFFFFE
FFFFFF
FEFE7F
FCFE3F
F0FE1F
00FE00
00FE00
00FE00
00FE00
00FE00
00FE00
00FE00
00FE00
00FE00
00FE00
00FE00
00FE00
00FE00
00FE00
00FE00
00FE00
00FE00
00FE00
00FE00
00FE00
00FE00
00FE00
000000
001800
001800
001800
003800
003800
007000
ENDCHAR
STARTCHAR 021B
ENCODING 539
SWIDTH 517 0
DWIDTH 23 0
BBX 24 38 0 -7
BITMAP
1FFFF0
3FFFF8
3FFFFC
7FFFFE
FFFFFE
FFFFFF
FEFE7F
FCFE3F
F0FE1F
00FE00
00FE00
00FE00
00FE00
00FE00
00FE00
00FE00
00FE00
00FE00
00FE00
00FE00
00FE00
00FE00
00FE00
00FE00
00FE00
00FE00
00FE00
00FE00
00FE00
00FE00
00FE00
000000
001800
001800
001800
003800
003800
007000
ENDCHAR
STARTCHAR 0259
ENCODING 601
SWIDTH 540 0
DWIDTH 24 0
BBX 21 31 2 0
BITMAP
1FFFF8
3FFFF8
7FFFF8
7FFFF8
FFFFF8
FFFFF8
FFFFF8
FC03F8
0003F8
0003F8
0003F8
0003F8
0003F8
FFE3F8
FFE3F8
FFE3F8
FFE3F8
FFE3F8
FFE3F8
FFE3F8
FE03F8
FE03F8
FE03F8
FE03F8
FFFFF8
FFFFF8
FFFFF8
FFFFF8
FFFFF8
FFFFF8
F7FFF8
ENDCHAR
STARTCHAR 02C6
ENCODING 710
SWIDTH 427 0
DWIDTH 19 0
BBX 18 5 1 33
BITMAP
1FFE00
7FFF00
FFFFC0
F807C0
F003C0
ENDCHAR
STARTCHAR 02C7
ENCODING 711
SWIDTH 292 0
DWIDTH 13 0
BBX 12 6 1 33
BITMAP
C030
E070
F0F0
FFE0
7FC0
3F80
ENDCHAR
STARTCHAR 02D8
ENCODING 728
SWIDTH 427 0
DWIDTH 19 0
BBX 18 5 1 33
BITMAP
F003C0
F807C0
7FFF80
3FFF00
1FFE00
ENDCHAR
STARTCHAR 02D9
ENCODING 729
SWIDTH 157 0
DWIDTH 7 0
BBX 5 5 1 35
BITMAP
78
F8
F8
F8
F8
ENDCHAR
STARTCHAR 02DA
ENCODING 730
SWIDTH 180 0
DWIDTH 8 0
BBX 6 6 1 33
BITMAP
FC
FC
CC
CC
FC
FC
ENDCHAR
STARTCHAR 02DB
ENCODING 731
SWIDTH 202 0
DWIDTH 9 0
BBX 8 7 1 -7
BITMAP
38
70
70
E7
FF
FE
FE
ENDCHAR
STARTCHAR 02DC
ENCODING 732
SWIDTH 427 0
DWIDTH 19 0
BBX 18 6 1 33
BITMAP
060000
1FC040
7FF9C0
FFFFC0
F07FC0
E00F00
ENDCHAR
STARTCHAR 02DD
ENCODING 733
SWIDTH 247 0
DWIDTH 11 0
BBX 9 7 1 33
BITMAP
3980
3980
3B80
7380
7700
E700
EE00
ENDCHAR
STARTCHAR 1E20
ENCODING 7712
SWIDTH 540 0
DWIDTH 24 0
BBX 21 37 2 0
BITMAP
FFFFC0
FFFFC0
FFFFC0
FFFFC0
000000
000000
FFFFC0
FFFFC0
FFFFE0
FFFFF0
FFFFF8
FFFFF8
FFFFF8
FE01F8
FE0000
FE0000
FE0000
FE0000
FE0000
FE3FF8
FE3FF8
FE3FF8
FE3FF8
FE3FF8
FE3FF8
FE3FF8
FE03F8
FE03F8
FE03F8
FE03F8
FFFFF8
FFFFF8
FFFFF8
FFFFF8
FFFFF8
FFFFF8
FFFF78
ENDCHAR
STARTCHAR 1E3E
ENCODING 7742
SWIDTH 675 0
DWIDTH 30 0
BBX 27 37 2 1
BITMAP
00FFFC00
03FFFC00
03FF8000
03F00000
00000000
00000000
1FE0FF00
3FE0FF80
7FE0FF80
7FE0FFC0
FFE1FFE0
FFF1FFE0
FFF1FFE0
FFF1FFE0
FFF1FFE0
FFF1FFE0
FEF1EFE0
FEFBEFE0
FEFBEFE0
FEFBEFE0
FEFBCFE0
FE7BCFE0
FE7BCFE0
FE7FCFE0
FE7FCFE0
FE7FCFE0
FE7F8FE0
FE3F8FE0
FE3F8FE0
FE1F0FE0
FE000FE0
FE000FE0
FE000FE0
FE000FE0
FE000FE0
FE000FE0
FE000FE0
ENDCHAR
STARTCHAR 1E3F
ENCODING 7743
SWIDTH 675 0
DWIDTH 30 0
BBX 27 37 2 1
BITMAP
00FFFC00
03FFFC00
03FF8000
03F00000
00000000
00000000
1FE0FF00
3FE0FF80
7FE0FF80
7FE0FFC0
FFE1FFE0
FFF1FFE0
FFF1FFE0
FFF1FFE0
FFF1FFE0
FFF1FFE0
FEF1EFE0
FEFBEFE0
FEFBEFE0
FEFBEFE0
FEFBCFE0
FE7BCFE0
FE7BCFE0
FE7FCFE0
FE7FCFE0
FE7FCFE0
FE7F8FE0
FE3F8FE0
FE3F8FE0
FE1F0FE0
FE000FE0
FE000FE0
FE000FE0
FE000FE0
FE000FE0
FE000FE0
FE000FE0
ENDCHAR
STARTCHAR 1E44
ENCODING 7748
SWIDTH 562 0
DWIDTH 25 0
BBX 22 38 2 0
BITMAP
007800
00F800
00F800
00F800
00F800
000000
000000
1E01FC
3E01FC
7F01FC
7F01FC
FF81FC
FF81FC
FFC1FC
FFC1FC
FFE1FC
FFE1FC
FFE1FC
FFF1FC
FFF1FC
FFF9FC
FFF9FC
FEFFFC
FEFFFC
FE7FFC
FE7FFC
FE3FFC
FE3FFC
FE3FFC
FE1FFC
FE1FFC
FE0FFC
FE0FFC
FE07F8
FE07F8
FE03F0
FE03E0
FE01C0
ENDCHAR
STARTCHAR 1E45
ENCODING 7749
SWIDTH 562 0
DWIDTH 25 0
BBX 22 38 2 0
BITMAP
007800
00F800
00F800
00F800
00F800
000000
000000
1E01FC
3E01FC
7F01FC
7F01FC
FF81FC
FF81FC
FFC1FC
FFC1FC
FFE1FC
FFE1FC
FFE1FC
FFF1FC
FFF1FC
FFF9FC
FFF9FC
FEFFFC
FEFFFC
FE7FFC
FE7FFC
FE3FFC
FE3FFC
FE3FFC
FE1FFC
FE1FFC
FE0FFC
FE0FFC
FE07F8
FE07F8
FE03F0
FE03E0
FE01C0
ENDCHAR
STARTCHAR 1E80
ENCODING 7808
SWIDTH 877 0
DWIDTH 39 0
BBX 35 38 2 0
BITMAP
0030000000
003F800000
003FFC0000
003FFF8000
0000FF8000
0000000000
0000000000
FE00000FE0
FE00000FE0
FE00000FE0
FE00000FE0
FF00000FE0
FF00000FE0
FF00001FE0
7F00001FE0
7F00001FC0
7F03F81FC0
7F83FC1FC0
3F83FC1FC0
3F87FC3FC0
3F87FC3F80
3F87FE3F80
3FC7FE3F80
1FCFBE3F80
1FCFBE7F80
1FCF9F7F00
1FCF9F7F00
1FFF9FFF00
0FFF1FFF00
0FFF1FFF00
0FFF0FFE00
0FFF0FFE00
0FFF0FFE00
07FE0FFE00
07FE0FFE00
07FE07FC00
07FE07FC00
03FC07FC00
ENDCHAR
STARTCHAR 1E81
ENCODING 7809
SWIDTH 877 0
DWIDTH 39 0
BBX 35 38 2 0
BITMAP
0030000000
003F800000
003FFC0000
003FFF8000
0000FF8000
0000000000
0000000000
FE00000FE0
FE00000FE0
FE00000FE0
FE00000FE0
FF00000FE0
FF00000FE0
FF00001FE0
7F00001FE0
7F00001FC0
7F03F81FC0
7F83FC1FC0
3F83FC1FC0
3F87FC3FC0
3F87FC3F80
3F87FE3F80
3FC7FE3F80
1FCFBE3F80
1FCFBE7F80
1FCF9F7F00
1FCF9F7F00
1FFF9FFF00
0FFF1FFF00
0FFF1FFF00
0FFF0FFE00
0FFF0FFE00
0FFF0FFE00
07FE0FFE00
07FE0FFE00
07FE07FC00
07FE07FC00
03FC07FC00
ENDCHAR
STARTCHAR 1E82
ENCODING 7810
SWIDTH 877 0
DWIDTH 39 0
BBX 35 37 2 1
BITMAP
000FFF8000
003FFF8000
003FF80000
003F000000
0000000000
0000000000
FE00000FE0
FE00000FE0
FE00000FE0
FE00000FE0
FF00000FE0
FF00000FE0
FF00001FE0
7F00001FE0
7F00001FC0
7F03F81FC0
7F83FC1FC0
3F83FC1FC0
3F87FC3FC0
3F87FC3F80
3F87FE3F80
3FC7FE3F80
1FCFBE3F80
1FCFBE7F80
1FCF9F7F00
1FCF9F7F00
1FFF9FFF00
0FFF1FFF00
0FFF1FFF00
0FFF0FFE00
0FFF0FFE00
0FFF0FFE00
07FE0FFE00
07FE0FFE00
07FE07FC00
07FE07FC00
03FC07FC00
ENDCHAR
STARTCHAR 1E83
ENCODING 7811
SWIDTH 877 0
DWIDTH 39 0
BBX 35 37 2 1
BITMAP
000FFF8000
003FFF8000
003FF80000
003F000000
0000000000
0000000000
FE00000FE0
FE00000FE0
FE00000FE0
FE00000FE0
FF00000FE0
FF00000FE0
FF00001FE0
7F00001FE0
7F00001FC0
7F03F81FC0
7F83FC1FC0
3F83FC1FC0
3F87FC3FC0
3F87FC3F80
3F87FE3F80
3FC7FE3F80
1FCFBE3F80
1FCFBE7F80
1FCF9F7F00
1FCF9F7F00
1FFF9FFF00
0FFF1FFF00
0FFF1FFF00
0FFF0FFE00
0FFF0FFE00
0FFF0FFE00
07FE0FFE00
07FE0FFE00
07FE07FC00
07FE07FC00
03FC07FC00
ENDCHAR
STARTCHAR 1E84
ENCODING 7812
SWIDTH 877 0
DWIDTH 39 0
BBX 35 37 2 0
BITMAP
000F1E0000
000F1E0000
000F1E0000
000F1E0000
0000000000
0000000000
FE00000FE0
FE00000FE0
FE00000FE0
FE00000FE0
FF00000FE0
FF00000FE0
FF00001FE0
7F00001FE0
7F00001FC0
7F03F81FC0
7F83FC1FC0
3F83FC1FC0
3F87FC3FC0
3F87FC3F80
3F87FE3F80
3FC7FE3F80
1FCFBE3F80
1FCFBE7F80
1FCF9F7F00
1FCF9F7F00
1FFF9FFF00
0FFF1FFF00
0FFF1FFF00
0FFF0FFE00
0FFF0FFE00
0FFF0FFE00
07FE0FFE00
07FE0FFE00
07FE07FC00
07FE07FC00
03FC07FC00
ENDCHAR
STARTCHAR 1E85
ENCODING 7813
SWIDTH 877 0
DWIDTH 39 0
BBX 35 37 2 0
BITMAP
000F1E0000
000F1E0000
000F1E0000
000F1E0000
0000000000
0000000000
FE00000FE0
FE00000FE0
FE00000FE0
FE00000FE0
FF00000FE0
FF00000FE0
FF00001FE0
7F00001FE0
7F00001FC0
7F03F81FC0
7F83FC1FC0
3F83FC1FC0
3F87FC3FC0
3F87FC3F80
3F87FE3F80
3FC7FE3F80
1FCFBE3F80
1FCFBE7F80
1FCF9F7F00
1FCF9F7F00
1FFF9FFF00
0FFF1FFF00
0FFF1FFF00
0FFF0FFE00
0FFF0FFE00
0FFF0FFE00
07FE0FFE00
07FE0FFE00
07FE07FC00
07FE07FC00
03FC07FC00
ENDCHAR
STARTCHAR 1EA0
ENCODING 7840
SWIDTH 585 0
DWIDTH 26 0
BBX 25 35 1 -4
BITMAP
03FFC000
07FFE000
07FFE000
07FFE000
07FFE000
07FFF000
0FFFF000
0FC3F000
0FC3F000
0FC3F000
0F83F800
1F81F800
1F81F800
1F81F800
1F81F800
1F81FC00
3F81FC00
3F00FC00
3F00FC00
3F81FC00
3FFFFE00
7FFFFE00
7FFFFE00
7FFFFE00
7E7E7E00
7E007F00
FE007F00
FE007F00
FE007F00
FE007F00
FC003F80
00000000
00000000
007E0000
007E0000
ENDCHAR
STARTCHAR 1EA1
ENCODING 7841
SWIDTH 585 0
DWIDTH 26 0
BBX 25 35 1 -4
BITMAP
03FFC000
07FFE000
07FFE000
07FFE000
07FFE000
07FFF000
0FFFF000
0FC3F000
0FC3F000
0FC3F000
0F83F800
1F81F800
1F81F800
1F81F800
1F81F800
1F81FC00
3F81FC00
3F00FC00
3F00FC00
3F81FC00
3FFFFE00
7FFFFE00
7FFFFE00
7FFFFE00
7E7E7E00
7E007F00
FE007F00
FE007F00
FE007F00
FE007F00
FC003F80
00000000
00000000
007E0000
007E0000
ENDCHAR
STARTCHAR 1EA2
ENCODING 7842
SWIDTH 585 0
DWIDTH 26 0
BBX 25 40 1 0
BITMAP
007E0000
00FF0000
00FF0000
00C70000
000E0000
001C0000
001C0000
00000000
00000000
03FFC000
07FFE000
07FFE000
07FFE000
07FFE000
07FFF000
0FFFF000
0FC3F000
0FC3F000
0FC3F000
0F83F800
1F81F800
1F81F800
1F81F800
1F81F800
1F81FC00
3F81FC00
3F00FC00
3F00FC00
3F81FC00
3FFFFE00
7FFFFE00
7FFFFE00
7FFFFE00
7E7E7E00
7E007F00
FE007F00
FE007F00
FE007F00
FE007F00
FC003F80
ENDCHAR
STARTCHAR 1EA3
ENCODING 7843
SWIDTH 585 0
DWIDTH 26 0
BBX 25 40 1 0
BITMAP
007E0000
00FF0000
00FF0000
00C70000
000E0000
001C0000
001C0000
00000000
00000000
03FFC000
07FFE000
07FFE000
07FFE000
07FFE000
07FFF000
0FFFF000
0FC3F000
0FC3F000
0FC3F000
0F83F800
1F81F800
1F81F800
1F81F800
1F81F800
1F81FC00
3F81FC00
3F00FC00
3F00FC00
3F81FC00
3FFFFE00
7FFFFE00
7FFFFE00
7FFFFE00
7E7E7E00
7E007F00
FE007F00
FE007F00
FE007F00
FE007F00
FC003F80
ENDCHAR
STARTCHAR 1EA4
ENCODING 7844
SWIDTH 585 0
DWIDTH 26 0
BBX 25 45 1 0
BITMAP
00007000
03FFF000
0FFFE000
0FFC0000
0F800000
00000000
00000000
07FFC000
0FFFE000
1FFFF000
1F00F800
1E007800
00000000
00000000
03FFC000
07FFE000
07FFE000
07FFE000
07FFE000
07FFF000
0FFFF000
0FC3F000
0FC3F000
0FC3F000
0F83F800
1F81F800
1F81F800
1F81F800
1F81F800
1F81FC00
3F81FC00
3F00FC00
3F00FC00
3F81FC00
3FFFFE00
7FFFFE00
7FFFFE00
7FFFFE00
7E7E7E00
7E007F00
FE007F00
FE007F00
FE007F00
FE007F00
FC003F80
ENDCHAR
STARTCHAR 1EA5
ENCODING 7845
SWIDTH 585 0
DWIDTH 26 0
BBX 25 45 1 0
BITMAP
00007000
03FFF000
0FFFE000
0FFC0000
0F800000
00000000
00000000
07FFC000
0FFFE000
1FFFF000
1F00F800
1E007800
00000000
00000000
03FFC000
07FFE000
07FFE000
07FFE000
07FFE000
07FFF000
0FFFF000
0FC3F000
0FC3F000
0FC3F000
0F83F800
1F81F800
1F81F800
1F81F800
1F81F800
1F81FC00
3F81FC00
3F00FC00
3F00FC00
3F81FC00
3FFFFE00
7FFFFE00
7FFFFE00
7FFFFE00
7E7E7E00
7E007F00
FE007F00
FE007F00
FE007F00
FE007F00
FC003F80
ENDCHAR
STARTCHAR 1EA6
ENCODING 7846
SWIDTH 585 0
DWIDTH 26 0
BBX 25 45 1 0
BITMAP
0E000000
0FF00000
0FFF8000
07FFF000
0007F000
00000000
00000000
07FFC000
0FFFE000
1FFFF000
1F00F800
1E007800
00000000
00000000
03FFC000
07FFE000
07FFE000
07FFE000
07FFE000
07FFF000
0FFFF000
0FC3F000
0FC3F000
0FC3F000
0F83F800
1F81F800
1F81F800
1F81F800
1F81F800
1F81FC00
3F81FC00
3F00FC00
3F00FC00
3F81FC00
3FFFFE00
7FFFFE00
7FFFFE00
7FFFFE00
7E7E7E00
7E007F00
FE007F00
FE007F00
FE007F00
FE007F00
FC003F80
ENDCHAR
STARTCHAR 1EA7
ENCODING 7847
SWIDTH 585 0
DWIDTH 26 0
BBX 25 45 1 0
BITMAP
0E000000
0FF00000
0FFF8000
07FFF000
0007F000
00000000
00000000
07FFC000
0FFFE000
1FFFF000
1F00F800
1E007800
00000000
00000000
03FFC000
07FFE000
07FFE000
07FFE000
07FFE000
07FFF000
0FFFF000
0FC3F000
0FC3F000
0FC3F000
0F83F800
1F81F800
1F81F800
1F81F800
1F81F800
1F81FC00
3F81FC00
3F00FC00
3F00FC00
3F81FC00
3FFFFE00
7FFFFE00
7FFFFE00
7FFFFE00
7E7E7E00
7E007F00
FE007F00
FE007F00
FE007F00
FE007F00
FC003F80
ENDCHAR
STARTCHAR 1EA8
ENCODING 7848
SWIDTH 585 0
DWIDTH 26 0
BBX 25 47 1 0
BITMAP
007F0000
00FF0000
00E70000
00CE0000
001E0000
001C0000
001C0000
00000000
00000000
07FFC000
0FFFE000
1FFFF000
1F00F800
1E007800
00000000
00000000
03FFC000
07FFE000
07FFE000
07FFE000
07FFE000
07FFF000
0FFFF000
0FC3F000
0FC3F000
0FC3F000
0F83F800
1F81F800
1F81F800
1F81F800
1F81F800
1F81FC00
3F81FC00
3F00FC00
3F00FC00
3F81FC00
3FFFFE00
7FFFFE00
7FFFFE00
7FFFFE00
7E7E7E00
7E007F00
FE007F00
FE007F00
FE007F00
FE007F00
FC003F80
ENDCHAR
STARTCHAR 1EA9
ENCODING 7849
SWIDTH 585 0
DWIDTH 26 0
BBX 25 47 1 0
BITMAP
007F0000
00FF0000
00E70000
00CE0000
001E0000
001C0000
001C0000
00000000
00000000
07FFC000
0FFFE000
1FFFF000
1F00F800
1E007800
00000000
00000000
03FFC000
07FFE000
07FFE000
07FFE000
07FFE000
07FFF000
0FFFF000
0FC3F000
0FC3F000
0FC3F000
0F83F800
1F81F800
1F81F800
1F81F800
1F81F800
1F81FC00
3F81FC00
3F00FC00
3F00FC00
3F81FC00
3FFFFE00
7FFFFE00
7FFFFE00
7FFFFE00
7E7E7E00
7E007F00
FE007F00
FE007F00
FE007F00
FE007F00
FC003F80
ENDCHAR
STARTCHAR 1EAA
ENCODING 7850
SWIDTH 585 0
DWIDTH 26 0
BBX 25 46 1 0
BITMAP
01E00000
03FC1800
0FFFF800
1F3FF800
1E07F000
1801C000
00000000
00000000
07FFC000
0FFFE000
1FFFF000
1F00F800
1E007800
00000000
00000000
03FFC000
07FFE000
07FFE000
07FFE000
07FFE000
07FFF000
0FFFF000
0FC3F000
0FC3F000
0FC3F000
0F83F800
1F81F800
1F81F800
1F81F800
1F81F800
1F81FC00
3F81FC00
3F00FC00
3F00FC00
3F81FC00
3FFFFE00
7FFFFE00
7FFFFE00
7FFFFE00
7E7E7E00
7E007F00
FE007F00
FE007F00
FE007F00
FE007F00
FC003F80
ENDCHAR
STARTCHAR 1EAB
ENCODING 7851
SWIDTH 585 0
DWIDTH 26 0
BBX 25 46 1 0
BITMAP
01E00000
03FC1800
0FFFF800
1F3FF800
1E07F000
1801C000
00000000
00000000
07FFC000
0FFFE000
1FFFF000
1F00F800
1E007800
00000000
00000000
03FFC000
07FFE000
07FFE000
07FFE000
07FFE000
07FFF000
0FFFF000
0FC3F000
0FC3F000
0FC3F000
0F83F800
1F81F800
1F81F800
1F81F800
1F81F800
1F81FC00
3F81FC00
3F00FC00
3F00FC00
3F81FC00
3FFFFE00
7FFFFE00
7FFFFE00
7FFFFE00
7E7E7E00
7E007F00
FE007F00
FE007F00
FE007F00
FE007F00
FC003F80
ENDCHAR
STARTCHAR 1EAC
ENCODING 7852
SWIDTH 585 0
DWIDTH 26 0
BBX 25 42 1 -4
BITMAP
07FFC000
0FFFE000
1FFFF000
1F00F800
1E007800
00000000
00000000
03FFC000
07FFE000
07FFE000
07FFE000
07FFE000
07FFF000
0FFFF000
0FC3F000
0FC3F000
0FC3F000
0F83F800
1F81F800
1F81F800
1F81F800
1F81F800
1F81FC00
3F81FC00
3F00FC00
3F00FC00
3F81FC00
3FFFFE00
7FFFFE00
7FFFFE00
7FFFFE00
7E7E7E00
7E007F00
FE007F00
FE007F00
FE007F00
FE007F00
FC003F80
00000000
00000000
007E0000
007E0000
ENDCHAR
STARTCHAR 1EAD
ENCODING 7853
SWIDTH 585 0
DWIDTH 26 0
BBX 25 43 1 -5
BITMAP
07FFC000
0FFFE000
1FFFF000
1F00F800
1E007800
00000000
00000000
03FFC000
07FFE000
07FFE000
07FFE000
07FFE000
07FFF000
0FFFF000
0FC3F000
0FC3F000
0FC3F000
0F83F800
1F81F800
1F81F800
1F81F800
1F81F800
1F81FC00
3F81FC00
3F00FC00
3F00FC00
3F81FC00
3FFFFE00
7FFFFE00
7FFFFE00
7FFFFE00
7E7E7E00
7E007F00
FE007F00
FE007F00
FE007F00
FE007F00
FC003F80
00000000
00000000
007E0000
007E0000
007E0000
ENDCHAR
STARTCHAR 1EAE
ENCODING 7854
SWIDTH 585 0
DWIDTH 26 0
BBX 25 45 1 0
BITMAP
00007000
03FFF000
0FFFE000
0FFC0000
0F800000
00000000
00000000
1E007800
1F01F800
1FFFF000
0FFFE000
07FFC000
00000000
00000000
03FFC000
07FFE000
07FFE000
07FFE000
07FFE000
07FFF000
0FFFF000
0FC3F000
0FC3F000
0FC3F000
0F83F800
1F81F800
1F81F800
1F81F800
1F81F800
1F81FC00
3F81FC00
3F00FC00
3F00FC00
3F81FC00
3FFFFE00
7FFFFE00
7FFFFE00
7FFFFE00
7E7E7E00
7E007F00
FE007F00
FE007F00
FE007F00
FE007F00
FC003F80
ENDCHAR
STARTCHAR 1EAF
ENCODING 7855
SWIDTH 585 0
DWIDTH 26 0
BBX 25 45 1 0
BITMAP
00007000
03FFF000
0FFFE000
0FFC0000
0F800000
00000000
00000000
1E007800
1F01F800
1FFFF000
0FFFE000
07FFC000
00000000
00000000
03FFC000
07FFE000
07FFE000
07FFE000
07FFE000
07FFF000
0FFFF000
0FC3F000
0FC3F000
0FC3F000
0F83F800
1F81F800
1F81F800
1F81F800
1F81F800
1F81FC00
3F81FC00
3F00FC00
3F00FC00
3F81FC00
3FFFFE00
7FFFFE00
7FFFFE00
7FFFFE00
7E7E7E00
7E007F00
FE007F00
FE007F00
FE007F00
FE007F00
FC003F80
ENDCHAR
STARTCHAR 1EB0
ENCODING 7856
SWIDTH 585 0
DWIDTH 26 0
BBX 25 45 1 0
BITMAP
0E000000
0FF00000
0FFF8000
07FFF000
0007F000
00000000
00000000
1E007800
1F01F800
1FFFF000
0FFFE000
07FFC000
00000000
00000000
03FFC000
07FFE000
07FFE000
07FFE000
07FFE000
07FFF000
0FFFF000
0FC3F000
0FC3F000
0FC3F000
0F83F800
1F81F800
1F81F800
1F81F800
1F81F800
1F81FC00
3F81FC00
3F00FC00
3F00FC00
3F81FC00
3FFFFE00
7FFFFE00
7FFFFE00
7FFFFE00
7E7E7E00
7E007F00
FE007F00
FE007F00
FE007F00
FE007F00
FC003F80
ENDCHAR
STARTCHAR 1EB1
ENCODING 7857
SWIDTH 585 0
DWIDTH 26 0
BBX 25 45 1 0
BITMAP
0E000000
0FF00000
0FFF8000
07FFF000
0007F000
00000000
00000000
1E007800
1F01F800
1FFFF000
0FFFE000
07FFC000
00000000
00000000
03FFC000
07FFE000
07FFE000
07FFE000
07FFE000
07FFF000
0FFFF000
0FC3F000
0FC3F000
0FC3F000
0F83F800
1F81F800
1F81F800
1F81F800
1F81F800
1F81FC00
3F81FC00
3F00FC00
3F00FC00
3F81FC00
3FFFFE00
7FFFFE00
7FFFFE00
7FFFFE00
7E7E7E00
7E007F00
FE007F00
FE007F00
FE007F00
FE007F00
FC003F80
ENDCHAR
STARTCHAR 1EB2
ENCODING 7858
SWIDTH 585 0
DWIDTH 26 0
BBX 25 46 1 0
BITMAP
007E0000
007F0000
00FF8000
00E70000
000E0000
001C0000
001C0000
001C0000
1E007800
1F01F800
1FFFF000
0FFFE000
07FFC000
00000000
00000000
03FFC000
07FFE000
07FFE000
07FFE000
07FFE000
07FFF000
0FFFF000
0FC3F000
0FC3F000
0FC3F000
0F83F800
1F81F800
1F81F800
1F81F800
1F81F800
1F81FC00
3F81FC00
3F00FC00
3F00FC00
3F81FC00
3FFFFE00
7FFFFE00
7FFFFE00
7FFFFE00
7E7E7E00
7E007F00
FE007F00
FE007F00
FE007F00
FE007F00
FC003F80
ENDCHAR
STARTCHAR 1EB3
ENCODING 7859
SWIDTH 585 0
DWIDTH 26 0
BBX 25 46 1 0
BITMAP
007E0000
007F0000
00FF8000
00E70000
000E0000
001C0000
001C0000
001C0000
1E007800
1F01F800
1FFFF000
0FFFE000
07FFC000
00000000
00000000
03FFC000
07FFE000
07FFE000
07FFE000
07FFE000
07FFF000
0FFFF000
0FC3F000
0FC3F000
0FC3F000
0F83F800
1F81F800
1F81F800
1F81F800
1F81F800
1F81FC00
3F81FC00
3F00FC00
3F00FC00
3F81FC00
3FFFFE00
7FFFFE00
7FFFFE00
7FFFFE00
7E7E7E00
7E007F00
FE007F00
FE007F00
FE007F00
FE007F00
FC003F80
ENDCHAR
STARTCHAR 1EB4
ENCODING 7860
SWIDTH 585 0
DWIDTH 26 0
BBX 25 46 1 0
BITMAP
01E00000
03FC1800
0FFFF800
1F3FF800
1E07F000
1801C000
00000000
00000000
1E007800
1F01F800
1FFFF000
0FFFE000
07FFC000
00000000
00000000
03FFC000
07FFE000
07FFE000
07FFE000
07FFE000
07FFF000
0FFFF000
0FC3F000
0FC3F000
0FC3F000
0F83F800
1F81F800
1F81F800
1F81F800
1F81F800
1F81FC00
3F81FC00
3F00FC00
3F00FC00
3F81FC00
3FFFFE00
7FFFFE00
7FFFFE00
7FFFFE00
7E7E7E00
7E007F00
FE007F00
FE007F00
FE007F00
FE007F00
FC003F80
ENDCHAR
STARTCHAR 1EB5
ENCODING 7861
SWIDTH 585 0
DWIDTH 26 0
BBX 25 46 1 0
BITMAP
01E00000
03FC1800
0FFFF800
1F3FF800
1E07F000
1801C000
00000000
00000000
1E007800
1F01F800
1FFFF000
0FFFE000
07FFC000
00000000
00000000
03FFC000
07FFE000
07FFE000
07FFE000
07FFE000
07FFF000
0FFFF000
0FC3F000
0FC3F000
0FC3F000
0F83F800
1F81F800
1F81F800
1F81F800
1F81F800
1F81FC00
3F81FC00
3F00FC00
3F00FC00
3F81FC00
3FFFFE00
7FFFFE00
7FFFFE00
7FFFFE00
7E7E7E00
7E007F00
FE007F00
FE007F00
FE007F00
FE007F00
FC003F80
ENDCHAR
STARTCHAR 1EB6
ENCODING 7862
SWIDTH 585 0
DWIDTH 26 0
BBX 25 42 1 -4
BITMAP
1E007800
1F01F800
1FFFF000
0FFFE000
07FFC000
00000000
00000000
03FFC000
07FFE000
07FFE000
07FFE000
07FFE000
07FFF000
0FFFF000
0FC3F000
0FC3F000
0FC3F000
0F83F800
1F81F800
1F81F800
1F81F800
1F81F800
1F81FC00
3F81FC00
3F00FC00
3F00FC00
3F81FC00
3FFFFE00
7FFFFE00
7FFFFE00
7FFFFE00
7E7E7E00
7E007F00
FE007F00
FE007F00
FE007F00
FE007F00
FC003F80
00000000
00000000
007E0000
007E0000
ENDCHAR
STARTCHAR 1EB7
ENCODING 7863
SWIDTH 585 0
DWIDTH 26 0
BBX 25 43 1 -5
BITMAP
1E007800
1F01F800
1FFFF000
0FFFE000
07FFC000
00000000
00000000
03FFC000
07FFE000
07FFE000
07FFE000
07FFE000
07FFF000
0FFFF000
0FC3F000
0FC3F000
0FC3F000
0F83F800
1F81F800
1F81F800
1F81F800
1F81F800
1F81FC00
3F81FC00
3F00FC00
3F00FC00
3F81FC00
3FFFFE00
7FFFFE00
7FFFFE00
7FFFFE00
7E7E7E00
7E007F00
FE007F00
FE007F00
FE007F00
FE007F00
FC003F80
00000000
00000000
007E0000
007E0000
007E0000
ENDCHAR
STARTCHAR 1EB8
ENCODING 7864
SWIDTH 540 0
DWIDTH 24 0
BBX 20 36 2 -5
BITMAP
FFFF80
FFFFC0
FFFFE0
FFFFE0
FFFFF0
FFFFF0
FFFFF0
FE03F0
FE0000
FE0000
FE0000
FE0000
FE0000
FFFE00
FFFE00
FFFE00
FFFE00
FFFE00
FE0000
FE0000
FE0000
FE0000
FE0000
FE03F0
FFFFF0
FFFFF0
FFFFF0
FFFFE0
FFFFE0
FFFFC0
FFFF80
000000
000000
07F800
07F800
07F800
ENDCHAR
STARTCHAR 1EB9
ENCODING 7865
SWIDTH 540 0
DWIDTH 24 0
BBX 20 36 2 -5
BITMAP
FFFF80
FFFFC0
FFFFE0
FFFFE0
FFFFF0
FFFFF0
FFFFF0
FE03F0
FE0000
FE0000
FE0000
FE0000
FE0000
FFFE00
FFFE00
FFFE00
FFFE00
FFFE00
FE0000
FE0000
FE0000
FE0000
FE0000
FE03F0
FFFFF0
FFFFF0
FFFFF0
FFFFE0
FFFFE0
FFFFC0
FFFF80
000000
000000
07F800
07F800
07F800
ENDCHAR
STARTCHAR 1EBA
ENCODING 7866
SWIDTH 540 0
DWIDTH 24 0
BBX 20 40 2 0
BITMAP
03F800
07F800
07F800
073800
007000
00E000
00E000
000000
000000
FFFF80
FFFFC0
FFFFE0
FFFFE0
FFFFF0
FFFFF0
FFFFF0
FE03F0
FE0000
FE0000
FE0000
FE0000
FE0000
FFFE00
FFFE00
FFFE00
FFFE00
FFFE00
FE0000
FE0000
FE0000
FE0000
FE0000
FE03F0
FFFFF0
FFFFF0
FFFFF0
FFFFE0
FFFFE0
FFFFC0
FFFF80
ENDCHAR
STARTCHAR 1EBB
ENCODING 7867
SWIDTH 540 0
DWIDTH 24 0
BBX 20 40 2 0
BITMAP
03F800
07F800
07F800
073800
007000
00E000
00E000
000000
000000
FFFF80
FFFFC0
FFFFE0
FFFFE0
FFFFF0
FFFFF0
FFFFF0
FE03F0
FE0000
FE0000
FE0000
FE0000
FE0000
FFFE00
FFFE00
FFFE00
FFFE00
FFFE00
FE0000
FE0000
FE0000
FE0000
FE0000
FE03F0
FFFFF0
FFFFF0
FFFFF0
FFFFE0
FFFFE0
FFFFC0
FFFF80
ENDCHAR
STARTCHAR 1EBC
ENCODING 7868
SWIDTH 540 0
DWIDTH 24 0
BBX 20 39 2 0
BITMAP
060000
1FC0C0
7FFBC0
FFFFC0
F07FC0
C00E00
000000
000000
FFFF80
FFFFC0
FFFFE0
FFFFE0
FFFFF0
FFFFF0
FFFFF0
FE03F0
FE0000
FE0000
FE0000
FE0000
FE0000
FFFE00
FFFE00
FFFE00
FFFE00
FFFE00
FE0000
FE0000
FE0000
FE0000
FE0000
FE03F0
FFFFF0
FFFFF0
FFFFF0
FFFFE0
FFFFE0
FFFFC0
FFFF80
ENDCHAR
STARTCHAR 1EBD
ENCODING 7869
SWIDTH 540 0
DWIDTH 24 0
BBX 20 39 2 0
BITMAP
060000
1FC0C0
7FFBC0
FFFFC0
F07FC0
C00E00
000000
000000
FFFF80
FFFFC0
FFFFE0
FFFFE0
FFFFF0
FFFFF0
FFFFF0
FE03F0
FE0000
FE0000
FE0000
FE0000
FE0000
FFFE00
FFFE00
FFFE00
FFFE00
FFFE00
FE0000
FE0000
FE0000
FE0000
FE0000
FE03F0
FFFFF0
FFFFF0
FFFFF0
FFFFE0
FFFFE0
FFFFC0
FFFF80
ENDCHAR
STARTCHAR 1EBE
ENCODING 7870
SWIDTH 540 0
DWIDTH 24 0
BBX 20 45 2 0
BITMAP
0001C0
0FFFC0
3FFF80
3FF000
3E0000
000000
000000
3FFE00
7FFF00
FFFF80
F807C0
F003C0
000000
000000
FFFF80
FFFFC0
FFFFE0
FFFFE0
FFFFF0
FFFFF0
FFFFF0
FE03F0
FE0000
FE0000
FE0000
FE0000
FE0000
FFFE00
FFFE00
FFFE00
FFFE00
FFFE00
FE0000
FE0000
FE0000
FE0000
FE0000
FE03F0
FFFFF0
FFFFF0
FFFFF0
FFFFE0
FFFFE0
FFFFC0
FFFF80
ENDCHAR
STARTCHAR 1EBF
ENCODING 7871
SWIDTH 540 0
DWIDTH 24 0
BBX 20 45 2 0
BITMAP
0001C0
0FFFC0
3FFF80
3FF000
3E0000
000000
000000
3FFE00
7FFF00
FFFF80
F807C0
F003C0
000000
000000
FFFF80
FFFFC0
FFFFE0
FFFFE0
FFFFF0
FFFFF0
FFFFF0
FE03F0
FE0000
FE0000
FE0000
FE0000
FE0000
FFFE00
FFFE00
FFFE00
FFFE00
FFFE00
FE0000
FE0000
FE0000
FE0000
FE0000
FE03F0
FFFFF0
FFFFF0
FFFFF0
FFFFE0
FFFFE0
FFFFC0
FFFF80
ENDCHAR
STARTCHAR 1EC0
ENCODING 7872
SWIDTH 540 0
DWIDTH 24 0
BBX 20 45 2 0
BITMAP
380000
3FC000
3FFE00
1FFFC0
001FC0
000000
000000
3FFE00
7FFF00
FFFF80
F807C0
F003C0
000000
000000
FFFF80
FFFFC0
FFFFE0
FFFFE0
FFFFF0
FFFFF0
FFFFF0
FE03F0
FE0000
FE0000
FE0000
FE0000
FE0000
FFFE00
FFFE00
FFFE00
FFFE00
FFFE00
FE0000
FE0000
FE0000
FE0000
FE0000
FE03F0
FFFFF0
FFFFF0
FFFFF0
FFFFE0
FFFFE0
FFFFC0
FFFF80
ENDCHAR
STARTCHAR 1EC1
ENCODING 7873
SWIDTH 540 0
DWIDTH 24 0
BBX 20 45 2 0
BITMAP
380000
3FC000
3FFE00
1FFFC0
001FC0
000000
000000
3FFE00
7FFF00
FFFF80
F807C0
F003C0
000000
000000
FFFF80
FFFFC0
FFFFE0
FFFFE0
FFFFF0
FFFFF0
FFFFF0
FE03F0
FE0000
FE0000
FE0000
FE0000
FE0000
FFFE00
FFFE00
FFFE00
FFFE00
FFFE00
FE0000
FE0000
FE0000
FE0000
FE0000
FE03F0
FFFFF0
FFFFF0
FFFFF0
FFFFE0
FFFFE0
FFFFC0
FFFF80
ENDCHAR
STARTCHAR 1EC2
ENCODING 7874
SWIDTH 540 0
DWIDTH 24 0
BBX 20 47 2 0
BITMAP
03F800
07F800
073800
067000
00F000
00E000
00E000
000000
000000
3FFE00
7FFF00
FFFF80
F807C0
F003C0
000000
000000
FFFF80
FFFFC0
FFFFE0
FFFFE0
FFFFF0
FFFFF0
FFFFF0
FE03F0
FE0000
FE0000
FE0000
FE0000
FE0000
FFFE00
FFFE00
FFFE00
FFFE00
FFFE00
FE0000
FE0000
FE0000
FE0000
FE0000
FE03F0
FFFFF0
FFFFF0
FFFFF0
FFFFE0
FFFFE0
FFFFC0
FFFF80
ENDCHAR
STARTCHAR 1EC3
ENCODING 7875
SWIDTH 540 0
DWIDTH 24 0
BBX 20 47 2 0
BITMAP
03F800
07F800
073800
067000
00F000
00E000
00E000
000000
000000
3FFE00
7FFF00
FFFF80
F807C0
F003C0
000000
000000
FFFF80
FFFFC0
FFFFE0
FFFFE0
FFFFF0
FFFFF0
FFFFF0
FE03F0
FE0000
FE0000
FE0000
FE0000
FE0000
FFFE00
FFFE00
FFFE00
FFFE00
FFFE00
FE0000
FE0000
FE0000
FE0000
FE0000
FE03F0
FFFFF0
FFFFF0
FFFFF0
FFFFE0
FFFFE0
FFFFC0
FFFF80
ENDCHAR
STARTCHAR 1EC4
ENCODING 7876
SWIDTH 540 0
DWIDTH 24 0
BBX 20 46 2 0
BITMAP
0F0000
3FE0C0
7FFBC0
F9FFC0
F07F80
C00E00
000000
000000
3FFE00
7FFF00
FFFF80
F807C0
F003C0
000000
000000
FFFF80
FFFFC0
FFFFE0
FFFFE0
FFFFF0
FFFFF0
FFFFF0
FE03F0
FE0000
FE0000
FE0000
FE0000
FE0000
FFFE00
FFFE00
FFFE00
FFFE00
FFFE00
FE0000
FE0000
FE0000
FE0000
FE0000
FE03F0
FFFFF0
FFFFF0
FFFFF0
FFFFE0
FFFFE0
FFFFC0
FFFF80
ENDCHAR
STARTCHAR 1EC5
ENCODING 7877
SWIDTH 540 0
DWIDTH 24 0
BBX 20 46 2 0
BITMAP
0F0000
3FE0C0
7FFBC0
F9FFC0
F07F80
C00E00
000000
000000
3FFE00
7FFF00
FFFF80
F807C0
F003C0
000000
000000
FFFF80
FFFFC0
FFFFE0
FFFFE0
FFFFF0
FFFFF0
FFFFF0
FE03F0
FE0000
FE0000
FE0000
FE0000
FE0000
FFFE00
FFFE00
FFFE00
FFFE00
FFFE00
FE0000
FE0000
FE0000
FE0000
FE0000
FE03F0
FFFFF0
FFFFF0
FFFFF0
FFFFE0
FFFFE0
FFFFC0
FFFF80
ENDCHAR
STARTCHAR 1EC6
ENCODING 7878
SWIDTH 540 0
DWIDTH 24 0
BBX 20 43 2 -5
BITMAP
3FFE00
7FFF00
FFFF80
F807C0
F003C0
000000
000000
FFFF80
FFFFC0
FFFFE0
FFFFE0
FFFFF0
FFFFF0
FFFFF0
FE03F0
FE0000
FE0000
FE0000
FE0000
FE0000
FFFE00
FFFE00
FFFE00
FFFE00
FFFE00
FE0000
FE0000
FE0000
FE0000
FE0000
FE03F0
FFFFF0
FFFFF0
FFFFF0
FFFFE0
FFFFE0
FFFFC0
FFFF80
000000
000000
07F800
07F800
07F800
ENDCHAR
STARTCHAR 1EC7
ENCODING 7879
SWIDTH 540 0
DWIDTH 24 0
BBX 20 43 2 -5
BITMAP
3FFE00
7FFF00
FFFF80
F807C0
F003C0
000000
000000
FFFF80
FFFFC0
FFFFE0
FFFFE0
FFFFF0
FFFFF0
FFFFF0
FE03F0
FE0000
FE0000
FE0000
FE0000
FE0000
FFFE00
FFFE00
FFFE00
FFFE00
FFFE00
FE0000
FE0000
FE0000
FE0000
FE0000
FE03F0
FFFFF0
FFFFF0
FFFFF0
FFFFE0
FFFFE0
FFFFC0
FFFF80
000000
000000
07F800
07F800
07F800
ENDCHAR
STARTCHAR 1EC8
ENCODING 7880
SWIDTH 225 0
DWIDTH 10 0
BBX 8 40 1 0
BITMAP
7E
FF
FF
C7
0E
1C
1C
00
00
7F
7F
7F
7F
7F
7F
7F
7F
7F
7F
7F
7F
7F
7F
7F
7F
7F
7F
7F
7F
7F
7F
7F
7F
7F
7F
7F
7F
7F
7F
7F
ENDCHAR
STARTCHAR 1EC9
ENCODING 7881
SWIDTH 225 0
DWIDTH 10 0
BBX 8 40 1 0
BITMAP
7E
FF
FF
CE
0E
1C
1C
00
00
7F
7F
7F
7F
7F
7F
7F
7F
7F
7F
7F
7F
7F
7F
7F
7F
7F
7F
7F
7F
7F
7F
7F
7F
7F
7F
7F
7F
7F
7F
7F
ENDCHAR
STARTCHAR 1ECA
ENCODING 7882
SWIDTH 225 0
DWIDTH 10 0
BBX 7 36 2 -5
BITMAP
FE
FE
FE
FE
FE
FE
FE
FE
FE
FE
FE
FE
FE
FE
FE
FE
FE
FE
FE
FE
FE
FE
FE
FE
FE
FE
FE
FE
FE
FE
FE
00
00
FE
FE
FE
ENDCHAR
STARTCHAR 1ECB
ENCODING 7883
SWIDTH 225 0
DWIDTH 10 0
BBX 7 36 2 -5
BITMAP
FE
FE
FE
FE
FE
FE
FE
FE
FE
FE
FE
FE
FE
FE
FE
FE
FE
FE
FE
FE
FE
FE
FE
FE
FE
FE
FE
FE
FE
FE
FE
00
00
FE
FE
FE
ENDCHAR
STARTCHAR 1ECC
ENCODING 7884
SWIDTH 607 0
DWIDTH 27 0
BBX 24 36 2 -5
BITMAP
1FFFF8
3FFFF8
7FFFFC
7FFFFE
FFFFFF
FFFFFF
FFFFFF
FE00FF
FE007F
FE007F
FE007F
FE007F
FE007F
FE007F
FE007F
FE007F
FE007F
FE007F
FE007F
FE007F
FE007F
FE007F
FE007F
FE00FF
FFFFFF
FFFFFF
FFFFFE
7FFFFE
3FFFFC
3FFFF8
1FFFF8
000000
000000
00FF00
00FF00
00FF00
ENDCHAR
STARTCHAR 1ECD
ENCODING 7885
SWIDTH 607 0
DWIDTH 27 0
BBX 24 36 2 -5
BITMAP
1FFFF8
3FFFF8
7FFFFC
7FFFFE
FFFFFF
FFFFFF
FFFFFF
FE00FF
FE007F
FE007F
FE007F
FE007F
FE007F
FE007F
FE007F
FE007F
FE007F
FE007F
FE007F
FE007F
FE007F
FE007F
FE007F
FE00FF
FFFFFF
FFFFFF
FFFFFE
7FFFFE
3FFFFC
3FFFF8
1FFFF8
000000
000000
00FF00
00FF00
00FF00
ENDCHAR
STARTCHAR 1ECE
ENCODING 7886
SWIDTH 607 0
DWIDTH 27 0
BBX 24 40 2 0
BITMAP
007E00
00FF00
00FF00
00C700
000E00
001C00
001C00
000000
000000
1FFFF8
3FFFF8
7FFFFC
7FFFFE
FFFFFF
FFFFFF
FFFFFF
FE00FF
FE007F
FE007F
FE007F
FE007F
FE007F
FE007F
FE007F
FE007F
FE007F
FE007F
FE007F
FE007F
FE007F
FE007F
FE007F
FE00FF
FFFFFF
FFFFFF
FFFFFE
7FFFFE
3FFFFC
3FFFF8
1FFFF8
ENDCHAR
STARTCHAR 1ECF
ENCODING 7887
SWIDTH 607 0
DWIDTH 27 0
BBX 24 40 2 0
BITMAP
007E00
00FF00
00FF00
00C700
000E00
001C00
001C00
000000
000000
1FFFF8
3FFFF8
7FFFFC
7FFFFE
FFFFFF
FFFFFF
FFFFFF
FE00FF
FE007F
FE007F
FE007F
FE007F
FE007F
FE007F
FE007F
FE007F
FE007F
FE007F
FE007F
FE007F
FE007F
FE007F
FE007F
FE00FF
FFFFFF
FFFFFF
FFFFFE
7FFFFE
3FFFFC
3FFFF8
1FFFF8
ENDCHAR
STARTCHAR 1ED0
ENCODING 7888
SWIDTH 607 0
DWIDTH 27 0
BBX 24 45 2 0
BITMAP
000070
03FFF0
0FFFE0
0FFC00
0F8000
000000
000000
07FFC0
0FFFE0
1FFFF0
1F00F8
1E0078
000000
000000
1FFFF8
3FFFF8
7FFFFC
7FFFFE
FFFFFF
FFFFFF
FFFFFF
FE00FF
FE007F
FE007F
FE007F
FE007F
FE007F
FE007F
FE007F
FE007F
FE007F
FE007F
FE007F
FE007F
FE007F
FE007F
FE007F
FE00FF
FFFFFF
FFFFFF
FFFFFE
7FFFFE
3FFFFC
3FFFF8
1FFFF8
ENDCHAR
STARTCHAR 1ED1
ENCODING 7889
SWIDTH 607 0
DWIDTH 27 0
BBX 24 45 2 0
BITMAP
000070
03FFF0
0FFFE0
0FFC00
0F8000
000000
000000
07FFC0
0FFFE0
1FFFF0
1F00F8
1E0078
000000
000000
1FFFF8
3FFFF8
7FFFFC
7FFFFE
FFFFFF
FFFFFF
FFFFFF
FE00FF
FE007F
FE007F
FE007F
FE007F
FE007F
FE007F
FE007F
FE007F
FE007F
FE007F
FE007F
FE007F
FE007F
FE007F
FE007F
FE00FF
FFFFFF
FFFFFF
FFFFFE
7FFFFE
3FFFFC
3FFFF8
1FFFF8
ENDCHAR
STARTCHAR 1ED2
ENCODING 7890
SWIDTH 607 0
DWIDTH 27 0
BBX 24 45 2 0
BITMAP
0F0000
0FF800
0FFFC0
07FFF0
0007F0
000000
000000
07FFC0
0FFFE0
1FFFF0
1F00F8
1E0078
000000
000000
1FFFF8
3FFFF8
7FFFFC
7FFFFE
FFFFFF
FFFFFF
FFFFFF
FE00FF
FE007F
FE007F
FE007F
FE007F
FE007F
FE007F
FE007F
FE007F
FE007F
FE007F
FE007F
FE007F
FE007F
FE007F
FE007F
FE00FF
FFFFFF
FFFFFF
FFFFFE
7FFFFE
3FFFFC
3FFFF8
1FFFF8
ENDCHAR
STARTCHAR 1ED3
ENCODING 7891
SWIDTH 607 0
DWIDTH 27 0
BBX 24 45 2 0
BITMAP
0F0000
0FF800
0FFFC0
07FFF0
0007F0
000000
000000
07FFC0
0FFFE0
1FFFF0
1F00F8
1E0078
000000
000000
1FFFF8
3FFFF8
7FFFFC
7FFFFE
FFFFFF
FFFFFF
FFFFFF
FE00FF
FE007F
FE007F
FE007F
FE007F
FE007F
FE007F
FE007F
FE007F
FE007F
FE007F
FE007F
FE007F
FE007F
FE007F
FE007F
FE00FF
FFFFFF
FFFFFF
FFFFFE
7FFFFE
3FFFFC
3FFFF8
1FFFF8
ENDCHAR
STARTCHAR 1ED4
ENCODING 7892
SWIDTH 607 0
DWIDTH 27 0
BBX 24 47 2 0
BITMAP
007F00
00FF00
00E700
00CE00
001E00
001C00
001C00
000000
000000
07FFC0
0FFFE0
1FFFF0
1F00F8
1E0078
000000
000000
1FFFF8
3FFFF8
7FFFFC
7FFFFE
FFFFFF
FFFFFF
FFFFFF
FE00FF
FE007F
FE007F
FE007F
FE007F
FE007F
FE007F
FE007F
FE007F
FE007F
FE007F
FE007F
FE007F
FE007F
FE007F
FE007F
FE00FF
FFFFFF
FFFFFF
FFFFFE
7FFFFE
3FFFFC
3FFFF8
1FFFF8
ENDCHAR
STARTCHAR 1ED5
ENCODING 7893
SWIDTH 607 0
DWIDTH 27 0
BBX 24 47 2 0
BITMAP
007F00
00FF00
00E700
00CE00
001E00
001C00
001C00
000000
000000
07FFC0
0FFFE0
1FFFF0
1F00F8
1E0078
000000
000000
1FFFF8
3FFFF8
7FFFFC
7FFFFE
FFFFFF
FFFFFF
FFFFFF
FE00FF
FE007F
FE007F
FE007F
FE007F
FE007F
FE007F
FE007F
FE007F
FE007F
FE007F
FE007F
FE007F
FE007F
FE007F
FE007F
FE00FF
FFFFFF
FFFFFF
FFFFFE
7FFFFE
3FFFFC
3FFFF8
1FFFF8
ENDCHAR
STARTCHAR 1ED6
ENCODING 7894
SWIDTH 607 0
DWIDTH 27 0
BBX 24 46 2 0
BITMAP
01E000
07FC18
1FFF78
1F3FF8
1E0FF0
1801C0
000000
000000
07FFC0
0FFFE0
1FFFF0
1F00F8
1E0078
000000
000000
1FFFF8
3FFFF8
7FFFFC
7FFFFE
FFFFFF
FFFFFF
FFFFFF
FE00FF
FE007F
FE007F
FE007F
FE007F
FE007F
FE007F
FE007F
FE007F
FE007F
FE007F
FE007F
FE007F
FE007F
FE007F
FE007F
FE00FF
FFFFFF
FFFFFF
FFFFFE
7FFFFE
3FFFFC
3FFFF8
1FFFF8
ENDCHAR
STARTCHAR 1ED7
ENCODING 7895
SWIDTH 607 0
DWIDTH 27 0
BBX 24 46 2 0
BITMAP
01E000
07FC18
1FFF78
1F3FF8
1E0FF0
1801C0
000000
000000
07FFC0
0FFFE0
1FFFF0
1F00F8
1E0078
000000
000000
1FFFF8
3FFFF8
7FFFFC
7FFFFE
FFFFFF
FFFFFF
FFFFFF
FE00FF
FE007F
FE007F
FE007F
FE007F
FE007F
FE007F
FE007F
FE007F
FE007F
FE007F
FE007F
FE007F
FE007F
FE007F
FE007F
FE00FF
FFFFFF
FFFFFF
FFFFFE
7FFFFE
3FFFFC
3FFFF8
1FFFF8
ENDCHAR
STARTCHAR 1ED8
ENCODING 7896
SWIDTH 607 0
DWIDTH 27 0
BBX 24 43 2 -5
BITMAP
07FFC0
0FFFE0
1FFFF0
1F00F8
1E0078
000000
000000
1FFFF8
3FFFF8
7FFFFC
7FFFFE
FFFFFF
FFFFFF
FFFFFF
FE00FF
FE007F
FE007F
FE007F
FE007F
FE007F
FE007F
FE007F
FE007F
FE007F
FE007F
FE007F
FE007F
FE007F
FE007F
FE007F
FE00FF
FFFFFF
FFFFFF
FFFFFE
7FFFFE
3FFFFC
3FFFF8
1FFFF8
000000
000000
00FF00
00FF00
00FF00
ENDCHAR
STARTCHAR 1ED9
ENCODING 7897
SWIDTH 607 0
DWIDTH 27 0
BBX 24 43 2 -5
BITMAP
07FFC0
0FFFE0
1FFFF0
1F00F8
1E0078
000000
000000
1FFFF8
3FFFF8
7FFFFC
7FFFFE
FFFFFF
FFFFFF
FFFFFF
FE00FF
FE007F
FE007F
FE007F
FE007F
FE007F
FE007F
FE007F
FE007F
FE007F
FE007F
FE007F
FE007F
FE007F
FE007F
FE007F
FE00FF
FFFFFF
FFFFFF
FFFFFE
7FFFFE
3FFFFC
3FFFF8
1FFFF8
000000
000000
00FF00
00FF00
00FF00
ENDCHAR
STARTCHAR 1EDA
ENCODING 7898
SWIDTH 607 0
DWIDTH 27 0
BBX 26 37 2 1
BITMAP
01FFF000
0FFFF000
0FFE0000
0FC00380
000003C0
000007C0
1FFFFFC0
3FFFFF80
7FFFFF00
7FFFFE00
FFFFFF00
FFFFFF00
FFFFFF00
FE00FF00
FE007F00
FE007F00
FE007F00
FE007F00
FE007F00
FE007F00
FE007F00
FE007F00
FE007F00
FE007F00
FE007F00
FE007F00
FE007F00
FE007F00
FE007F00
FE00FF00
FFFFFF00
FFFFFF00
FFFFFE00
7FFFFE00
3FFFFC00
3FFFF800
1FFFF800
ENDCHAR
STARTCHAR 1EDB
ENCODING 7899
SWIDTH 607 0
DWIDTH 27 0
BBX 26 37 2 1
BITMAP
01FFF000
0FFFF000
0FFE0000
0FC00380
000003C0
000007C0
1FFFFFC0
3FFFFF80
7FFFFF00
7FFFFE00
FFFFFF00
FFFFFF00
FFFFFF00
FE00FF00
FE007F00
FE007F00
FE007F00
FE007F00
FE007F00
FE007F00
FE007F00
FE007F00
FE007F00
FE007F00
FE007F00
FE007F00
FE007F00
FE007F00
FE007F00
FE00FF00
FFFFFF00
FFFFFF00
FFFFFE00
7FFFFE00
3FFFFC00
3FFFF800
1FFFF800
ENDCHAR
STARTCHAR 1EDC
ENCODING 7900
SWIDTH 607 0
DWIDTH 27 0
BBX 26 38 2 0
BITMAP
1C000000
1FE00000
1FFF0000
1FFFE000
007FE380
000003C0
000007C0
1FFFFFC0
3FFFFF80
7FFFFF00
7FFFFE00
FFFFFF00
FFFFFF00
FFFFFF00
FE00FF00
FE007F00
FE007F00
FE007F00
FE007F00
FE007F00
FE007F00
FE007F00
FE007F00
FE007F00
FE007F00
FE007F00
FE007F00
FE007F00
FE007F00
FE007F00
FE00FF00
FFFFFF00
FFFFFF00
FFFFFE00
7FFFFE00
3FFFFC00
3FFFF800
1FFFF800
ENDCHAR
STARTCHAR 1EDD
ENCODING 7901
SWIDTH 607 0
DWIDTH 27 0
BBX 26 38 2 0
BITMAP
1C000000
1FE00000
1FFF0000
1FFFE000
007FE380
000003C0
000007C0
1FFFFFC0
3FFFFF80
7FFFFF00
7FFFFE00
FFFFFF00
FFFFFF00
FFFFFF00
FE00FF00
FE007F00
FE007F00
FE007F00
FE007F00
FE007F00
FE007F00
FE007F00
FE007F00
FE007F00
FE007F00
FE007F00
FE007F00
FE007F00
FE007F00
FE007F00
FE00FF00
FFFFFF00
FFFFFF00
FFFFFE00
7FFFFE00
3FFFFC00
3FFFF800
1FFFF800
ENDCHAR
STARTCHAR 1EDE
ENCODING 7902
SWIDTH 607 0
DWIDTH 27 0
BBX 26 40 2 0
BITMAP
007E0000
00FF0000
00FF0000
00C70000
000E0000
001C0000
001C0380
000003C0
000007C0
1FFFFFC0
3FFFFF80
7FFFFF00
7FFFFE00
FFFFFF00
FFFFFF00
FFFFFF00
FE00FF00
FE007F00
FE007F00
FE007F00
FE007F00
FE007F00
FE007F00
FE007F00
FE007F00
FE007F00
FE007F00
FE007F00
FE007F00
FE007F00
FE007F00
FE007F00
FE00FF00
FFFFFF00
FFFFFF00
FFFFFE00
7FFFFE00
3FFFFC00
3FFFF800
1FFFF800
ENDCHAR
STARTCHAR 1EDF
ENCODING 7903
SWIDTH 607 0
DWIDTH 27 0
BBX 26 40 2 0
BITMAP
007E0000
00FF0000
00FF0000
00C70000
000E0000
001C0000
001C0380
000003C0
000007C0
1FFFFFC0
3FFFFF80
7FFFFF00
7FFFFE00
FFFFFF00
FFFFFF00
FFFFFF00
FE00FF00
FE007F00
FE007F00
FE007F00
FE007F00
FE007F00
FE007F00
FE007F00
FE007F00
FE007F00
FE007F00
FE007F00
FE007F00
FE007F00
FE007F00
FE007F00
FE00FF00
FFFFFF00
FFFFFF00
FFFFFE00
7FFFFE00
3FFFFC00
3FFFF800
1FFFF800
ENDCHAR
STARTCHAR 1EE0
ENCODING 7904
SWIDTH 607 0
DWIDTH 27 0
BBX 26 41 2 0
BITMAP
00C00000
03F80800
0FFE3800
1FFFF800
1E1FF800
1C03E000
00000000
00000380
000003C0
000007C0
1FFFFFC0
3FFFFF80
7FFFFF00
7FFFFE00
FFFFFF00
FFFFFF00
FFFFFF00
FE00FF00
FE007F00
FE007F00
FE007F00
FE007F00
FE007F00
FE007F00
FE007F00
FE007F00
FE007F00
FE007F00
FE007F00
FE007F00
FE007F00
FE007F00
FE007F00
FE00FF00
FFFFFF00
FFFFFF00
FFFFFE00
7FFFFE00
3FFFFC00
3FFFF800
1FFFF800
ENDCHAR
STARTCHAR 1EE1
ENCODING 7905
SWIDTH 607 0
DWIDTH 27 0
BBX 26 41 2 0
BITMAP
00C00000
03F80800
0FFE3800
1FFFF800
1E1FF800
1C03E000
00000000
00000380
000003C0
000007C0
1FFFFFC0
3FFFFF80
7FFFFF00
7FFFFE00
FFFFFF00
FFFFFF00
FFFFFF00
FE00FF00
FE007F00
FE007F00
FE007F00
FE007F00
FE007F00
FE007F00
FE007F00
FE007F00
FE007F00
FE007F00
FE007F00
FE007F00
FE007F00
FE007F00
FE007F00
FE00FF00
FFFFFF00
FFFFFF00
FFFFFE00
7FFFFE00
3FFFFC00
3FFFF800
1FFFF800
ENDCHAR
STARTCHAR 1EE2
ENCODING 7906
SWIDTH 607 0
DWIDTH 27 0
BBX 26 39 2 -5
BITMAP
00000380
000003C0
000007C0
1FFFFFC0
3FFFFF80
7FFFFF00
7FFFFE00
FFFFFF00
FFFFFF00
FFFFFF00
FE00FF00
FE007F00
FE007F00
FE007F00
FE007F00
FE007F00
FE007F00
FE007F00
FE007F00
FE007F00
FE007F00
FE007F00
FE007F00
FE007F00
FE007F00
FE007F00
FE00FF00
FFFFFF00
FFFFFF00
FFFFFE00
7FFFFE00
3FFFFC00
3FFFF800
1FFFF800
00000000
00000000
00FF0000
00FF0000
00FF0000
ENDCHAR
STARTCHAR 1EE3
ENCODING 7907
SWIDTH 607 0
DWIDTH 27 0
BBX 26 39 2 -5
BITMAP
00000380
000003C0
000007C0
1FFFFFC0
3FFFFF80
7FFFFF00
7FFFFE00
FFFFFF00
FFFFFF00
FFFFFF00
FE00FF00
FE007F00
FE007F00
FE007F00
FE007F00
FE007F00
FE007F00
FE007F00
FE007F00
FE007F00
FE007F00
FE007F00
FE007F00
FE007F00
FE007F00
FE007F00
FE00FF00
FFFFFF00
FFFFFF00
FFFFFE00
7FFFFE00
3FFFFC00
3FFFF800
1FFFF800
00000000
00000000
00FF0000
00FF0000
00FF0000
ENDCHAR
STARTCHAR 1EE4
ENCODING 7908
SWIDTH 607 0
DWIDTH 27 0
BBX 23 36 2 -5
BITMAP
FE007E
FE007E
FE007E
FE007E
FE007E
FE007E
FE007E
FE007E
FE007E
FE007E
FE007E
FE007E
FE007E
FE007E
FE007E
FE007E
FE007E
FE007E
FE007E
FE007E
FE007E
FE007E
FE007E
FE00FE
FFFFFE
FFFFFE
FFFFFE
7FFFFC
3FFFFC
3FFFF8
1FFFF0
000000
000000
00FE00
00FE00
00FE00
ENDCHAR
STARTCHAR 1EE5
ENCODING 7909
SWIDTH 607 0
DWIDTH 27 0
BBX 23 36 2 -5
BITMAP
FE007E
FE007E
FE007E
FE007E
FE007E
FE007E
FE007E
FE007E
FE007E
FE007E
FE007E
FE007E
FE007E
FE007E
FE007E
FE007E
FE007E
FE007E
FE007E
FE007E
FE007E
FE007E
FE007E
FE00FE
FFFFFE
FFFFFE
FFFFFE
7FFFFC
3FFFFC
3FFFF8
1FFFF0
000000
000000
00FE00
00FE00
00FE00
ENDCHAR
STARTCHAR 1EE6
ENCODING 7910
SWIDTH 607 0
DWIDTH 27 0
BBX 23 40 2 0
BITMAP
00FE00
00FF00
01FF00
01CE00
001C00
001C00
001800
000000
000000
FE007E
FE007E
FE007E
FE007E
FE007E
FE007E
FE007E
FE007E
FE007E
FE007E
FE007E
FE007E
FE007E
FE007E
FE007E
FE007E
FE007E
FE007E
FE007E
FE007E
FE007E
FE007E
FE007E
FE00FE
FFFFFE
FFFFFE
FFFFFE
7FFFFC
3FFFFC
3FFFF8
1FFFF0
ENDCHAR
STARTCHAR 1EE7
ENCODING 7911
SWIDTH 607 0
DWIDTH 27 0
BBX 23 40 2 0
BITMAP
00FE00
00FF00
01FF00
01CE00
001C00
001C00
001800
000000
000000
FE007E
FE007E
FE007E
FE007E
FE007E
FE007E
FE007E
FE007E
FE007E
FE007E
FE007E
FE007E
FE007E
FE007E
FE007E
FE007E
FE007E
FE007E
FE007E
FE007E
FE007E
FE007E
FE007E
FE00FE
FFFFFE
FFFFFE
FFFFFE
7FFFFC
3FFFFC
3FFFF8
1FFFF0
ENDCHAR
STARTCHAR 1EE8
ENCODING 7912
SWIDTH 607 0
DWIDTH 27 0
BBX 25 37 2 1
BITMAP
01FFF000
0FFFF000
0FFE0000
0FC00780
00000780
00000780
FE007F80
FE007F80
FE007E00
FE007E00
FE007E00
FE007E00
FE007E00
FE007E00
FE007E00
FE007E00
FE007E00
FE007E00
FE007E00
FE007E00
FE007E00
FE007E00
FE007E00
FE007E00
FE007E00
FE007E00
FE007E00
FE007E00
FE007E00
FE00FE00
FFFFFE00
FFFFFE00
FFFFFE00
7FFFFC00
3FFFFC00
3FFFF800
1FFFF000
ENDCHAR
STARTCHAR 1EE9
ENCODING 7913
SWIDTH 607 0
DWIDTH 27 0
BBX 25 37 2 1
BITMAP
01FFF000
0FFFF000
0FFE0000
0FC00780
00000780
00000780
FE007F80
FE007F80
FE007E00
FE007E00
FE007E00
FE007E00
FE007E00
FE007E00
FE007E00
FE007E00
FE007E00
FE007E00
FE007E00
FE007E00
FE007E00
FE007E00
FE007E00
FE007E00
FE007E00
FE007E00
FE007E00
FE007E00
FE007E00
FE00FE00
FFFFFE00
FFFFFE00
FFFFFE00
7FFFFC00
3FFFFC00
3FFFF800
1FFFF000
ENDCHAR
STARTCHAR 1EEA
ENCODING 7914
SWIDTH 607 0
DWIDTH 27 0
BBX 25 38 2 0
BITMAP
1C000000
1FE00000
1FFF0000
1FFFE000
007FE780
00000780
00000780
FE007F80
FE007F80
FE007E00
FE007E00
FE007E00
FE007E00
FE007E00
FE007E00
FE007E00
FE007E00
FE007E00
FE007E00
FE007E00
FE007E00
FE007E00
FE007E00
FE007E00
FE007E00
FE007E00
FE007E00
FE007E00
FE007E00
FE007E00
FE00FE00
FFFFFE00
FFFFFE00
FFFFFE00
7FFFFC00
3FFFFC00
3FFFF800
1FFFF000
ENDCHAR
STARTCHAR 1EEB
ENCODING 7915
SWIDTH 607 0
DWIDTH 27 0
BBX 25 38 2 0
BITMAP
1C000000
1FE00000
1FFF0000
1FFFE000
007FE780
00000780
00000780
FE007F80
FE007F80
FE007E00
FE007E00
FE007E00
FE007E00
FE007E00
FE007E00
FE007E00
FE007E00
FE007E00
FE007E00
FE007E00
FE007E00
FE007E00
FE007E00
FE007E00
FE007E00
FE007E00
FE007E00
FE007E00
FE007E00
FE007E00
FE00FE00
FFFFFE00
FFFFFE00
FFFFFE00
7FFFFC00
3FFFFC00
3FFFF800
1FFFF000
ENDCHAR
STARTCHAR 1EEC
ENCODING 7916
SWIDTH 607 0
DWIDTH 27 0
BBX 25 40 2 0
BITMAP
007E0000
00FF0000
00FF0000
00CE0000
001C0000
001C0000
001C0780
00000780
00000780
FE007F80
FE007F80
FE007E00
FE007E00
FE007E00
FE007E00
FE007E00
FE007E00
FE007E00
FE007E00
FE007E00
FE007E00
FE007E00
FE007E00
FE007E00
FE007E00
FE007E00
FE007E00
FE007E00
FE007E00
FE007E00
FE007E00
FE007E00
FE00FE00
FFFFFE00
FFFFFE00
FFFFFE00
7FFFFC00
3FFFFC00
3FFFF800
1FFFF000
ENDCHAR
STARTCHAR 1EED
ENCODING 7917
SWIDTH 607 0
DWIDTH 27 0
BBX 25 40 2 0
BITMAP
007E0000
00FF0000
00FF0000
00CE0000
001C0000
001C0000
001C0780
00000780
00000780
FE007F80
FE007F80
FE007E00
FE007E00
FE007E00
FE007E00
FE007E00
FE007E00
FE007E00
FE007E00
FE007E00
FE007E00
FE007E00
FE007E00
FE007E00
FE007E00
FE007E00
FE007E00
FE007E00
FE007E00
FE007E00
FE007E00
FE007E00
FE00FE00
FFFFFE00
FFFFFE00
FFFFFE00
7FFFFC00
3FFFFC00
3FFFF800
1FFFF000
ENDCHAR
STARTCHAR 1EEE
ENCODING 7918
SWIDTH 607 0
DWIDTH 27 0
BBX 25 41 2 0
BITMAP
00C00000
03F80800
0FFE3800
1FFFF800
1E1FF800
1C03E000
00000000
00000780
00000780
00000780
FE007F80
FE007F80
FE007E00
FE007E00
FE007E00
FE007E00
FE007E00
FE007E00
FE007E00
FE007E00
FE007E00
FE007E00
FE007E00
FE007E00
FE007E00
FE007E00
FE007E00
FE007E00
FE007E00
FE007E00
FE007E00
FE007E00
FE007E00
FE00FE00
FFFFFE00
FFFFFE00
FFFFFE00
7FFFFC00
3FFFFC00
3FFFF800
1FFFF000
ENDCHAR
STARTCHAR 1EEF
ENCODING 7919
SWIDTH 607 0
DWIDTH 27 0
BBX 25 41 2 0
BITMAP
00C00000
03F80800
0FFE3800
1FFFF800
1E1FF800
1C03E000
00000000
00000780
00000780
00000780
FE007F80
FE007F80
FE007E00
FE007E00
FE007E00
FE007E00
FE007E00
FE007E00
FE007E00
FE007E00
FE007E00
FE007E00
FE007E00
FE007E00
FE007E00
FE007E00
FE007E00
FE007E00
FE007E00
FE007E00
FE007E00
FE007E00
FE007E00
FE00FE00
FFFFFE00
FFFFFE00
FFFFFE00
7FFFFC00
3FFFFC00
3FFFF800
1FFFF000
ENDCHAR
STARTCHAR 1EF0
ENCODING 7920
SWIDTH 607 0
DWIDTH 27 0
BBX 25 39 2 -5
BITMAP
00000780
00000780
00000780
FE007F80
FE007F80
FE007E00
FE007E00
FE007E00
FE007E00
FE007E00
FE007E00
FE007E00
FE007E00
FE007E00
FE007E00
FE007E00
FE007E00
FE007E00
FE007E00
FE007E00
FE007E00
FE007E00
FE007E00
FE007E00
FE007E00
FE007E00
FE00FE00
FFFFFE00
FFFFFE00
FFFFFE00
7FFFFC00
3FFFFC00
3FFFF800
1FFFF000
00000000
00000000
00FE0000
00FE0000
00FE0000
ENDCHAR
STARTCHAR 1EF1
ENCODING 7921
SWIDTH 607 0
DWIDTH 27 0
BBX 25 39 2 -5
BITMAP
00000780
00000780
00000780
FE007F80
FE007F80
FE007E00
FE007E00
FE007E00
FE007E00
FE007E00
FE007E00
FE007E00
FE007E00
FE007E00
FE007E00
FE007E00
FE007E00
FE007E00
FE007E00
FE007E00
FE007E00
FE007E00
FE007E00
FE007E00
FE007E00
FE007E00
FE00FE00
FFFFFE00
FFFFFE00
FFFFFE00
7FFFFC00
3FFFFC00
3FFFF800
1FFFF000
00000000
00000000
00FE0000
00FE0000
00FE0000
ENDCHAR
STARTCHAR 1EF2
ENCODING 7922
SWIDTH 450 0
DWIDTH 20 0
BBX 21 38 0 0
BITMAP
380000
3FC000
3FFE00
1FFFC0
007FC0
000000
000000
FE03F8
FE03F8
FE03F8
FF07F8
7F07F0
7F07F0
3F8FE0
3F8FE0
3F8FC0
1FDFC0
1FDFC0
0FDF80
0FFF80
07FF00
07FF00
03FE00
03FE00
03FE00
01FC00
01FC00
01FC00
01FC00
01FC00
01FC00
01FC00
01FC00
01FC00
01FC00
01FC00
01FC00
01FC00
ENDCHAR
STARTCHAR 1EF3
ENCODING 7923
SWIDTH 450 0
DWIDTH 20 0
BBX 21 38 0 0
BITMAP
380000
3FC000
3FFE00
1FFFC0
007FC0
000000
000000
FE03F8
FE03F8
FE03F8
FF07F8
7F07F0
7F07F0
3F8FE0
3F8FE0
3F8FC0
1FDFC0
1FDFC0
0FDF80
0FFF80
07FF00
07FF00
03FE00
03FE00
03FE00
01FC00
01FC00
01FC00
01FC00
01FC00
01FC00
01FC00
01FC00
01FC00
01FC00
01FC00
01FC00
01FC00
ENDCHAR
STARTCHAR 1EF4
ENCODING 7924
SWIDTH 450 0
DWIDTH 20 0
BBX 21 36 0 -5
BITMAP
FE03F8
FE03F8
FE03F8
FF07F8
7F07F0
7F07F0
3F8FE0
3F8FE0
3F8FC0
1FDFC0
1FDFC0
0FDF80
0FFF80
07FF00
07FF00
03FE00
03FE00
03FE00
01FC00
01FC00
01FC00
01FC00
01FC00
01FC00
01FC00
01FC00
01FC00
01FC00
01FC00
01FC00
01FC00
000000
000000
01FC00
01FC00
01FC00
ENDCHAR
STARTCHAR 1EF5
ENCODING 7925
SWIDTH 450 0
DWIDTH 20 0
BBX 21 36 0 -5
BITMAP
FE03F8
FE03F8
FE03F8
FF07F8
7F07F0
7F07F0
3F8FE0
3F8FE0
3F8FC0
1FDFC0
1FDFC0
0FDF80
0FFF80
07FF00
07FF00
03FE00
03FE00
03FE00
01FC00
01FC00
01FC00
01FC00
01FC00
01FC00
01FC00
01FC00
01FC00
01FC00
01FC00
01FC00
01FC00
000000
000000
01FC00
01FC00
01FC00
ENDCHAR
STARTCHAR 1EF6
ENCODING 7926
SWIDTH 450 0
DWIDTH 20 0
BBX 21 40 0 0
BITMAP
01FC00
03FC00
03FC00
039C00
003800
003000
003000
000000
000000
FE03F8
FE03F8
FE03F8
FF07F8
7F07F0
7F07F0
3F8FE0
3F8FE0
3F8FC0
1FDFC0
1FDFC0
0FDF80
0FFF80
07FF00
07FF00
03FE00
03FE00
03FE00
01FC00
01FC00
01FC00
01FC00
01FC00
01FC00
01FC00
01FC00
01FC00
01FC00
01FC00
01FC00
01FC00
ENDCHAR
STARTCHAR 1EF7
ENCODING 7927
SWIDTH 450 0
DWIDTH 20 0
BBX 21 40 0 0
BITMAP
01FC00
03FC00
03FC00
039C00
003800
003000
003000
000000
000000
FE03F8
FE03F8
FE03F8
FF07F8
7F07F0
7F07F0
3F8FE0
3F8FE0
3F8FC0
1FDFC0
1FDFC0
0FDF80
0FFF80
07FF00
07FF00
03FE00
03FE00
03FE00
01FC00
01FC00
01FC00
01FC00
01FC00
01FC00
01FC00
01FC00
01FC00
01FC00
01FC00
01FC00
01FC00
ENDCHAR
STARTCHAR 1EF8
ENCODING 7928
SWIDTH 450 0
DWIDTH 20 0
BBX 21 40 0 0
BITMAP
038000
07F030
1FFEF0
7EFFF0
7C1FE0
700780
000000
000000
000000
FE03F8
FE03F8
FE03F8
FF07F8
7F07F0
7F07F0
3F8FE0
3F8FE0
3F8FC0
1FDFC0
1FDFC0
0FDF80
0FFF80
07FF00
07FF00
03FE00
03FE00
03FE00
01FC00
01FC00
01FC00
01FC00
01FC00
01FC00
01FC00
01FC00
01FC00
01FC00
01FC00
01FC00
01FC00
ENDCHAR
STARTCHAR 1EF9
ENCODING 7929
SWIDTH 450 0
DWIDTH 20 0
BBX 21 40 0 0
BITMAP
038000
07F030
1FFEF0
7EFFF0
7C1FE0
700780
000000
000000
000000
FE03F8
FE03F8
FE03F8
FF07F8
7F07F0
7F07F0
3F8FE0
3F8FE0
3F8FC0
1FDFC0
1FDFC0
0FDF80
0FFF80
07FF00
07FF00
03FE00
03FE00
03FE00
01FC00
01FC00
01FC00
01FC00
01FC00
01FC00
01FC00
01FC00
01FC00
01FC00
01FC00
01FC00
01FC00
ENDCHAR
STARTCHAR 2013
ENCODING 8211
SWIDTH 495 0
DWIDTH 22 0
BBX 20 4 1 13
BITMAP
FFFFF0
FFFFF0
FFFFF0
FFFFF0
ENDCHAR
STARTCHAR 2014
ENCODING 8212
SWIDTH 990 0
DWIDTH 44 0
BBX 43 4 1 13
BITMAP
FFFFFFFFFFE0
FFFFFFFFFFE0
FFFFFFFFFFE0
FFFFFFFFFFE0
ENDCHAR
STARTCHAR 2018
ENCODING 8216
SWIDTH 202 0
DWIDTH 9 0
BBX 8 10 1 21
BITMAP
1F
3E
3C
7C
F8
F8
F8
F8
F8
F8
ENDCHAR
STARTCHAR 2019
ENCODING 8217
SWIDTH 202 0
DWIDTH 9 0
BBX 8 10 1 21
BITMAP
1E
1F
1F
1F
1F
1F
3E
7C
7C
F8
ENDCHAR
STARTCHAR 201A
ENCODING 8218
SWIDTH 157 0
DWIDTH 7 0
BBX 7 10 -1 -4
BITMAP
1E
1E
1E
1E
1E
1E
3E
7C
F8
F8
ENDCHAR
STARTCHAR 201C
ENCODING 8220
SWIDTH 360 0
DWIDTH 16 0
BBX 15 10 1 21
BITMAP
1F3E
3E7C
3C78
7CF8
F9F0
F9F0
F9F0
F9F0
F9F0
F9F0
ENDCHAR
STARTCHAR 201D
ENCODING 8221
SWIDTH 360 0
DWIDTH 16 0
BBX 15 10 1 21
BITMAP
1E3C
1F3E
1F3E
1F3E
1F3E
1F3E
3E7C
7CF8
7CF8
F9F0
ENDCHAR
STARTCHAR 201E
ENCODING 8222
SWIDTH 360 0
DWIDTH 16 0
BBX 15 10 1 -4
BITMAP
1E3C
1F3E
1F3E
1F3E
1F3E
1E3E
3E7C
7CF8
78F8
F9F0
ENDCHAR
STARTCHAR 2020
ENCODING 8224
SWIDTH 517 0
DWIDTH 23 0
BBX 21 31 1 0
BITMAP
00F800
00F800
00F800
00F800
00F800
00F800
00F800
00F800
00F800
FFFFF8
FFFFF8
FFFFF8
FFFFF8
00F800
00F800
00F800
00F800
00F800
00F800
00F800
00F800
00F800
00F800
00F800
00F800
00F800
00F800
00F800
00F800
00F800
00F800
ENDCHAR
STARTCHAR 2021
ENCODING 8225
SWIDTH 517 0
DWIDTH 23 0
BBX 21 31 1 0
BITMAP
00F800
00F800
00F800
00F800
00F800
00F800
00F800
00F800
00F800
FFFFF8
FFFFF8
FFFFF8
FFFFF8
00F800
00F800
00F800
00F800
00F800
FFFFF8
FFFFF8
FFFFF8
FFFFF8
00F800
00F800
00F800
00F800
00F800
00F800
00F800
00F800
00F800
ENDCHAR
STARTCHAR 2022
ENCODING 8226
SWIDTH 225 0
DWIDTH 10 0
BBX 9 8 1 13
BITMAP
FF80
FF80
FF80
FF80
FF80
FF80
FF80
FF80
ENDCHAR
STARTCHAR 2026
ENCODING 8230
SWIDTH 495 0
DWIDTH 22 0
BBX 21 5 1 0
BITMAP
F8F9F8
F8F9F8
F8F9F8
F8F9F8
F8F9F8
ENDCHAR
STARTCHAR 2030
ENCODING 8240
SWIDTH 877 0
DWIDTH 39 0
BBX 36 31 2 0
BITMAP
FFC0F80000
FFC0F80000
FFC1F00000
FFC1F00000
F1C3E00000
F1C3E00000
F1C7C00000
FFC7C00000
FFC7800000
FFCF800000
000F000000
001F000000
001F000000
003E000000
003E000000
007C000000
007C000000
00F8000000
00F8000000
01F0000000
01F3FC3FE0
03E7FE7FE0
03E7FF7FF0
07C7FF7FF0
07C78F78F0
07878F78F0
0F878F78F0
0F87FF7FF0
1F07FF7FF0
1F07FE7FF0
3E03FE3FE0
ENDCHAR
STARTCHAR 2039
ENCODING 8249
SWIDTH 247 0
DWIDTH 11 0
BBX 10 19 1 5
BITMAP
0040
00C0
01C0
03C0
0FC0
1F00
3E00
FC00
F800
F800
F800
FC00
3E00
1F00
0FC0
03C0
01C0
00C0
0040
ENDCHAR
STARTCHAR 203A
ENCODING 8250
SWIDTH 247 0
DWIDTH 11 0
BBX 10 17 1 6
BITMAP
C000
E000
F000
FC00
7E00
1F00
0F80
07C0
07C0
07C0
0F80
1F00
7E00
FC00
F000
E000
C000
ENDCHAR
STARTCHAR 2044
ENCODING 8260
SWIDTH 337 0
DWIDTH 15 0
BBX 18 31 -1 0
BITMAP
0003C0
000380
000780
000780
000F00
000F00
001E00
001E00
003C00
003C00
007800
007800
00F000
00F000
01E000
01E000
01C000
03C000
03C000
078000
078000
0F0000
0F0000
1E0000
1E0000
3C0000
3C0000
780000
780000
F00000
F00000
ENDCHAR
STARTCHAR 20AB
ENCODING 8363
SWIDTH 450 0
DWIDTH 20 0
BBX 20 31 -1 0
BITMAP
3FFFC0
3FFFE0
3FFFF0
3FFFF0
3FFFF0
3FFFF0
3F03F0
3F01F0
3F01F0
3F01F0
3F01F0
FFE1F0
FFE1F0
FFE1F0
3F01F0
3F01F0
3F01F0
3F01F0
3F03F0
3FFFF0
3FFFF0
3FFFF0
3FFFE0
3FFFE0
3FFFC0
000000
000000
3FFFF0
3FFFF0
3FFFF0
3FFFF0
ENDCHAR
STARTCHAR 20AC
ENCODING 8364
SWIDTH 607 0
DWIDTH 27 0
BBX 23 31 2 0
BITMAP
1FFFF0
1FFFF8
1FFFFC
1FFFFC
1FFFFE
1FFFFE
1FFFFE
1F80FE
1F8000
1F8000
FFFC00
FFFC00
FFFC00
FFFC00
FFFC00
1F8000
FFFC00
FFFC00
FFFC00
FFFC00
FFFC00
1F8000
1F8000
1F80FE
1FFFFE
1FFFFE
1FFFFE
1FFFFC
1FFFFC
1FFFF8
1FFFF0
ENDCHAR
STARTCHAR 2122
ENCODING 8482
SWIDTH 607 0
DWIDTH 27 0
BBX 26 15 0 16
BITMAP
7FE3C780
7FE7C7C0
FFF7EFC0
EF77EFC0
0F07EFC0
0F076DC0
0F076DC0
0F076DC0
0F077DC0
0F077DC0
0F073DC0
0F0739C0
0F0701C0
0F0701C0
0F0701C0
ENDCHAR
STARTCHAR 215B
ENCODING 8539
SWIDTH 652 0
DWIDTH 29 0
BBX 25 31 2 0
BITMAP
1E00F000
3E00E000
FE01E000
FE01C000
FE03C000
CE038000
0E078000
0E078000
0E0F0000
0E0F0000
0E1E0000
0E1E0000
0E3C0000
0E3C0000
0E780000
0078FF00
00F1FF00
00F1FF80
01E3FF80
01E3C380
01E3C380
03C3C380
03C1FF80
0781FF80
0783C780
0F03C380
0F03C380
1E03E780
1E03FF80
3C01FF80
3C00FF00
ENDCHAR
STARTCHAR 215C
ENCODING 8540
SWIDTH 697 0
DWIDTH 31 0
BBX 28 31 2 0
BITMAP
FFC03C00
FFC03C00
7FC07800
03C07800
03C0F000
03C0F000
3FC1E000
3FC1E000
3FC3C000
03C3C000
03C78000
03C78000
7FC70000
7FCF0000
FFCF0000
001E3FC0
001E7FE0
003C7FE0
003CFFF0
0078F0F0
0078F0F0
00F0F0F0
00F07FE0
01E07FE0
01E0F0F0
03C0F0F0
03C0F0F0
0780F9F0
0780FFF0
07807FE0
0F003FC0
ENDCHAR
STARTCHAR 215D
ENCODING 8541
SWIDTH 697 0
DWIDTH 31 0
BBX 28 31 2 0
BITMAP
FFC03C00
FF803C00
FF007800
E0007800
E000F000
E000F000
FFC1E000
FFC1E000
FFC3C000
03C3C000
03C38000
03C78000
7FC78000
FFCF0000
FFCF0000
001E3FC0
001E7FE0
003C7FE0
003CFFF0
0078F0F0
0078F0F0
00F0F0F0
00F07FE0
01E07FE0
01E0F0F0
03C0F0F0
03C0F0F0
0780F9F0
0780FFF0
07807FE0
0F003FC0
ENDCHAR
STARTCHAR 215E
ENCODING 8542
SWIDTH 630 0
DWIDTH 28 0
BBX 25 31 2 0
BITMAP
FF81E000
FF81E000
7F83C000
0783C000
07878000
07878000
0F070000
0F0F0000
0F0E0000
1E1E0000
1E1E0000
1E3C0000
3C3C0000
3C780000
3C780000
00F0FE00
00F1FF00
01E3FF80
01E3FF80
03C3C780
03C38380
0783C780
0783FF80
0F01FF00
0F03C780
0F038380
1E038380
1E03C780
3C03FF80
3C01FF00
7801FF00
ENDCHAR
STARTCHAR 2190
ENCODING 8592
SWIDTH 405 0
DWIDTH 18 0
BBX 17 15 1 5
BITMAP
0F0000
1F0000
3F0000
7E0000
FC0000
FFFF80
FFFF80
FFFF80
FFFF80
FFFF80
FC0000
7E0000
3F0000
0F0000
070000
ENDCHAR
STARTCHAR 2191
ENCODING 8593
SWIDTH 360 0
DWIDTH 16 0
BBX 14 17 1 5
BITMAP
0FE0
1FE0
3FF0
7FF8
FFFC
F7BC
E79C
E78C
0780
0780
0780
0780
0780
0780
0780
0780
0780
ENDCHAR
STARTCHAR 2192
ENCODING 8594
SWIDTH 405 0
DWIDTH 18 0
BBX 17 15 1 5
BITMAP
007000
007800
007C00
003F00
001F80
FFFF80
FFFF80
FFFF80
FFFF80
FFFF80
001F00
003E00
007C00
007800
007000
ENDCHAR
STARTCHAR 2193
ENCODING 8595
SWIDTH 360 0
DWIDTH 16 0
BBX 14 17 1 5
BITMAP
0780
0780
0780
0780
0780
0780
0780
0780
0780
E79C
F7BC
FFBC
7FFC
3FF8
3FF0
1FE0
0FC0
ENDCHAR
STARTCHAR 2194
ENCODING 8596
SWIDTH 517 0
DWIDTH 23 0
BBX 22 15 1 5
BITMAP
0F0380
1F03C0
3F03E0
7E01F0
FC00F8
FFFFFC
FFFFFC
FFFFFC
FFFFFC
FFFFFC
FC00F8
7E03F0
3F03E0
0F03C0
070380
ENDCHAR
STARTCHAR 2195
ENCODING 8597
SWIDTH 360 0
DWIDTH 16 0
BBX 14 22 1 5
BITMAP
0FC0
1FE0
3FF0
7FF8
FFFC
F7BC
F79C
E78C
0780
0780
0780
0780
0780
0780
E79C
F7BC
FFBC
7FFC
3FF8
3FF0
1FE0
0FC0
ENDCHAR
STARTCHAR 2196
ENCODING 8598
SWIDTH 382 0
DWIDTH 17 0
BBX 16 14 1 5
BITMAP
1FE0
3FF0
7FF0
7FE0
FF00
FF80
FFC0
F7F0
F3F8
71FC
78FE
707F
001E
000C
ENDCHAR
STARTCHAR 2197
ENCODING 8599
SWIDTH 382 0
DWIDTH 17 0
BBX 16 14 1 5
BITMAP
07F8
0FFC
0FFE
07FE
00FF
01FF
03FF
0FEF
1FCE
3F8E
7F1E
FE0C
7800
3000
ENDCHAR
STARTCHAR 2198
ENCODING 8600
SWIDTH 382 0
DWIDTH 17 0
BBX 16 15 1 5
BITMAP
3000
7800
FC0C
FE1E
3F9E
1FCE
0FEF
07FF
03FF
01FF
007F
07FE
0FFC
0FF8
03C0
ENDCHAR
STARTCHAR 2199
ENCODING 8601
SWIDTH 382 0
DWIDTH 17 0
BBX 16 15 1 5
BITMAP
000C
001E
303F
787F
71FC
F3F8
F7F0
FFE0
FFC0
FF00
FE00
7FE0
3FF0
1FF0
03C0
ENDCHAR
STARTCHAR 220F
ENCODING 8719
SWIDTH 495 0
DWIDTH 22 0
BBX 20 31 1 0
BITMAP
FFFFF0
FFFFF0
FFFFF0
FFFFF0
0F0F00
0F0F00
0F0F00
0F0F00
0F0F00
0F0F00
0F0F00
0F0F00
0F0F00
0F0F00
0F0F00
0F0F00
0F0F00
0F0F00
0F0F00
0F0F00
0F0F00
0F0F00
0F0F00
0F0F00
0F0F00
0F0F00
0F0F00
0F0F00
0F0F00
0F0F00
0F0F00
ENDCHAR
STARTCHAR 2211
ENCODING 8721
SWIDTH 405 0
DWIDTH 18 0
BBX 16 31 1 0
BITMAP
FFFF
FFFF
FFFF
FFFF
F800
FC00
7C00
7E00
3E00
1F00
1F00
0F80
0F80
07C0
07C0
03E0
07C0
07C0
0F80
0F80
1F00
1F00
3E00
3E00
7C00
FC00
F800
FFFF
FFFF
FFFF
FFFF
ENDCHAR
STARTCHAR 2212
ENCODING 8722
SWIDTH 427 0
DWIDTH 19 0
BBX 17 5 1 13
BITMAP
FFFF80
FFFF80
FFFF80
FFFF80
FFFF80
ENDCHAR
STARTCHAR 221A
ENCODING 8730
SWIDTH 517 0
DWIDTH 23 0
BBX 34 40 1 0
BITMAP
00003FFFC0
00003FFFC0
00003FFFC0
00007FFFC0
00007C0000
00007C0000
00007C0000
0000780000
0000780000
0000780000
0000F80000
0000F80000
0000F80000
0000F80000
0000F00000
0000F00000
0000F00000
0000F00000
0001F00000
0001F00000
0001F00000
0001E00000
0001E00000
FF01E00000
FF01E00000
FF83E00000
FF83E00000
0F83E00000
0783C00000
07C3C00000
07C3C00000
03C3C00000
03E7C00000
03E7C00000
01E7C00000
01F7C00000
01FF800000
00FF800000
00FF800000
00FF800000
ENDCHAR
STARTCHAR 2260
ENCODING 8800
SWIDTH 427 0
DWIDTH 19 0
BBX 17 18 1 6
BITMAP
007800
00F800
00F800
FFFF80
FFFF80
FFFF80
FFFF80
FFFF80
03E000
03E000
FFFF80
FFFF80
FFFF80
FFFF80
FFFF80
078000
0F8000
0F8000
ENDCHAR
STARTCHAR 2264
ENCODING 8804
SWIDTH 382 0
DWIDTH 17 0
BBX 16 31 1 0
BITMAP
0003
0007
001F
007F
01FF
07FF
1FFC
7FF0
FFC0
FF00
FC00
F000
F000
FC00
FF00
FFC0
7FF0
1FFC
07FF
01FF
007F
001F
000F
0003
0000
0000
0000
FFFF
FFFF
FFFF
FFFF
ENDCHAR
STARTCHAR 2265
ENCODING 8805
SWIDTH 382 0
DWIDTH 17 0
BBX 16 31 1 0
BITMAP
8000
E000
F800
FE00
FF00
FFC0
7FF0
1FFC
07FF
01FF
007F
001F
001F
003F
00FF
03FF
0FFC
3FF8
FFE0
FF80
FE00
F800
E000
8000
0000
0000
0000
FFFF
FFFF
FFFF
FFFF
ENDCHAR
ENDFONT
